<svg width="730" height="530" viewBox="0 0 730 530" fill="none" xmlns="http://www.w3.org/2000/svg">
<mask id="path-1-inside-1_687_41817" fill="white">
<path fill-rule="evenodd" clip-rule="evenodd" d="M568 172C568 166.477 563.523 162 558 162L172 162C166.477 162 162 166.477 162 172V358C162 363.523 166.477 368 172 368L558 368C563.523 368 568 363.523 568 358V172ZM685 530L720 530C725.523 530 730 525.523 730 520V10C730 4.47717 725.523 2.5209e-05 720 2.49676e-05L568 1.83235e-05L162 1.96785e-05L155 0L10 1.17845e-05C4.47718 1.22334e-05 2.25342e-05 4.47716 2.22928e-05 10L0 520C-2.41411e-07 525.523 4.47715 530 10 530H155H162H568L685 530Z"/>
</mask>
<path d="M685 530V531V530ZM568 1.83235e-05V-0.999982V1.83235e-05ZM162 1.96785e-05V1.00002V1.96785e-05ZM155 0L155 -1H155V0ZM568 530V529V530ZM558 368V367V368ZM172 368V367V368ZM558 162V163V162ZM720 530V529V530ZM162 172H161H162ZM172 163L558 163V161L172 161V163ZM163 358V172H161V358H163ZM172 369L558 369V367L172 367V369ZM567 172V358H569V172H567ZM685 531L720 531V529L685 529V531ZM731 520V10H729V520H731ZM720 -0.999975L568 -0.999982V1.00002L720 1.00002V-0.999975ZM568 -0.999982L162 -0.99998V1.00002L568 1.00002V-0.999982ZM162 -0.99998L155 -1L155 1L162 1.00002L162 -0.99998ZM155 -1L10 -0.999988L10 1.00001L155 1V-1ZM-0.999978 10L-1 520H1L1.00002 10H-0.999978ZM10 531H155V529H10V531ZM162 529H155V531H162V529ZM568 529H162V531H568V529ZM685 529L568 529V531L685 531V529ZM10 -0.999988C3.92489 -0.999988 -0.999977 3.92488 -0.999978 10H1.00002C1.00002 5.02945 5.02946 1.00001 10 1.00001L10 -0.999988ZM731 10C731 3.92488 726.075 -0.999975 720 -0.999975V1.00002C724.971 1.00003 729 5.02946 729 10H731ZM558 369C564.075 369 569 364.075 569 358H567C567 362.971 562.971 367 558 367V369ZM161 358C161 364.075 165.925 369 172 369V367C167.029 367 163 362.971 163 358H161ZM558 163C562.971 163 567 167.029 567 172H569C569 165.925 564.075 161 558 161V163ZM720 531C726.075 531 731 526.075 731 520H729C729 524.971 724.971 529 720 529V531ZM-1 520C-1 526.075 3.92487 531 10 531V529C5.02943 529 1 524.971 1 520H-1ZM172 161C165.925 161 161 165.925 161 172H163C163 167.029 167.029 163 172 163V161Z" fill="#818181" mask="url(#path-1-inside-1_687_41817)"/>
<path d="M201.8 99.92C199.933 100.987 197.933 101.76 195.8 102.24C193.72 102.773 191.48 103.04 189.08 103.04C186.147 103.04 183.427 102.533 180.92 101.52C178.467 100.453 176.333 98.88 174.52 96.8C172.707 94.6667 171.267 91.9733 170.2 88.72C169.187 85.4667 168.68 81.6267 168.68 77.2C168.68 72.9867 169.213 69.28 170.28 66.08C171.4 62.88 172.893 60.1867 174.76 58C176.627 55.8133 178.813 54.16 181.32 53.04C183.827 51.92 186.493 51.36 189.32 51.36C191.293 51.36 193.293 51.6267 195.32 52.16C197.4 52.6933 199.427 53.5733 201.4 54.8L199.48 60.24C195.96 58.2133 192.653 57.2 189.56 57.2C187.373 57.2 185.4 57.68 183.64 58.64C181.933 59.5467 180.467 60.88 179.24 62.64C178.013 64.4 177.053 66.5067 176.36 68.96C175.72 71.4133 175.4 74.16 175.4 77.2C175.4 80.6133 175.747 83.5733 176.44 86.08C177.187 88.5867 178.2 90.6667 179.48 92.32C180.76 93.9733 182.28 95.2 184.04 96C185.853 96.8 187.8 97.2 189.88 97.2C191.427 97.2 193.053 97.0133 194.76 96.64C196.467 96.2133 198.227 95.4933 200.04 94.48L201.8 99.92ZM213.56 102V66.88C219 65.0133 224.493 64.08 230.04 64.08C231.747 64.08 233.373 64.16 234.92 64.32C236.467 64.4267 238.173 64.6933 240.04 65.12L238.84 70.96C237.133 70.48 235.613 70.1867 234.28 70.08C233 69.92 231.587 69.84 230.04 69.84C226.787 69.84 223.48 70.2933 220.12 71.2V102H213.56ZM265.72 64C270.733 64 274.6 65.5733 277.32 68.72C280.04 71.8133 281.4 76.5333 281.4 82.88V85.2H254.84C255.107 89.04 256.36 91.9733 258.6 94C260.893 95.9733 264.093 96.96 268.2 96.96C270.547 96.96 272.547 96.7733 274.2 96.4C275.853 96.0267 277.107 95.6267 277.96 95.2L278.84 100.8C278.04 101.227 276.6 101.68 274.52 102.16C272.44 102.64 270.093 102.88 267.48 102.88C264.28 102.88 261.453 102.4 259 101.44C256.6 100.427 254.6 99.0667 253 97.36C251.4 95.6533 250.2 93.6267 249.4 91.28C248.6 88.88 248.2 86.2933 248.2 83.52C248.2 80.2133 248.707 77.3333 249.72 74.88C250.733 72.4267 252.067 70.4 253.72 68.8C255.373 67.2 257.24 66 259.32 65.2C261.4 64.4 263.533 64 265.72 64ZM274.68 79.84C274.68 76.6933 273.853 74.2133 272.2 72.4C270.547 70.5333 268.36 69.6 265.64 69.6C264.093 69.6 262.68 69.8933 261.4 70.48C260.173 71.0667 259.107 71.84 258.2 72.8C257.293 73.76 256.573 74.8533 256.04 76.08C255.507 77.3067 255.16 78.56 255 79.84H274.68ZM305.4 97.28C307.053 97.28 308.52 97.2267 309.8 97.12C311.133 97.0133 312.227 96.88 313.08 96.72V85.68C312.227 85.4133 311.187 85.2 309.96 85.04C308.787 84.88 307.533 84.8 306.2 84.8C304.973 84.8 303.773 84.9067 302.6 85.12C301.427 85.28 300.387 85.6 299.48 86.08C298.573 86.56 297.827 87.2 297.24 88C296.653 88.7467 296.36 89.7067 296.36 90.88C296.36 93.28 297.16 94.96 298.76 95.92C300.413 96.8267 302.627 97.28 305.4 97.28ZM304.76 64C307.533 64 309.853 64.3467 311.72 65.04C313.64 65.7333 315.187 66.6933 316.36 67.92C317.533 69.1467 318.36 70.64 318.84 72.4C319.32 74.16 319.56 76.08 319.56 78.16V101.36C318.013 101.627 315.96 101.947 313.4 102.32C310.893 102.693 308.307 102.88 305.64 102.88C303.613 102.88 301.64 102.693 299.72 102.32C297.8 102 296.093 101.413 294.6 100.56C293.107 99.6533 291.907 98.4267 291 96.88C290.093 95.3333 289.64 93.36 289.64 90.96C289.64 88.8267 290.093 87.04 291 85.6C291.96 84.1067 293.16 82.9067 294.6 82C296.093 81.0933 297.773 80.4533 299.64 80.08C301.56 79.6533 303.48 79.44 305.4 79.44C308.013 79.44 310.573 79.7333 313.08 80.32V78.48C313.08 77.36 312.947 76.2933 312.68 75.28C312.467 74.2133 312.013 73.2533 311.32 72.4C310.68 71.5467 309.773 70.88 308.6 70.4C307.48 69.8667 306.013 69.6 304.2 69.6C301.907 69.6 299.907 69.76 298.2 70.08C296.493 70.4 295.187 70.72 294.28 71.04L293.48 65.6C294.387 65.1733 295.88 64.8 297.96 64.48C300.093 64.16 302.36 64 304.76 64ZM344.44 64.88H360.12V70.4H344.44V87.68C344.44 89.5467 344.573 91.0667 344.84 92.24C345.107 93.4133 345.533 94.3733 346.12 95.12C346.76 95.8133 347.56 96.2933 348.52 96.56C349.48 96.8267 350.653 96.96 352.04 96.96C353.96 96.96 355.507 96.8 356.68 96.48C357.853 96.16 358.973 95.7333 360.04 95.2L361 100.8C360.253 101.12 359.053 101.547 357.4 102.08C355.8 102.613 353.8 102.88 351.4 102.88C348.627 102.88 346.36 102.56 344.6 101.92C342.84 101.28 341.453 100.32 340.44 99.04C339.48 97.76 338.813 96.1867 338.44 94.32C338.067 92.4 337.88 90.1867 337.88 87.68V70.4H330.04V64.88H337.88V54.48L344.44 53.36V64.88ZM381.72 59.12C380.333 59.12 379.133 58.64 378.12 57.68C377.107 56.72 376.6 55.4133 376.6 53.76C376.6 52.1067 377.107 50.8 378.12 49.84C379.133 48.88 380.333 48.4 381.72 48.4C383.16 48.4 384.36 48.88 385.32 49.84C386.333 50.8 386.84 52.1067 386.84 53.76C386.84 55.4133 386.333 56.72 385.32 57.68C384.36 58.64 383.16 59.12 381.72 59.12ZM380.04 70.4H369.32V64.88H386.6V87.68C386.6 91.36 387.107 93.84 388.12 95.12C389.133 96.3467 390.653 96.96 392.68 96.96C394.227 96.96 395.64 96.7733 396.92 96.4C398.253 96.0267 399.293 95.6267 400.04 95.2L401 100.8C400.68 100.96 400.227 101.173 399.64 101.44C399.053 101.653 398.36 101.867 397.56 102.08C396.813 102.293 395.96 102.48 395 102.64C394.093 102.8 393.133 102.88 392.12 102.88C389.773 102.88 387.827 102.56 386.28 101.92C384.733 101.28 383.48 100.32 382.52 99.04C381.613 97.76 380.973 96.1867 380.6 94.32C380.227 92.4 380.04 90.1867 380.04 87.68V70.4ZM442.6 64.88C441.64 68.3467 440.547 71.76 439.32 75.12C438.093 78.4267 436.84 81.68 435.56 84.88C434.28 88.0267 432.973 91.04 431.64 93.92C430.307 96.8 429.027 99.4933 427.8 102H421.8C419.293 96.9867 416.76 91.28 414.2 84.88C411.64 78.48 409.373 71.8133 407.4 64.88H414.6C415.24 67.2267 415.96 69.7067 416.76 72.32C417.613 74.9333 418.493 77.5467 419.4 80.16C420.307 82.7733 421.213 85.3067 422.12 87.76C423.08 90.16 424.013 92.32 424.92 94.24C425.827 92.32 426.76 90.16 427.72 87.76C428.733 85.3067 429.72 82.7733 430.68 80.16C431.64 77.5467 432.547 74.9333 433.4 72.32C434.307 69.7067 435.08 67.2267 435.72 64.88H442.6ZM461.72 59.12C460.333 59.12 459.133 58.64 458.12 57.68C457.107 56.72 456.6 55.4133 456.6 53.76C456.6 52.1067 457.107 50.8 458.12 49.84C459.133 48.88 460.333 48.4 461.72 48.4C463.16 48.4 464.36 48.88 465.32 49.84C466.333 50.8 466.84 52.1067 466.84 53.76C466.84 55.4133 466.333 56.72 465.32 57.68C464.36 58.64 463.16 59.12 461.72 59.12ZM460.04 70.4H449.32V64.88H466.6V87.68C466.6 91.36 467.107 93.84 468.12 95.12C469.133 96.3467 470.653 96.96 472.68 96.96C474.227 96.96 475.64 96.7733 476.92 96.4C478.253 96.0267 479.293 95.6267 480.04 95.2L481 100.8C480.68 100.96 480.227 101.173 479.64 101.44C479.053 101.653 478.36 101.867 477.56 102.08C476.813 102.293 475.96 102.48 475 102.64C474.093 102.8 473.133 102.88 472.12 102.88C469.773 102.88 467.827 102.56 466.28 101.92C464.733 101.28 463.48 100.32 462.52 99.04C461.613 97.76 460.973 96.1867 460.6 94.32C460.227 92.4 460.04 90.1867 460.04 87.68V70.4ZM504.44 64.88H520.12V70.4H504.44V87.68C504.44 89.5467 504.573 91.0667 504.84 92.24C505.107 93.4133 505.533 94.3733 506.12 95.12C506.76 95.8133 507.56 96.2933 508.52 96.56C509.48 96.8267 510.653 96.96 512.04 96.96C513.96 96.96 515.507 96.8 516.68 96.48C517.853 96.16 518.973 95.7333 520.04 95.2L521 100.8C520.253 101.12 519.053 101.547 517.4 102.08C515.8 102.613 513.8 102.88 511.4 102.88C508.627 102.88 506.36 102.56 504.6 101.92C502.84 101.28 501.453 100.32 500.44 99.04C499.48 97.76 498.813 96.1867 498.44 94.32C498.067 92.4 497.88 90.1867 497.88 87.68V70.4H490.04V64.88H497.88V54.48L504.44 53.36V64.88ZM529.08 108.96C529.56 109.227 530.227 109.44 531.08 109.6C531.987 109.76 532.813 109.84 533.56 109.84C536.173 109.84 538.2 109.253 539.64 108.08C541.133 106.96 542.493 105.093 543.72 102.48C540.733 96.8267 537.933 90.7733 535.32 84.32C532.707 77.8133 530.547 71.3333 528.84 64.88H536.04C536.573 67.0133 537.187 69.3333 537.88 71.84C538.627 74.2933 539.453 76.8267 540.36 79.44C541.267 82.0533 542.227 84.6933 543.24 87.36C544.307 89.9733 545.427 92.48 546.6 94.88C547.453 92.4267 548.253 90 549 87.6C549.747 85.2 550.44 82.8 551.08 80.4C551.72 77.9467 552.36 75.4667 553 72.96C553.64 70.4 554.307 67.7067 555 64.88H561.88C560.173 71.8133 558.253 78.5333 556.12 85.04C554.04 91.5467 551.8 97.5733 549.4 103.12C548.493 105.253 547.507 107.093 546.44 108.64C545.427 110.187 544.307 111.467 543.08 112.48C541.853 113.493 540.467 114.24 538.92 114.72C537.373 115.2 535.613 115.44 533.64 115.44C532.627 115.44 531.507 115.307 530.28 115.04C529.107 114.773 528.307 114.533 527.88 114.32L529.08 108.96Z" fill="black"/>
<path d="M508.2 423.08C510.067 422.013 512.067 421.24 514.2 420.76C516.28 420.227 518.52 419.96 520.92 419.96C523.853 419.96 526.573 420.467 529.08 421.48C531.533 422.547 533.667 424.12 535.48 426.2C537.293 428.333 538.733 431.027 539.8 434.28C540.813 437.533 541.32 441.373 541.32 445.8C541.32 450.013 540.787 453.72 539.72 456.92C538.6 460.12 537.107 462.813 535.24 465C533.373 467.187 531.187 468.84 528.68 469.96C526.173 471.08 523.507 471.64 520.68 471.64C518.707 471.64 516.707 471.373 514.68 470.84C512.6 470.307 510.573 469.427 508.6 468.2L510.52 462.76C514.04 464.787 517.347 465.8 520.44 465.8C522.627 465.8 524.6 465.32 526.36 464.36C528.067 463.453 529.533 462.12 530.76 460.36C531.987 458.6 532.947 456.493 533.64 454.04C534.28 451.587 534.6 448.84 534.6 445.8C534.6 442.387 534.253 439.427 533.56 436.92C532.813 434.413 531.8 432.333 530.52 430.68C529.24 429.027 527.72 427.8 525.96 427C524.147 426.2 522.2 425.8 520.12 425.8C518.573 425.8 516.947 425.987 515.24 426.36C513.533 426.787 511.773 427.507 509.96 428.52L508.2 423.08ZM496.44 421L496.44 456.12C491 457.987 485.507 458.92 479.96 458.92C478.253 458.92 476.627 458.84 475.08 458.68C473.533 458.573 471.827 458.307 469.96 457.88L471.16 452.04C472.867 452.52 474.387 452.813 475.72 452.92C477 453.08 478.413 453.16 479.96 453.16C483.213 453.16 486.52 452.707 489.88 451.8L489.88 421L496.44 421ZM448.28 463.88C449.667 463.88 450.867 464.36 451.88 465.32C452.893 466.28 453.4 467.587 453.4 469.24C453.4 470.893 452.893 472.2 451.88 473.16C450.867 474.12 449.667 474.6 448.28 474.6C446.84 474.6 445.64 474.12 444.68 473.16C443.667 472.2 443.16 470.893 443.16 469.24C443.16 467.587 443.667 466.28 444.68 465.32C445.64 464.36 446.84 463.88 448.28 463.88ZM449.96 452.6L460.68 452.6L460.68 458.12L443.4 458.12L443.4 435.32C443.4 431.64 442.893 429.16 441.88 427.88C440.867 426.653 439.347 426.04 437.32 426.04C435.773 426.04 434.36 426.227 433.08 426.6C431.747 426.973 430.707 427.373 429.96 427.8L429 422.2C429.32 422.04 429.773 421.827 430.36 421.56C430.947 421.347 431.64 421.133 432.44 420.92C433.187 420.707 434.04 420.52 435 420.36C435.907 420.2 436.867 420.12 437.88 420.12C440.227 420.12 442.173 420.44 443.72 421.08C445.267 421.72 446.52 422.68 447.48 423.96C448.387 425.24 449.027 426.813 449.4 428.68C449.773 430.6 449.96 432.813 449.96 435.32L449.96 452.6ZM405.56 458.12L389.88 458.12L389.88 452.6L405.56 452.6L405.56 435.32C405.56 433.453 405.427 431.933 405.16 430.76C404.893 429.587 404.467 428.627 403.88 427.88C403.24 427.187 402.44 426.707 401.48 426.44C400.52 426.173 399.347 426.04 397.96 426.04C396.04 426.04 394.493 426.2 393.32 426.52C392.147 426.84 391.027 427.267 389.96 427.8L389 422.2C389.747 421.88 390.947 421.453 392.6 420.92C394.2 420.387 396.2 420.12 398.6 420.12C401.373 420.12 403.64 420.44 405.4 421.08C407.16 421.72 408.547 422.68 409.56 423.96C410.52 425.24 411.187 426.813 411.56 428.68C411.933 430.6 412.12 432.813 412.12 435.32L412.12 452.6L419.96 452.6L419.96 458.12L412.12 458.12L412.12 468.52L405.56 469.64L405.56 458.12ZM368.28 463.88C369.667 463.88 370.867 464.36 371.88 465.32C372.893 466.28 373.4 467.587 373.4 469.24C373.4 470.893 372.893 472.2 371.88 473.16C370.867 474.12 369.667 474.6 368.28 474.6C366.84 474.6 365.64 474.12 364.68 473.16C363.667 472.2 363.16 470.893 363.16 469.24C363.16 467.587 363.667 466.28 364.68 465.32C365.64 464.36 366.84 463.88 368.28 463.88ZM369.96 452.6L380.68 452.6L380.68 458.12L363.4 458.12L363.4 435.32C363.4 431.64 362.893 429.16 361.88 427.88C360.867 426.653 359.347 426.04 357.32 426.04C355.773 426.04 354.36 426.227 353.08 426.6C351.747 426.973 350.707 427.373 349.96 427.8L349 422.2C349.32 422.04 349.773 421.827 350.36 421.56C350.947 421.347 351.64 421.133 352.44 420.92C353.187 420.707 354.04 420.52 355 420.36C355.907 420.2 356.867 420.12 357.88 420.12C360.227 420.12 362.173 420.44 363.72 421.08C365.267 421.72 366.52 422.68 367.48 423.96C368.387 425.24 369.027 426.813 369.4 428.68C369.773 430.6 369.96 432.813 369.96 435.32L369.96 452.6ZM341.08 439.48C341.08 442.84 340.547 445.747 339.48 448.2C338.413 450.653 336.947 452.68 335.08 454.28C333.213 455.88 331.053 457.053 328.6 457.8C326.093 458.6 323.427 459 320.6 459C318.787 459 317 458.867 315.24 458.6C313.427 458.387 311.507 457.96 309.48 457.32L311 451.64C312.76 452.28 314.387 452.68 315.88 452.84C317.32 453.053 318.787 453.16 320.28 453.16C322.2 453.16 324.013 452.893 325.72 452.36C327.427 451.88 328.92 451.08 330.2 449.96C331.427 448.893 332.413 447.48 333.16 445.72C333.907 444.013 334.28 441.933 334.28 439.48C334.28 437.133 333.933 435.107 333.24 433.4C332.547 431.747 331.587 430.36 330.36 429.24C329.08 428.173 327.56 427.373 325.8 426.84C324.04 426.307 322.093 426.04 319.96 426.04C318.253 426.04 316.627 426.12 315.08 426.28C313.48 426.493 311.747 426.92 309.88 427.56L308.92 422.04C310.787 421.347 312.68 420.867 314.6 420.6C316.52 420.28 318.6 420.12 320.84 420.12C323.827 420.12 326.573 420.52 329.08 421.32C331.533 422.173 333.667 423.4 335.48 425C337.24 426.6 338.627 428.6 339.64 431C340.6 433.453 341.08 436.28 341.08 439.48ZM288.28 463.88C289.667 463.88 290.867 464.36 291.88 465.32C292.893 466.28 293.4 467.587 293.4 469.24C293.4 470.893 292.893 472.2 291.88 473.16C290.867 474.12 289.667 474.6 288.28 474.6C286.84 474.6 285.64 474.12 284.68 473.16C283.667 472.2 283.16 470.893 283.16 469.24C283.16 467.587 283.667 466.28 284.68 465.32C285.64 464.36 286.84 463.88 288.28 463.88ZM289.96 452.6L300.68 452.6L300.68 458.12L283.4 458.12L283.4 435.32C283.4 431.64 282.893 429.16 281.88 427.88C280.867 426.653 279.347 426.04 277.32 426.04C275.773 426.04 274.36 426.227 273.08 426.6C271.747 426.973 270.707 427.373 269.96 427.8L269 422.2C269.32 422.04 269.773 421.827 270.36 421.56C270.947 421.347 271.64 421.133 272.44 420.92C273.187 420.707 274.04 420.52 275 420.36C275.907 420.2 276.867 420.12 277.88 420.12C280.227 420.12 282.173 420.44 283.72 421.08C285.267 421.72 286.52 422.68 287.48 423.96C288.387 425.24 289.027 426.813 289.4 428.68C289.773 430.6 289.96 432.813 289.96 435.32L289.96 452.6ZM236.92 430.28C236.92 431.613 237.48 432.707 238.6 433.56C239.667 434.413 241.027 435.16 242.68 435.8C244.28 436.44 246.04 437.053 247.96 437.64C249.88 438.28 251.667 439.053 253.32 439.96C254.92 440.867 256.28 441.987 257.4 443.32C258.467 444.653 259 446.387 259 448.52C259 451.507 257.8 453.987 255.4 455.96C252.947 457.987 249.133 459 243.96 459C241.933 459 239.853 458.84 237.72 458.52C235.533 458.253 233.667 457.88 232.12 457.4L233.32 451.48C233.747 451.693 234.333 451.907 235.08 452.12C235.827 452.387 236.68 452.6 237.64 452.76C238.6 452.973 239.64 453.133 240.76 453.24C241.827 453.347 242.867 453.4 243.88 453.4C249.64 453.4 252.52 451.827 252.52 448.68C252.52 447.56 251.987 446.6 250.92 445.8C249.8 445.053 248.413 444.36 246.76 443.72C245.107 443.08 243.32 442.413 241.4 441.72C239.48 441.08 237.693 440.28 236.04 439.32C234.387 438.36 233.027 437.187 231.96 435.8C230.84 434.467 230.28 432.76 230.28 430.68C230.28 427.32 231.587 424.707 234.2 422.84C236.813 421.027 240.947 420.12 246.6 420.12C249.16 420.12 251.507 420.333 253.64 420.76C255.773 421.187 257.8 421.827 259.72 422.68L258.44 428.68C256.573 427.827 254.627 427.107 252.6 426.52C250.52 425.987 248.307 425.72 245.96 425.72C239.933 425.72 236.92 427.24 236.92 430.28ZM221.72 457.08C218.52 458.307 215.507 458.92 212.68 458.92C211.133 458.92 209.693 458.68 208.36 458.2C206.973 457.773 205.8 457.08 204.84 456.12C202.547 457.987 200.093 458.92 197.48 458.92C196.2 458.92 195 458.68 193.88 458.2C192.707 457.72 191.693 457 190.84 456.04C189.933 455.08 189.213 453.88 188.68 452.44C188.147 451 187.88 449.32 187.88 447.4L187.88 421L193.88 421L193.88 447.56C193.88 449.48 194.307 450.947 195.16 451.96C196.013 452.973 197.08 453.48 198.36 453.48C199 453.48 199.667 453.32 200.36 453C201.053 452.68 201.693 452.173 202.28 451.48C201.96 450.253 201.8 448.893 201.8 447.4L201.8 435.32L207.8 435.32L207.8 447.48C207.8 449.347 208.093 450.813 208.68 451.88C209.267 452.947 210.413 453.48 212.12 453.48C213.187 453.48 214.387 453.24 215.72 452.76L215.72 421L221.72 421L221.72 457.08Z" fill="black"/>
<path d="M636 99.32L648.96 96.36L648.96 77.32L636 74.44L636 67.72C639.52 68.6267 643.333 69.64 647.44 70.76C651.547 71.88 655.76 73.08 660.08 74.36C664.4 75.6933 668.72 77.08 673.04 78.52C677.413 79.96 681.573 81.48 685.52 83.08L685.52 91.24C681.573 92.7867 677.413 94.2533 673.04 95.64C668.72 97.08 664.4 98.4133 660.08 99.64C655.76 100.92 651.547 102.12 647.44 103.24C643.333 104.36 639.52 105.373 636 106.28L636 99.32ZM679.76 86.92C676.4 85.6933 672.507 84.36 668.08 82.92C663.653 81.48 659.093 80.12 654.4 78.84L654.4 94.84C659.2 93.6133 663.813 92.28 668.24 90.84C672.72 89.4533 676.56 88.1467 679.76 86.92ZM636 115.56L671.12 115.56C672.987 121 673.92 126.493 673.92 132.04C673.92 133.747 673.84 135.373 673.68 136.92C673.573 138.467 673.307 140.173 672.88 142.04L667.04 140.84C667.52 139.133 667.813 137.613 667.92 136.28C668.08 135 668.16 133.587 668.16 132.04C668.16 128.787 667.707 125.48 666.8 122.12L636 122.12L636 115.56ZM673.12 166.44L673.12 182.12L667.6 182.12L667.6 166.44L650.32 166.44C648.453 166.44 646.933 166.573 645.76 166.84C644.587 167.107 643.627 167.533 642.88 168.12C642.187 168.76 641.707 169.56 641.44 170.52C641.173 171.48 641.04 172.653 641.04 174.04C641.04 175.96 641.2 177.507 641.52 178.68C641.84 179.853 642.267 180.973 642.8 182.04L637.2 183C636.88 182.253 636.453 181.053 635.92 179.4C635.387 177.8 635.12 175.8 635.12 173.4C635.12 170.627 635.44 168.36 636.08 166.6C636.72 164.84 637.68 163.453 638.96 162.44C640.24 161.48 641.813 160.813 643.68 160.44C645.6 160.067 647.813 159.88 650.32 159.88L667.6 159.88L667.6 152.04L673.12 152.04L673.12 159.88L683.52 159.88L684.64 166.44L673.12 166.44ZM673.12 246.44L673.12 262.12L667.6 262.12L667.6 246.44L650.32 246.44C648.453 246.44 646.933 246.573 645.76 246.84C644.587 247.107 643.627 247.533 642.88 248.12C642.187 248.76 641.707 249.56 641.44 250.52C641.173 251.48 641.04 252.653 641.04 254.04C641.04 255.96 641.2 257.507 641.52 258.68C641.84 259.853 642.267 260.973 642.8 262.04L637.2 263C636.88 262.253 636.453 261.053 635.92 259.4C635.387 257.8 635.12 255.8 635.12 253.4C635.12 250.627 635.44 248.36 636.08 246.6C636.72 244.84 637.68 243.453 638.96 242.44C640.24 241.48 641.813 240.813 643.68 240.44C645.6 240.067 647.813 239.88 650.32 239.88L667.6 239.88L667.6 232.04L673.12 232.04L673.12 239.88L683.52 239.88L684.64 246.44L673.12 246.44ZM636 272.68L690.32 272.68L691.44 279.32L672.56 279.32C672.987 280.387 673.307 281.587 673.52 282.92C673.787 284.253 673.92 285.56 673.92 286.84C673.92 289.667 673.493 292.013 672.64 293.88C671.84 295.8 670.693 297.32 669.2 298.44C667.707 299.56 665.92 300.36 663.84 300.84C661.76 301.32 659.467 301.56 656.96 301.56L636 301.56L636 295L655.52 295C660.107 295 663.333 294.36 665.2 293.08C667.12 291.8 668.08 289.507 668.08 286.2C668.08 284.813 667.92 283.453 667.6 282.12C667.333 280.84 667.067 279.907 666.8 279.32L636 279.32L636 272.68ZM674 327.72C674 332.733 672.427 336.6 669.28 339.32C666.187 342.04 661.467 343.4 655.12 343.4L652.8 343.4L652.8 316.84C648.96 317.107 646.027 318.36 644 320.6C642.027 322.893 641.04 326.093 641.04 330.2C641.04 332.547 641.227 334.547 641.6 336.2C641.973 337.853 642.373 339.107 642.8 339.96L637.2 340.84C636.773 340.04 636.32 338.6 635.84 336.52C635.36 334.44 635.12 332.093 635.12 329.48C635.12 326.28 635.6 323.453 636.56 321C637.573 318.6 638.933 316.6 640.64 315C642.347 313.4 644.373 312.2 646.72 311.4C649.12 310.6 651.707 310.2 654.48 310.2C657.787 310.2 660.667 310.707 663.12 311.72C665.573 312.733 667.6 314.067 669.2 315.72C670.8 317.373 672 319.24 672.8 321.32C673.6 323.4 674 325.533 674 327.72ZM658.16 336.68C661.307 336.68 663.787 335.853 665.6 334.2C667.467 332.547 668.4 330.36 668.4 327.64C668.4 326.093 668.107 324.68 667.52 323.4C666.933 322.173 666.16 321.107 665.2 320.2C664.24 319.293 663.147 318.573 661.92 318.04C660.693 317.507 659.44 317.16 658.16 317L658.16 336.68ZM654.56 383.8C651.627 383.8 648.96 383.373 646.56 382.52C644.213 381.72 642.187 380.573 640.48 379.08C638.773 377.587 637.44 375.8 636.48 373.72C635.573 371.64 635.12 369.373 635.12 366.92C635.12 364.52 635.573 362.28 636.48 360.2C637.44 358.173 638.773 356.413 640.48 354.92C642.187 353.427 644.213 352.253 646.56 351.4C648.96 350.6 651.627 350.2 654.56 350.2C657.493 350.2 660.16 350.6 662.56 351.4C664.96 352.253 666.987 353.427 668.64 354.92C670.347 356.413 671.653 358.173 672.56 360.2C673.52 362.28 674 364.52 674 366.92C674 369.373 673.52 371.64 672.56 373.72C671.653 375.8 670.347 377.587 668.64 379.08C666.987 380.573 664.96 381.72 662.56 382.52C660.16 383.373 657.493 383.8 654.56 383.8ZM654.56 377C658.773 377 662.08 376.093 664.48 374.28C666.933 372.467 668.16 370.013 668.16 366.92C668.16 363.88 666.933 361.453 664.48 359.64C662.08 357.88 658.773 357 654.56 357C650.4 357 647.093 357.88 644.64 359.64C642.24 361.453 641.04 363.88 641.04 366.92C641.04 370.013 642.24 372.467 644.64 374.28C647.093 376.093 650.4 377 654.56 377ZM636 395.56L671.12 395.56C672.987 401 673.92 406.493 673.92 412.04C673.92 413.747 673.84 415.373 673.68 416.92C673.573 418.467 673.307 420.173 672.88 422.04L667.04 420.84C667.52 419.133 667.813 417.613 667.92 416.28C668.08 415 668.16 413.587 668.16 412.04C668.16 408.787 667.707 405.48 666.8 402.12L636 402.12L636 395.56ZM629.04 431.08C628.773 431.56 628.56 432.227 628.4 433.08C628.24 433.987 628.16 434.813 628.16 435.56C628.16 438.173 628.747 440.2 629.92 441.64C631.04 443.133 632.907 444.493 635.52 445.72C641.173 442.733 647.227 439.933 653.68 437.32C660.187 434.707 666.667 432.547 673.12 430.84L673.12 438.04C670.987 438.573 668.667 439.187 666.16 439.88C663.707 440.627 661.173 441.453 658.56 442.36C655.947 443.267 653.307 444.227 650.64 445.24C648.027 446.307 645.52 447.427 643.12 448.6C645.573 449.453 648 450.253 650.4 451C652.8 451.747 655.2 452.44 657.6 453.08C660.053 453.72 662.533 454.36 665.04 455C667.6 455.64 670.293 456.307 673.12 457L673.12 463.88C666.187 462.173 659.467 460.253 652.96 458.12C646.453 456.04 640.427 453.8 634.88 451.4C632.747 450.493 630.907 449.507 629.36 448.44C627.813 447.427 626.533 446.307 625.52 445.08C624.507 443.853 623.76 442.467 623.28 440.92C622.8 439.373 622.56 437.613 622.56 435.64C622.56 434.627 622.693 433.507 622.96 432.28C623.227 431.107 623.467 430.307 623.68 429.88L629.04 431.08Z" fill="black"/>
<path d="M110 439.72L60.48 439.72L60.48 411.96L66.08 411.96L66.08 433.16L81.28 433.16L81.28 414.6L86.88 414.6L86.88 433.16L104.4 433.16L104.4 410.2L110 410.2L110 439.72ZM80.72 379.32C80.0267 380.067 79.3867 381.16 78.8 382.6C78.16 384.04 77.84 385.533 77.84 387.08C77.84 388.84 78.1867 390.36 78.88 391.64C79.5733 392.867 80.5333 393.88 81.76 394.68C82.9333 395.48 84.3733 396.067 86.08 396.44C87.7333 396.813 89.52 397 91.44 397C95.76 397 99.0933 395.987 101.44 393.96C103.787 391.933 104.96 389.293 104.96 386.04C104.96 384.387 104.88 383 104.72 381.88C104.56 380.707 104.4 379.853 104.24 379.32L80.72 379.32ZM55.68 379.32L54.56 372.68L108.96 372.68C109.387 374.12 109.813 375.96 110.24 378.2C110.667 380.44 110.88 383.053 110.88 386.04C110.88 388.707 110.427 391.133 109.52 393.32C108.613 395.507 107.333 397.373 105.68 398.92C103.973 400.467 101.92 401.667 99.52 402.52C97.12 403.373 94.4267 403.8 91.44 403.8C88.56 403.8 85.9467 403.453 83.6 402.76C81.2 402.013 79.1467 400.947 77.44 399.56C75.7333 398.173 74.4 396.52 73.44 394.6C72.48 392.627 72 390.387 72 387.88C72 385.907 72.24 384.173 72.72 382.68C73.2 381.187 73.7067 380.067 74.24 379.32L55.68 379.32ZM108.96 332.68C109.333 334.12 109.733 336.04 110.16 338.44C110.587 340.787 110.8 343.56 110.8 346.76C110.8 349.587 110.4 351.933 109.6 353.8C108.747 355.667 107.573 357.187 106.08 358.36C104.533 359.533 102.72 360.36 100.64 360.84C98.56 361.32 96.2667 361.56 93.76 361.56L72.88 361.56L72.88 355L92.32 355C96.9067 355 100.16 354.333 102.08 353C104 351.613 104.96 349.32 104.96 346.12C104.96 345.427 104.933 344.733 104.88 344.04C104.827 343.293 104.773 342.6 104.72 341.96C104.613 341.32 104.533 340.76 104.48 340.28C104.373 339.8 104.293 339.48 104.24 339.32L72.88 339.32L72.88 332.68L108.96 332.68ZM91.52 323.08C88.16 323.08 85.2533 322.547 82.8 321.48C80.3467 320.413 78.32 318.947 76.72 317.08C75.12 315.213 73.9467 313.053 73.2 310.6C72.4 308.093 72 305.427 72 302.6C72 300.787 72.1333 299 72.4 297.24C72.6133 295.427 73.04 293.507 73.68 291.48L79.36 293C78.72 294.76 78.32 296.387 78.16 297.88C77.9467 299.32 77.84 300.787 77.84 302.28C77.84 304.2 78.1067 306.013 78.64 307.72C79.12 309.427 79.92 310.92 81.04 312.2C82.1067 313.427 83.52 314.413 85.28 315.16C86.9867 315.907 89.0667 316.28 91.52 316.28C93.8667 316.28 95.8933 315.933 97.6 315.24C99.2533 314.547 100.64 313.587 101.76 312.36C102.827 311.08 103.627 309.56 104.16 307.8C104.693 306.04 104.96 304.093 104.96 301.96C104.96 300.253 104.88 298.627 104.72 297.08C104.507 295.48 104.08 293.747 103.44 291.88L108.96 290.92C109.653 292.787 110.133 294.68 110.4 296.6C110.72 298.52 110.88 300.6 110.88 302.84C110.88 305.827 110.48 308.573 109.68 311.08C108.827 313.533 107.6 315.667 106 317.48C104.4 319.24 102.4 320.627 100 321.64C97.5467 322.6 94.72 323.08 91.52 323.08ZM105.28 266.6C105.28 264.947 105.227 263.48 105.12 262.2C105.013 260.867 104.88 259.773 104.72 258.92L93.68 258.92C93.4133 259.773 93.2 260.813 93.04 262.04C92.88 263.213 92.8 264.467 92.8 265.8C92.8 267.027 92.9067 268.227 93.12 269.4C93.28 270.573 93.6 271.613 94.08 272.52C94.56 273.427 95.2 274.173 96 274.76C96.7467 275.347 97.7067 275.64 98.88 275.64C101.28 275.64 102.96 274.84 103.92 273.24C104.827 271.587 105.28 269.373 105.28 266.6ZM72 267.24C72 264.467 72.3467 262.147 73.04 260.28C73.7333 258.36 74.6933 256.813 75.92 255.64C77.1467 254.467 78.64 253.64 80.4 253.16C82.16 252.68 84.08 252.44 86.16 252.44L109.36 252.44C109.627 253.987 109.947 256.04 110.32 258.6C110.693 261.107 110.88 263.693 110.88 266.36C110.88 268.387 110.693 270.36 110.32 272.28C110 274.2 109.413 275.907 108.56 277.4C107.653 278.893 106.427 280.093 104.88 281C103.333 281.907 101.36 282.36 98.96 282.36C96.8267 282.36 95.04 281.907 93.6 281C92.1067 280.04 90.9067 278.84 90 277.4C89.0933 275.907 88.4533 274.227 88.08 272.36C87.6533 270.44 87.44 268.52 87.44 266.6C87.44 263.987 87.7333 261.427 88.32 258.92L86.48 258.92C85.36 258.92 84.2933 259.053 83.28 259.32C82.2133 259.533 81.2533 259.987 80.4 260.68C79.5467 261.32 78.88 262.227 78.4 263.4C77.8667 264.52 77.6 265.987 77.6 267.8C77.6 270.093 77.76 272.093 78.08 273.8C78.4 275.507 78.72 276.813 79.04 277.72L73.6 278.52C73.1733 277.613 72.8 276.12 72.48 274.04C72.16 271.907 72 269.64 72 267.24ZM72.88 227.56L72.88 211.88L78.4 211.88L78.4 227.56L95.68 227.56C97.5467 227.56 99.0667 227.427 100.24 227.16C101.413 226.893 102.373 226.467 103.12 225.88C103.813 225.24 104.293 224.44 104.56 223.48C104.827 222.52 104.96 221.347 104.96 219.96C104.96 218.04 104.8 216.493 104.48 215.32C104.16 214.147 103.733 213.027 103.2 211.96L108.8 211C109.12 211.747 109.547 212.947 110.08 214.6C110.613 216.2 110.88 218.2 110.88 220.6C110.88 223.373 110.56 225.64 109.92 227.4C109.28 229.16 108.32 230.547 107.04 231.56C105.76 232.52 104.187 233.187 102.32 233.56C100.4 233.933 98.1867 234.12 95.68 234.12L78.4 234.12L78.4 241.96L72.88 241.96L72.88 234.12L62.48 234.12L61.36 227.56L72.88 227.56ZM67.12 190.28C67.12 191.667 66.64 192.867 65.68 193.88C64.72 194.893 63.4133 195.4 61.76 195.4C60.1067 195.4 58.8 194.893 57.84 193.88C56.88 192.867 56.4 191.667 56.4 190.28C56.4 188.84 56.88 187.64 57.84 186.68C58.8 185.667 60.1067 185.16 61.76 185.16C63.4133 185.16 64.72 185.667 65.68 186.68C66.64 187.64 67.12 188.84 67.12 190.28ZM78.4 191.96L78.4 202.68L72.88 202.68L72.88 185.4L95.68 185.4C99.36 185.4 101.84 184.893 103.12 183.88C104.347 182.867 104.96 181.347 104.96 179.32C104.96 177.773 104.773 176.36 104.4 175.08C104.027 173.747 103.627 172.707 103.2 171.96L108.8 171C108.96 171.32 109.173 171.773 109.44 172.36C109.653 172.947 109.867 173.64 110.08 174.44C110.293 175.187 110.48 176.04 110.64 177C110.8 177.907 110.88 178.867 110.88 179.88C110.88 182.227 110.56 184.173 109.92 185.72C109.28 187.267 108.32 188.52 107.04 189.48C105.76 190.387 104.187 191.027 102.32 191.4C100.4 191.773 98.1867 191.96 95.68 191.96L78.4 191.96ZM91.44 130.2C94.3733 130.2 97.04 130.627 99.44 131.48C101.787 132.28 103.813 133.427 105.52 134.92C107.227 136.413 108.56 138.2 109.52 140.28C110.427 142.36 110.88 144.627 110.88 147.08C110.88 149.48 110.427 151.72 109.52 153.8C108.56 155.827 107.227 157.587 105.52 159.08C103.813 160.573 101.787 161.747 99.44 162.6C97.04 163.4 94.3733 163.8 91.44 163.8C88.5067 163.8 85.84 163.4 83.44 162.6C81.04 161.747 79.0133 160.573 77.36 159.08C75.6533 157.587 74.3467 155.827 73.44 153.8C72.48 151.72 72 149.48 72 147.08C72 144.627 72.48 142.36 73.44 140.28C74.3467 138.2 75.6533 136.413 77.36 134.92C79.0133 133.427 81.04 132.28 83.44 131.48C85.84 130.627 88.5067 130.2 91.44 130.2ZM91.44 137C87.2267 137 83.92 137.907 81.52 139.72C79.0667 141.533 77.84 143.987 77.84 147.08C77.84 150.12 79.0667 152.547 81.52 154.36C83.92 156.12 87.2267 157 91.44 157C95.6 157 98.9067 156.12 101.36 154.36C103.76 152.547 104.96 150.12 104.96 147.08C104.96 143.987 103.76 141.533 101.36 139.72C98.9067 137.907 95.6 137 91.44 137ZM73.92 121.32C73.3333 118.92 72.88 116.547 72.56 114.2C72.24 111.8 72.08 109.56 72.08 107.48C72.08 102.52 73.36 98.7867 75.92 96.28C78.48 93.72 82.5866 92.44 88.24 92.44L110 92.44L110 99L89.44 99C87.04 99 85.0933 99.2133 83.6 99.64C82.1067 100.067 80.96 100.68 80.16 101.48C79.3066 102.227 78.72 103.16 78.4 104.28C78.08 105.347 77.92 106.52 77.92 107.8C77.92 108.867 78 110.013 78.16 111.24C78.2666 112.413 78.4267 113.56 78.64 114.68L110 114.68L110 121.32L73.92 121.32Z" fill="black"/>
</svg>
