<svg width="321" height="629" viewBox="0 0 321 629" fill="none" xmlns="http://www.w3.org/2000/svg">
<mask id="path-1-inside-1_687_41789" fill="white">
<path fill-rule="evenodd" clip-rule="evenodd" d="M172 534C166.477 534 162 538.477 162 544L162 619C162 624.523 157.523 629 152 629H10C4.47715 629 -7.24234e-07 624.523 0 619L3.85535e-05 325C3.92777e-05 319.477 4.47719 315 10 315L149 315C154.523 315 159 310.523 159 305L159 10C159 4.47715 163.477 -7.24234e-07 169 0L311 1.8621e-05C316.523 1.93453e-05 321 4.47717 321 10L321 524C321 529.523 316.523 534 311 534H172Z"/>
</mask>
<path d="M321 524H320H321ZM311 1.8621e-05V-0.999981V1.8621e-05ZM321 10H322H321ZM159 10H160H159ZM169 0V-1V0ZM149 315V316V315ZM159 305H160H159ZM10 315V314V315ZM162 544H161H162ZM161 544L161 619H163L163 544H161ZM152 628H10V630H152V628ZM1 619L1.00004 325H-0.999961L-1 619H1ZM10 316L149 316V314L10 314V316ZM160 305L160 10H158L158 305H160ZM169 1L311 1.00002V-0.999981L169 -1V1ZM320 10L320 524H322L322 10H320ZM311 533H172V535H311V533ZM320 524C320 528.971 315.97 533 311 533V535C317.075 535 322 530.075 322 524H320ZM311 1.00002C315.971 1.00002 320 5.02946 320 10H322C322 3.92489 317.075 -0.999981 311 -0.999981V1.00002ZM160 10C160 5.02944 164.03 0.999999 169 1V-1C162.925 -1 158 3.92487 158 10H160ZM149 316C155.075 316 160 311.075 160 305H158C158 309.971 153.971 314 149 314V316ZM1.00004 325C1.00004 320.029 5.02948 316 10 316V314C3.92491 314 -0.999961 318.925 -0.999961 325H1.00004ZM10 628C5.02944 628 0.999999 623.971 1 619H-1C-1 625.075 3.92487 630 10 630V628ZM161 619C161 623.971 156.971 628 152 628V630C158.075 630 163 625.075 163 619H161ZM163 544C163 539.029 167.029 535 172 535V533C165.925 533 161 537.925 161 544H163Z" fill="#818181" mask="url(#path-1-inside-1_687_41789)"/>
<path d="M264 79.8C264 82.7333 263.627 85.2933 262.88 87.48C262.133 89.72 261.067 91.56 259.68 93C258.347 94.4933 256.747 95.5867 254.88 96.28C253.013 97.0267 250.933 97.4 248.64 97.4C243.467 97.4 239.467 95.88 236.64 92.84C233.867 89.8 232.48 85.24 232.48 79.16L232.48 73.4L214 73.4L214 66.84L262.8 66.84C263.013 67.8 263.2 68.84 263.36 69.96C263.52 71.1333 263.653 72.28 263.76 73.4C263.867 74.5733 263.92 75.6933 263.92 76.76C263.973 77.88 264 78.8933 264 79.8ZM258.32 80.28C258.32 78.8933 258.293 77.56 258.24 76.28C258.24 75 258.187 74.04 258.08 73.4L238.08 73.4L238.08 78.84C238.08 82.84 238.88 85.8 240.48 87.72C242.08 89.6933 244.72 90.68 248.4 90.68C255.013 90.68 258.32 87.2133 258.32 80.28ZM214 106.68L268.32 106.68L269.44 113.32L250.56 113.32C250.987 114.387 251.307 115.587 251.52 116.92C251.787 118.253 251.92 119.56 251.92 120.84C251.92 123.667 251.493 126.013 250.64 127.88C249.84 129.8 248.693 131.32 247.2 132.44C245.707 133.56 243.92 134.36 241.84 134.84C239.76 135.32 237.467 135.56 234.96 135.56L214 135.56L214 129L233.52 129C238.107 129 241.333 128.36 243.2 127.08C245.12 125.8 246.08 123.507 246.08 120.2C246.08 118.813 245.92 117.453 245.6 116.12C245.333 114.84 245.067 113.907 244.8 113.32L214 113.32L214 106.68ZM256.88 157.72C256.88 156.333 257.36 155.133 258.32 154.12C259.28 153.107 260.587 152.6 262.24 152.6C263.893 152.6 265.2 153.107 266.16 154.12C267.12 155.133 267.6 156.333 267.6 157.72C267.6 159.16 267.12 160.36 266.16 161.32C265.2 162.333 263.893 162.84 262.24 162.84C260.587 162.84 259.28 162.333 258.32 161.32C257.36 160.36 256.88 159.16 256.88 157.72ZM245.6 156.04L245.6 145.32L251.12 145.32L251.12 162.6L228.32 162.6C224.64 162.6 222.16 163.107 220.88 164.12C219.653 165.133 219.04 166.653 219.04 168.68C219.04 170.227 219.227 171.64 219.6 172.92C219.973 174.253 220.373 175.293 220.8 176.04L215.2 177C215.04 176.68 214.827 176.227 214.56 175.64C214.347 175.053 214.133 174.36 213.92 173.56C213.707 172.813 213.52 171.96 213.36 171C213.2 170.093 213.12 169.133 213.12 168.12C213.12 165.773 213.44 163.827 214.08 162.28C214.72 160.733 215.68 159.48 216.96 158.52C218.24 157.613 219.813 156.973 221.68 156.6C223.6 156.227 225.813 156.04 228.32 156.04L245.6 156.04ZM213.12 208.04C213.12 205.693 213.44 203.747 214.08 202.2C214.72 200.653 215.68 199.427 216.96 198.52C218.24 197.613 219.813 196.973 221.68 196.6C223.6 196.227 225.813 196.04 228.32 196.04L263.44 196.04L263.44 185.32L269.04 185.32L269.04 202.6L228.32 202.6C226.453 202.6 224.933 202.707 223.76 202.92C222.587 203.187 221.627 203.56 220.88 204.04C220.187 204.573 219.707 205.213 219.44 205.96C219.173 206.707 219.04 207.587 219.04 208.6C219.04 210.147 219.227 211.587 219.6 212.92C219.973 214.253 220.373 215.293 220.8 216.04L215.2 217C215.04 216.68 214.827 216.227 214.56 215.64C214.347 215.053 214.133 214.36 213.92 213.56C213.707 212.76 213.52 211.88 213.36 210.92C213.2 210.013 213.12 209.053 213.12 208.04ZM232.56 257.8C229.627 257.8 226.96 257.373 224.56 256.52C222.213 255.72 220.187 254.573 218.48 253.08C216.773 251.587 215.44 249.8 214.48 247.72C213.573 245.64 213.12 243.373 213.12 240.92C213.12 238.52 213.573 236.28 214.48 234.2C215.44 232.173 216.773 230.413 218.48 228.92C220.187 227.427 222.213 226.253 224.56 225.4C226.96 224.6 229.627 224.2 232.56 224.2C235.493 224.2 238.16 224.6 240.56 225.4C242.96 226.253 244.987 227.427 246.64 228.92C248.347 230.413 249.653 232.173 250.56 234.2C251.52 236.28 252 238.52 252 240.92C252 243.373 251.52 245.64 250.56 247.72C249.653 249.8 248.347 251.587 246.64 253.08C244.987 254.573 242.96 255.72 240.56 256.52C238.16 257.373 235.493 257.8 232.56 257.8ZM232.56 251C236.773 251 240.08 250.093 242.48 248.28C244.933 246.467 246.16 244.013 246.16 240.92C246.16 237.88 244.933 235.453 242.48 233.64C240.08 231.88 236.773 231 232.56 231C228.4 231 225.093 231.88 222.64 233.64C220.24 235.453 219.04 237.88 219.04 240.92C219.04 244.013 220.24 246.467 222.64 248.28C225.093 250.093 228.4 251 232.56 251ZM223.28 289.08C224.613 289.08 225.707 288.52 226.56 287.4C227.413 286.333 228.16 284.973 228.8 283.32C229.44 281.72 230.053 279.96 230.64 278.04C231.28 276.12 232.053 274.333 232.96 272.68C233.867 271.08 234.987 269.72 236.32 268.6C237.653 267.533 239.387 267 241.52 267C244.507 267 246.987 268.2 248.96 270.6C250.987 273.053 252 276.867 252 282.04C252 284.067 251.84 286.147 251.52 288.28C251.253 290.467 250.88 292.333 250.4 293.88L244.48 292.68C244.693 292.253 244.907 291.667 245.12 290.92C245.387 290.173 245.6 289.32 245.76 288.36C245.973 287.4 246.133 286.36 246.24 285.24C246.347 284.173 246.4 283.133 246.4 282.12C246.4 276.36 244.827 273.48 241.68 273.48C240.56 273.48 239.6 274.013 238.8 275.08C238.053 276.2 237.36 277.587 236.72 279.24C236.08 280.893 235.413 282.68 234.72 284.6C234.08 286.52 233.28 288.307 232.32 289.96C231.36 291.613 230.187 292.973 228.8 294.04C227.467 295.16 225.76 295.72 223.68 295.72C220.32 295.72 217.707 294.413 215.84 291.8C214.027 289.187 213.12 285.053 213.12 279.4C213.12 276.84 213.333 274.493 213.76 272.36C214.187 270.227 214.827 268.2 215.68 266.28L221.68 267.56C220.827 269.427 220.107 271.373 219.52 273.4C218.987 275.48 218.72 277.693 218.72 280.04C218.72 286.067 220.24 289.08 223.28 289.08ZM232.56 337.8C229.627 337.8 226.96 337.373 224.56 336.52C222.213 335.72 220.187 334.573 218.48 333.08C216.773 331.587 215.44 329.8 214.48 327.72C213.573 325.64 213.12 323.373 213.12 320.92C213.12 318.52 213.573 316.28 214.48 314.2C215.44 312.173 216.773 310.413 218.48 308.92C220.187 307.427 222.213 306.253 224.56 305.4C226.96 304.6 229.627 304.2 232.56 304.2C235.493 304.2 238.16 304.6 240.56 305.4C242.96 306.253 244.987 307.427 246.64 308.92C248.347 310.413 249.653 312.173 250.56 314.2C251.52 316.28 252 318.52 252 320.92C252 323.373 251.52 325.64 250.56 327.72C249.653 329.8 248.347 331.587 246.64 333.08C244.987 334.573 242.96 335.72 240.56 336.52C238.16 337.373 235.493 337.8 232.56 337.8ZM232.56 331C236.773 331 240.08 330.093 242.48 328.28C244.933 326.467 246.16 324.013 246.16 320.92C246.16 317.88 244.933 315.453 242.48 313.64C240.08 311.88 236.773 311 232.56 311C228.4 311 225.093 311.88 222.64 313.64C220.24 315.453 219.04 317.88 219.04 320.92C219.04 324.013 220.24 326.467 222.64 328.28C225.093 330.093 228.4 331 232.56 331ZM232.48 371C236.8 371 240.133 369.987 242.48 367.96C244.88 365.933 246.08 363.293 246.08 360.04C246.08 358.227 246 356.787 245.84 355.72C245.68 354.707 245.493 353.907 245.28 353.32L221.84 353.32C221.147 354.067 220.507 355.16 219.92 356.6C219.333 358.04 219.04 359.533 219.04 361.08C219.04 362.84 219.387 364.333 220.08 365.56C220.773 366.84 221.707 367.88 222.88 368.68C224.107 369.48 225.52 370.067 227.12 370.44C228.773 370.813 230.56 371 232.48 371ZM232.48 377.8C229.653 377.8 227.04 377.427 224.64 376.68C222.293 375.987 220.267 374.947 218.56 373.56C216.853 372.227 215.52 370.573 214.56 368.6C213.6 366.627 213.12 364.387 213.12 361.88C213.12 359.907 213.36 358.173 213.84 356.68C214.32 355.187 214.853 354.067 215.44 353.32L200.8 353.32L200.8 346.68L250 346.68C250.427 348.12 250.853 349.96 251.28 352.2C251.707 354.493 251.92 357.107 251.92 360.04C251.92 362.707 251.467 365.133 250.56 367.32C249.653 369.507 248.347 371.373 246.64 372.92C244.987 374.467 242.96 375.667 240.56 376.52C238.16 377.373 235.467 377.8 232.48 377.8ZM214 386.68L268.32 386.68L269.44 393.32L250.56 393.32C250.987 394.387 251.307 395.587 251.52 396.92C251.787 398.253 251.92 399.56 251.92 400.84C251.92 403.667 251.493 406.013 250.64 407.88C249.84 409.8 248.693 411.32 247.2 412.44C245.707 413.56 243.92 414.36 241.84 414.84C239.76 415.32 237.467 415.56 234.96 415.56L214 415.56L214 409L233.52 409C238.107 409 241.333 408.36 243.2 407.08C245.12 405.8 246.08 403.507 246.08 400.2C246.08 398.813 245.92 397.453 245.6 396.12C245.333 394.84 245.067 393.907 244.8 393.32L214 393.32L214 386.68ZM207.04 425.08C206.773 425.56 206.56 426.227 206.4 427.08C206.24 427.987 206.16 428.813 206.16 429.56C206.16 432.173 206.747 434.2 207.92 435.64C209.04 437.133 210.907 438.493 213.52 439.72C219.173 436.733 225.227 433.933 231.68 431.32C238.187 428.707 244.667 426.547 251.12 424.84L251.12 432.04C248.987 432.573 246.667 433.187 244.16 433.88C241.707 434.627 239.173 435.453 236.56 436.36C233.947 437.267 231.307 438.227 228.64 439.24C226.027 440.307 223.52 441.427 221.12 442.6C223.573 443.453 226 444.253 228.4 445C230.8 445.747 233.2 446.44 235.6 447.08C238.053 447.72 240.533 448.36 243.04 449C245.6 449.64 248.293 450.307 251.12 451L251.12 457.88C244.187 456.173 237.467 454.253 230.96 452.12C224.453 450.04 218.427 447.8 212.88 445.4C210.747 444.493 208.907 443.507 207.36 442.44C205.813 441.427 204.533 440.307 203.52 439.08C202.507 437.853 201.76 436.467 201.28 434.92C200.8 433.373 200.56 431.613 200.56 429.64C200.56 428.627 200.693 427.507 200.96 426.28C201.227 425.107 201.467 424.307 201.68 423.88L207.04 425.08Z" fill="black"/>
<path d="M83.8 391.8C79.2133 391.8 75.32 391.213 72.12 390.04C68.92 388.92 66.3067 387.347 64.28 385.32C62.3067 383.347 60.8667 380.973 59.96 378.2C59.0533 375.48 58.6 372.52 58.6 369.32C58.6 366.013 59 362.68 59.8 359.32L107.8 359.32C108.6 362.68 109 366.013 109 369.32C109 372.52 108.547 375.48 107.64 378.2C106.733 380.973 105.267 383.347 103.24 385.32C101.213 387.347 98.6 388.92 95.4 390.04C92.2 391.213 88.3333 391.8 83.8 391.8ZM64.52 365.88C64.36 367.213 64.28 368.573 64.28 369.96C64.28 372.36 64.6267 374.493 65.32 376.36C66.0667 378.227 67.2133 379.8 68.76 381.08C70.36 382.36 72.3867 383.347 74.84 384.04C77.3467 384.733 80.3333 385.08 83.8 385.08C90.52 385.08 95.4533 383.773 98.6 381.16C101.747 378.6 103.32 374.787 103.32 369.72C103.32 369.027 103.293 368.333 103.24 367.64C103.24 367 103.187 366.413 103.08 365.88L64.52 365.88ZM59 403.56L94.12 403.56C95.9867 409 96.92 414.493 96.92 420.04C96.92 421.747 96.84 423.373 96.68 424.92C96.5733 426.467 96.3067 428.173 95.88 430.04L90.04 428.84C90.52 427.133 90.8133 425.613 90.92 424.28C91.08 423 91.16 421.587 91.16 420.04C91.16 416.787 90.7067 413.48 89.8 410.12L59 410.12L59 403.56ZM97 455.72C97 460.733 95.4267 464.6 92.28 467.32C89.1867 470.04 84.4667 471.4 78.12 471.4L75.8 471.4L75.8 444.84C71.96 445.107 69.0267 446.36 67 448.6C65.0267 450.893 64.04 454.093 64.04 458.2C64.04 460.547 64.2267 462.547 64.6 464.2C64.9733 465.853 65.3733 467.107 65.8 467.96L60.2 468.84C59.7733 468.04 59.32 466.6 58.84 464.52C58.36 462.44 58.12 460.093 58.12 457.48C58.12 454.28 58.6 451.453 59.56 449C60.5733 446.6 61.9333 444.6 63.64 443C65.3467 441.4 67.3733 440.2 69.72 439.4C72.12 438.6 74.7067 438.2 77.48 438.2C80.7867 438.2 83.6667 438.707 86.12 439.72C88.5733 440.733 90.6 442.067 92.2 443.72C93.8 445.373 95 447.24 95.8 449.32C96.6 451.4 97 453.533 97 455.72ZM81.16 464.68C84.3067 464.68 86.7867 463.853 88.6 462.2C90.4667 460.547 91.4 458.36 91.4 455.64C91.4 454.093 91.1067 452.68 90.52 451.4C89.9333 450.173 89.16 449.107 88.2 448.2C87.24 447.293 86.1467 446.573 84.92 446.04C83.6933 445.507 82.44 445.16 81.16 445L81.16 464.68ZM63.72 495.4C63.72 497.053 63.7733 498.52 63.88 499.8C63.9867 501.133 64.12 502.227 64.28 503.08L75.32 503.08C75.5867 502.227 75.8 501.187 75.96 499.96C76.12 498.787 76.2 497.533 76.2 496.2C76.2 494.973 76.0933 493.773 75.88 492.6C75.72 491.427 75.4 490.387 74.92 489.48C74.44 488.573 73.8 487.827 73 487.24C72.2533 486.653 71.2933 486.36 70.12 486.36C67.72 486.36 66.04 487.16 65.08 488.76C64.1733 490.413 63.72 492.627 63.72 495.4ZM97 494.76C97 497.533 96.6533 499.853 95.96 501.72C95.2667 503.64 94.3067 505.187 93.08 506.36C91.8533 507.533 90.36 508.36 88.6 508.84C86.84 509.32 84.92 509.56 82.84 509.56L59.64 509.56C59.3733 508.013 59.0533 505.96 58.68 503.4C58.3067 500.893 58.12 498.307 58.12 495.64C58.12 493.613 58.3067 491.64 58.68 489.72C59 487.8 59.5867 486.093 60.44 484.6C61.3467 483.107 62.5733 481.907 64.12 481C65.6667 480.093 67.64 479.64 70.04 479.64C72.1733 479.64 73.96 480.093 75.4 481C76.8933 481.96 78.0933 483.16 79 484.6C79.9067 486.093 80.5467 487.773 80.92 489.64C81.3467 491.56 81.56 493.48 81.56 495.4C81.56 498.013 81.2667 500.573 80.68 503.08L82.52 503.08C83.64 503.08 84.7067 502.947 85.72 502.68C86.7867 502.467 87.7467 502.013 88.6 501.32C89.4533 500.68 90.12 499.773 90.6 498.6C91.1333 497.48 91.4 496.013 91.4 494.2C91.4 491.907 91.24 489.907 90.92 488.2C90.6 486.493 90.28 485.187 89.96 484.28L95.4 483.48C95.8267 484.387 96.2 485.88 96.52 487.96C96.84 490.093 97 492.36 97 494.76ZM95.08 518.28C96.3067 521.48 96.92 524.493 96.92 527.32C96.92 528.867 96.68 530.307 96.2 531.64C95.7733 533.027 95.08 534.2 94.12 535.16C95.9867 537.453 96.92 539.907 96.92 542.52C96.92 543.8 96.68 545 96.2 546.12C95.72 547.293 95 548.307 94.04 549.16C93.08 550.067 91.88 550.787 90.44 551.32C89 551.853 87.32 552.12 85.4 552.12L59 552.12L59 546.12L85.56 546.12C87.48 546.12 88.9467 545.693 89.96 544.84C90.9733 543.987 91.48 542.92 91.48 541.64C91.48 541 91.32 540.333 91 539.64C90.68 538.947 90.1733 538.307 89.48 537.72C88.2533 538.04 86.8933 538.2 85.4 538.2L73.32 538.2L73.32 532.2L85.48 532.2C87.3467 532.2 88.8133 531.907 89.88 531.32C90.9467 530.733 91.48 529.587 91.48 527.88C91.48 526.813 91.24 525.613 90.76 524.28L59 524.28L59 518.28L95.08 518.28ZM68.28 583.08C69.6133 583.08 70.7067 582.52 71.56 581.4C72.4133 580.333 73.16 578.973 73.8 577.32C74.44 575.72 75.0533 573.96 75.64 572.04C76.28 570.12 77.0533 568.333 77.96 566.68C78.8667 565.08 79.9867 563.72 81.32 562.6C82.6533 561.533 84.3867 561 86.52 561C89.5067 561 91.9867 562.2 93.96 564.6C95.9867 567.053 97 570.867 97 576.04C97 578.067 96.84 580.147 96.52 582.28C96.2533 584.467 95.88 586.333 95.4 587.88L89.48 586.68C89.6933 586.253 89.9067 585.667 90.12 584.92C90.3867 584.173 90.6 583.32 90.76 582.36C90.9733 581.4 91.1333 580.36 91.24 579.24C91.3467 578.173 91.4 577.133 91.4 576.12C91.4 570.36 89.8267 567.48 86.68 567.48C85.56 567.48 84.6 568.013 83.8 569.08C83.0533 570.2 82.36 571.587 81.72 573.24C81.08 574.893 80.4133 576.68 79.72 578.6C79.08 580.52 78.28 582.307 77.32 583.96C76.36 585.613 75.1867 586.973 73.8 588.04C72.4667 589.16 70.76 589.72 68.68 589.72C65.32 589.72 62.7067 588.413 60.84 585.8C59.0267 583.187 58.12 579.053 58.12 573.4C58.12 570.84 58.3333 568.493 58.76 566.36C59.1867 564.227 59.8267 562.2 60.68 560.28L66.68 561.56C65.8267 563.427 65.1067 565.373 64.52 567.4C63.9867 569.48 63.72 571.693 63.72 574.04C63.72 580.067 65.24 583.08 68.28 583.08Z" fill="black"/>
</svg>
