<svg width="433" height="583" viewBox="0 0 433 583" fill="none" xmlns="http://www.w3.org/2000/svg">
<mask id="path-1-inside-1_687_41827" fill="white">
<path fill-rule="evenodd" clip-rule="evenodd" d="M172 421C166.477 421 162 416.523 162 411L162 172C162 166.477 166.477 162 172 162H261C266.523 162 271 166.477 271 172L271 411C271 416.523 266.523 421 261 421H172ZM59 583L10 583C4.47716 583 -2.41412e-07 578.523 0 573L2.46095e-05 10C2.48509e-05 4.47716 4.47718 5.37353e-07 10 1.20021e-06L59 7.08125e-06H162L271 0L423 6.64413e-06C428.523 6.88554e-06 433 4.47716 433 10L433 573C433 578.523 428.523 583 423 583H410H271H162L59 583Z"/>
</mask>
<path d="M59 583V582H59L59 583ZM59 7.08125e-06L59 1.00001H59V7.08125e-06ZM162 7.08125e-06V1.00001V7.08125e-06ZM271 0V-1V0ZM162 583V584V583ZM433 10H434H433ZM271 411H270H271ZM162 411H161H162ZM10 583L10 582L10 583ZM433 573H432H433ZM162 172H163H162ZM172 162V161V162ZM161 172L161 411H163L163 172H161ZM261 161H172V163H261V161ZM272 411L272 172H270L270 411H272ZM172 422H261V420H172V422ZM59 582L10 582L10 584L59 584L59 582ZM1 573L1.00002 10H-0.999975L-1 573H1ZM10 1L59 1.00001L59 -0.999993L10 -0.999999V1ZM59 1.00001H162V-0.999993H59V1.00001ZM162 1.00001L271 1V-1L162 -0.999993V1.00001ZM271 1L423 1.00001V-0.999993L271 -1V1ZM432 10L432 573H434L434 10H432ZM423 582H410V584H423V582ZM410 582H271V584H410V582ZM271 582H162V584H271V582ZM162 582L59 582L59 584L162 584V582ZM423 1.00001C427.971 1.00001 432 5.02944 432 10H434C434 3.92487 429.075 -0.999993 423 -0.999993V1.00001ZM1.00002 10C1.00002 5.02944 5.02946 1 10 1V-0.999999C3.92489 -1 -0.999975 3.92487 -0.999975 10H1.00002ZM270 411C270 415.971 265.971 420 261 420V422C267.075 422 272 417.075 272 411H270ZM261 163C265.971 163 270 167.029 270 172H272C272 165.925 267.075 161 261 161V163ZM161 411C161 417.075 165.925 422 172 422V420C167.029 420 163 415.971 163 411H161ZM10 582C5.02944 582 1 577.971 1 573H-1C-1 579.075 3.92487 584 10 584L10 582ZM432 573C432 577.971 427.971 582 423 582V584C429.075 584 434 579.075 434 573H432ZM163 172C163 167.029 167.029 163 172 163V161C165.925 161 161 165.925 161 172H163Z" fill="#818181" mask="url(#path-1-inside-1_687_41827)"/>
<path d="M330 158.28L379.52 158.28L379.52 186.36L373.92 186.36L373.92 164.84L358.48 164.84L358.48 183.8L352.96 183.8L352.96 164.84L330 164.84L330 158.28ZM372.88 207.72C372.88 206.333 373.36 205.133 374.32 204.12C375.28 203.107 376.587 202.6 378.24 202.6C379.893 202.6 381.2 203.107 382.16 204.12C383.12 205.133 383.6 206.333 383.6 207.72C383.6 209.16 383.12 210.36 382.16 211.32C381.2 212.333 379.893 212.84 378.24 212.84C376.587 212.84 375.28 212.333 374.32 211.32C373.36 210.36 372.88 209.16 372.88 207.72ZM361.6 206.04L361.6 195.32L367.12 195.32L367.12 212.6L344.32 212.6C340.64 212.6 338.16 213.107 336.88 214.12C335.653 215.133 335.04 216.653 335.04 218.68C335.04 220.227 335.227 221.64 335.6 222.92C335.973 224.253 336.373 225.293 336.8 226.04L331.2 227C331.04 226.68 330.827 226.227 330.56 225.64C330.347 225.053 330.133 224.36 329.92 223.56C329.707 222.813 329.52 221.96 329.36 221C329.2 220.093 329.12 219.133 329.12 218.12C329.12 215.773 329.44 213.827 330.08 212.28C330.72 210.733 331.68 209.48 332.96 208.52C334.24 207.613 335.813 206.973 337.68 206.6C339.6 206.227 341.813 206.04 344.32 206.04L361.6 206.04ZM348.48 234.92C351.84 234.92 354.747 235.453 357.2 236.52C359.653 237.587 361.68 239.053 363.28 240.92C364.88 242.787 366.053 244.947 366.8 247.4C367.6 249.907 368 252.573 368 255.4C368 257.213 367.867 259 367.6 260.76C367.387 262.573 366.96 264.493 366.32 266.52L360.64 265C361.28 263.24 361.68 261.613 361.84 260.12C362.053 258.68 362.16 257.213 362.16 255.72C362.16 253.8 361.893 251.987 361.36 250.28C360.88 248.573 360.08 247.08 358.96 245.8C357.893 244.573 356.48 243.587 354.72 242.84C353.013 242.093 350.933 241.72 348.48 241.72C346.133 241.72 344.107 242.067 342.4 242.76C340.747 243.453 339.36 244.413 338.24 245.64C337.173 246.92 336.373 248.44 335.84 250.2C335.307 251.96 335.04 253.907 335.04 256.04C335.04 257.747 335.12 259.373 335.28 260.92C335.493 262.52 335.92 264.253 336.56 266.12L331.04 267.08C330.347 265.213 329.867 263.32 329.6 261.4C329.28 259.48 329.12 257.4 329.12 255.16C329.12 252.173 329.52 249.427 330.32 246.92C331.173 244.467 332.4 242.333 334 240.52C335.6 238.76 337.6 237.373 340 236.36C342.453 235.4 345.28 234.92 348.48 234.92ZM367.12 290.44L367.12 306.12L361.6 306.12L361.6 290.44L344.32 290.44C342.453 290.44 340.933 290.573 339.76 290.84C338.587 291.107 337.627 291.533 336.88 292.12C336.187 292.76 335.707 293.56 335.44 294.52C335.173 295.48 335.04 296.653 335.04 298.04C335.04 299.96 335.2 301.507 335.52 302.68C335.84 303.853 336.267 304.973 336.8 306.04L331.2 307C330.88 306.253 330.453 305.053 329.92 303.4C329.387 301.8 329.12 299.8 329.12 297.4C329.12 294.627 329.44 292.36 330.08 290.6C330.72 288.84 331.68 287.453 332.96 286.44C334.24 285.48 335.813 284.813 337.68 284.44C339.6 284.067 341.813 283.88 344.32 283.88L361.6 283.88L361.6 276.04L367.12 276.04L367.12 283.88L377.52 283.88L378.64 290.44L367.12 290.44ZM372.88 327.72C372.88 326.333 373.36 325.133 374.32 324.12C375.28 323.107 376.587 322.6 378.24 322.6C379.893 322.6 381.2 323.107 382.16 324.12C383.12 325.133 383.6 326.333 383.6 327.72C383.6 329.16 383.12 330.36 382.16 331.32C381.2 332.333 379.893 332.84 378.24 332.84C376.587 332.84 375.28 332.333 374.32 331.32C373.36 330.36 372.88 329.16 372.88 327.72ZM361.6 326.04L361.6 315.32L367.12 315.32L367.12 332.6L344.32 332.6C340.64 332.6 338.16 333.107 336.88 334.12C335.653 335.133 335.04 336.653 335.04 338.68C335.04 340.227 335.227 341.64 335.6 342.92C335.973 344.253 336.373 345.293 336.8 346.04L331.2 347C331.04 346.68 330.827 346.227 330.56 345.64C330.347 345.053 330.133 344.36 329.92 343.56C329.707 342.813 329.52 341.96 329.36 341C329.2 340.093 329.12 339.133 329.12 338.12C329.12 335.773 329.44 333.827 330.08 332.28C330.72 330.733 331.68 329.48 332.96 328.52C334.24 327.613 335.813 326.973 337.68 326.6C339.6 326.227 341.813 326.04 344.32 326.04L361.6 326.04ZM348.56 387.8C345.627 387.8 342.96 387.373 340.56 386.52C338.213 385.72 336.187 384.573 334.48 383.08C332.773 381.587 331.44 379.8 330.48 377.72C329.573 375.64 329.12 373.373 329.12 370.92C329.12 368.52 329.573 366.28 330.48 364.2C331.44 362.173 332.773 360.413 334.48 358.92C336.187 357.427 338.213 356.253 340.56 355.4C342.96 354.6 345.627 354.2 348.56 354.2C351.493 354.2 354.16 354.6 356.56 355.4C358.96 356.253 360.987 357.427 362.64 358.92C364.347 360.413 365.653 362.173 366.56 364.2C367.52 366.28 368 368.52 368 370.92C368 373.373 367.52 375.64 366.56 377.72C365.653 379.8 364.347 381.587 362.64 383.08C360.987 384.573 358.96 385.72 356.56 386.52C354.16 387.373 351.493 387.8 348.56 387.8ZM348.56 381C352.773 381 356.08 380.093 358.48 378.28C360.933 376.467 362.16 374.013 362.16 370.92C362.16 367.88 360.933 365.453 358.48 363.64C356.08 361.88 352.773 361 348.56 361C344.4 361 341.093 361.88 338.64 363.64C336.24 365.453 335.04 367.88 335.04 370.92C335.04 374.013 336.24 376.467 338.64 378.28C341.093 380.093 344.4 381 348.56 381ZM366.08 396.68C366.667 399.08 367.12 401.453 367.44 403.8C367.76 406.2 367.92 408.44 367.92 410.52C367.92 415.48 366.64 419.213 364.08 421.72C361.52 424.28 357.413 425.56 351.76 425.56L330 425.56L330 419L350.56 419C352.96 419 354.907 418.787 356.4 418.36C357.893 417.933 359.04 417.32 359.84 416.52C360.693 415.773 361.28 414.84 361.6 413.72C361.92 412.653 362.08 411.48 362.08 410.2C362.08 409.133 362 407.987 361.84 406.76C361.733 405.587 361.573 404.44 361.36 403.32L330 403.32L330 396.68L366.08 396.68Z" fill="black"/>
<path d="M156.08 76.12L163.76 51.48L169.92 51.48C170.987 59.2667 171.733 67.24 172.16 75.4C172.64 83.56 173.067 92.0933 173.44 101L167.04 101C166.987 98.12 166.933 95 166.88 91.64C166.827 88.28 166.747 84.8133 166.64 81.24C166.587 77.6667 166.507 74.04 166.4 70.36C166.347 66.68 166.267 63.1067 166.16 59.64L158.96 82.2L153.2 82.2L145.84 59.64C145.787 63.1067 145.707 66.68 145.6 70.36C145.547 73.9867 145.467 77.6133 145.36 81.24C145.307 84.8133 145.227 88.28 145.12 91.64C145.067 95 145.013 98.12 144.96 101L138.56 101C138.72 96.9467 138.907 92.7867 139.12 88.52C139.333 84.2533 139.573 80.0133 139.84 75.8C140.16 71.5867 140.507 67.4267 140.88 63.32C141.307 59.2133 141.76 55.2667 142.24 51.48L148.32 51.48L156.08 76.12ZM180.08 107.96C180.56 108.227 181.227 108.44 182.08 108.6C182.987 108.76 183.813 108.84 184.56 108.84C187.173 108.84 189.2 108.253 190.64 107.08C192.133 105.96 193.493 104.093 194.72 101.48C191.733 95.8267 188.933 89.7733 186.32 83.32C183.707 76.8133 181.547 70.3333 179.84 63.88L187.04 63.88C187.573 66.0133 188.187 68.3333 188.88 70.84C189.627 73.2933 190.453 75.8267 191.36 78.44C192.267 81.0533 193.227 83.6933 194.24 86.36C195.307 88.9733 196.427 91.48 197.6 93.88C198.453 91.4267 199.253 89 200 86.6C200.747 84.2 201.44 81.8 202.08 79.4C202.72 76.9467 203.36 74.4667 204 71.96C204.64 69.4 205.307 66.7067 206 63.88L212.88 63.88C211.173 70.8133 209.253 77.5333 207.12 84.04C205.04 90.5467 202.8 96.5733 200.4 102.12C199.493 104.253 198.507 106.093 197.44 107.64C196.427 109.187 195.307 110.467 194.08 111.48C192.853 112.493 191.467 113.24 189.92 113.72C188.373 114.2 186.613 114.44 184.64 114.44C183.627 114.44 182.507 114.307 181.28 114.04C180.107 113.773 179.307 113.533 178.88 113.32L180.08 107.96ZM235.44 63.88L251.12 63.88L251.12 69.4L235.44 69.4L235.44 86.68C235.44 88.5467 235.573 90.0667 235.84 91.24C236.107 92.4134 236.533 93.3734 237.12 94.12C237.76 94.8134 238.56 95.2934 239.52 95.56C240.48 95.8267 241.653 95.96 243.04 95.96C244.96 95.96 246.507 95.8 247.68 95.48C248.853 95.16 249.973 94.7334 251.04 94.2L252 99.8C251.253 100.12 250.053 100.547 248.4 101.08C246.8 101.613 244.8 101.88 242.4 101.88C239.627 101.88 237.36 101.56 235.6 100.92C233.84 100.28 232.453 99.32 231.44 98.04C230.48 96.76 229.813 95.1867 229.44 93.32C229.067 91.4 228.88 89.1867 228.88 86.68L228.88 69.4L221.04 69.4L221.04 63.88L228.88 63.88L228.88 53.48L235.44 52.36L235.44 63.88ZM261.68 101L261.68 46.68L268.32 45.56L268.32 64.44C269.387 64.0134 270.587 63.6934 271.92 63.48C273.253 63.2134 274.56 63.08 275.84 63.08C278.667 63.08 281.013 63.5067 282.88 64.36C284.8 65.16 286.32 66.3067 287.44 67.8C288.56 69.2934 289.36 71.08 289.84 73.16C290.32 75.24 290.56 77.5334 290.56 80.04L290.56 101L284 101L284 81.48C284 76.8934 283.36 73.6667 282.08 71.8C280.8 69.88 278.507 68.92 275.2 68.92C273.813 68.92 272.453 69.08 271.12 69.4C269.84 69.6667 268.907 69.9334 268.32 70.2L268.32 101L261.68 101Z" fill="black"/>
<path d="M52.48 401.16L52.48 394.6L102 394.6L102 401.16L78.96 401.16L78.96 420.84L102 420.84L102 427.4L52.48 427.4L52.48 420.84L73.36 420.84L73.36 401.16L52.48 401.16ZM59.12 374.28C59.12 375.667 58.64 376.867 57.68 377.88C56.72 378.893 55.4133 379.4 53.76 379.4C52.1067 379.4 50.8 378.893 49.84 377.88C48.88 376.867 48.4 375.667 48.4 374.28C48.4 372.84 48.88 371.64 49.84 370.68C50.8 369.667 52.1067 369.16 53.76 369.16C55.4133 369.16 56.72 369.667 57.68 370.68C58.64 371.64 59.12 372.84 59.12 374.28ZM70.4 375.96L70.4 386.68L64.88 386.68L64.88 369.4L87.68 369.4C91.36 369.4 93.84 368.893 95.12 367.88C96.3467 366.867 96.96 365.347 96.96 363.32C96.96 361.773 96.7733 360.36 96.4 359.08C96.0267 357.747 95.6267 356.707 95.2 355.96L100.8 355C100.96 355.32 101.173 355.773 101.44 356.36C101.653 356.947 101.867 357.64 102.08 358.44C102.293 359.187 102.48 360.04 102.64 361C102.8 361.907 102.88 362.867 102.88 363.88C102.88 366.227 102.56 368.173 101.92 369.72C101.28 371.267 100.32 372.52 99.04 373.48C97.76 374.387 96.1867 375.027 94.32 375.4C92.4 375.773 90.1867 375.96 87.68 375.96L70.4 375.96ZM92.72 322.92C91.3867 322.92 90.2933 323.48 89.44 324.6C88.5867 325.667 87.84 327.027 87.2 328.68C86.56 330.28 85.9467 332.04 85.36 333.96C84.72 335.88 83.9467 337.667 83.04 339.32C82.1333 340.92 81.0133 342.28 79.68 343.4C78.3467 344.467 76.6133 345 74.48 345C71.4933 345 69.0133 343.8 67.04 341.4C65.0133 338.947 64 335.133 64 329.96C64 327.933 64.16 325.853 64.48 323.72C64.7467 321.533 65.12 319.667 65.6 318.12L71.52 319.32C71.3067 319.747 71.0933 320.333 70.88 321.08C70.6133 321.827 70.4 322.68 70.24 323.64C70.0267 324.6 69.8667 325.64 69.76 326.76C69.6533 327.827 69.6 328.867 69.6 329.88C69.6 335.64 71.1733 338.52 74.32 338.52C75.44 338.52 76.4 337.987 77.2 336.92C77.9467 335.8 78.64 334.413 79.28 332.76C79.92 331.107 80.5867 329.32 81.28 327.4C81.92 325.48 82.72 323.693 83.68 322.04C84.64 320.387 85.8133 319.027 87.2 317.96C88.5333 316.84 90.24 316.28 92.32 316.28C95.68 316.28 98.2933 317.587 100.16 320.2C101.973 322.813 102.88 326.947 102.88 332.6C102.88 335.16 102.667 337.507 102.24 339.64C101.813 341.773 101.173 343.8 100.32 345.72L94.32 344.44C95.1733 342.573 95.8933 340.627 96.48 338.6C97.0133 336.52 97.28 334.307 97.28 331.96C97.28 325.933 95.76 322.92 92.72 322.92ZM64.88 291.56L64.88 275.88L70.4 275.88L70.4 291.56L87.68 291.56C89.5467 291.56 91.0667 291.427 92.24 291.16C93.4133 290.893 94.3733 290.467 95.12 289.88C95.8133 289.24 96.2933 288.44 96.56 287.48C96.8267 286.52 96.96 285.347 96.96 283.96C96.96 282.04 96.8 280.493 96.48 279.32C96.16 278.147 95.7333 277.027 95.2 275.96L100.8 275C101.12 275.747 101.547 276.947 102.08 278.6C102.613 280.2 102.88 282.2 102.88 284.6C102.88 287.373 102.56 289.64 101.92 291.4C101.28 293.16 100.32 294.547 99.04 295.56C97.76 296.52 96.1867 297.187 94.32 297.56C92.4 297.933 90.1867 298.12 87.68 298.12L70.4 298.12L70.4 305.96L64.88 305.96L64.88 298.12L54.48 298.12L53.36 291.56L64.88 291.56ZM83.44 234.2C86.3733 234.2 89.04 234.627 91.44 235.48C93.7867 236.28 95.8133 237.427 97.52 238.92C99.2267 240.413 100.56 242.2 101.52 244.28C102.427 246.36 102.88 248.627 102.88 251.08C102.88 253.48 102.427 255.72 101.52 257.8C100.56 259.827 99.2267 261.587 97.52 263.08C95.8133 264.573 93.7867 265.747 91.44 266.6C89.04 267.4 86.3733 267.8 83.44 267.8C80.5067 267.8 77.84 267.4 75.44 266.6C73.04 265.747 71.0133 264.573 69.36 263.08C67.6533 261.587 66.3467 259.827 65.44 257.8C64.48 255.72 64 253.48 64 251.08C64 248.627 64.48 246.36 65.44 244.28C66.3467 242.2 67.6533 240.413 69.36 238.92C71.0133 237.427 73.04 236.28 75.44 235.48C77.84 234.627 80.5067 234.2 83.44 234.2ZM83.44 241C79.2267 241 75.92 241.907 73.52 243.72C71.0667 245.533 69.84 247.987 69.84 251.08C69.84 254.12 71.0667 256.547 73.52 258.36C75.92 260.12 79.2267 261 83.44 261C87.6 261 90.9067 260.12 93.36 258.36C95.76 256.547 96.96 254.12 96.96 251.08C96.96 247.987 95.76 245.533 93.36 243.72C90.9067 241.907 87.6 241 83.44 241ZM102 222.44L66.88 222.44C65.0133 217 64.08 211.507 64.08 205.96C64.08 204.253 64.16 202.627 64.32 201.08C64.4267 199.533 64.6933 197.827 65.12 195.96L70.96 197.16C70.48 198.867 70.1867 200.387 70.08 201.72C69.92 203 69.84 204.413 69.84 205.96C69.84 209.213 70.2933 212.52 71.2 215.88L102 215.88L102 222.44ZM108.96 186.92C109.227 186.44 109.44 185.773 109.6 184.92C109.76 184.013 109.84 183.187 109.84 182.44C109.84 179.827 109.253 177.8 108.08 176.36C106.96 174.867 105.093 173.507 102.48 172.28C96.8267 175.267 90.7733 178.067 84.32 180.68C77.8133 183.293 71.3333 185.453 64.88 187.16L64.88 179.96C67.0133 179.427 69.3333 178.813 71.84 178.12C74.2933 177.373 76.8267 176.547 79.44 175.64C82.0533 174.733 84.6933 173.773 87.36 172.76C89.9733 171.693 92.48 170.573 94.88 169.4C92.4267 168.547 90 167.747 87.6 167C85.2 166.253 82.8 165.56 80.4 164.92C77.9467 164.28 75.4667 163.64 72.96 163C70.4 162.36 67.7067 161.693 64.88 161L64.88 154.12C71.8133 155.827 78.5333 157.747 85.04 159.88C91.5467 161.96 97.5733 164.2 103.12 166.6C105.253 167.507 107.093 168.493 108.64 169.56C110.187 170.573 111.467 171.693 112.48 172.92C113.493 174.147 114.24 175.533 114.72 177.08C115.2 178.627 115.44 180.387 115.44 182.36C115.44 183.373 115.307 184.493 115.04 185.72C114.773 186.893 114.533 187.693 114.32 188.12L108.96 186.92Z" fill="black"/>
<path d="M366.16 521.4L359.6 521.4L359.6 498.2C360.613 497.827 362.24 497.373 364.48 496.84C366.72 496.253 369.36 495.96 372.4 495.96C375.387 495.96 378.107 496.52 380.56 497.64C383.013 498.813 385.12 500.493 386.88 502.68C388.587 504.867 389.92 507.56 390.88 510.76C391.84 514.013 392.32 517.693 392.32 521.8C392.32 525.96 391.787 529.64 390.72 532.84C389.653 536.04 388.213 538.733 386.4 540.92C384.533 543.107 382.373 544.76 379.92 545.88C377.467 547.053 374.827 547.64 372 547.64C370.187 547.64 368.587 547.507 367.2 547.24C365.813 546.973 364.64 546.653 363.68 546.28C362.667 545.907 361.84 545.507 361.2 545.08C360.56 544.707 360.08 544.413 359.76 544.2L361.92 538.68C363.147 539.64 364.613 540.413 366.32 541C367.973 541.64 369.733 541.96 371.6 541.96C373.627 541.96 375.52 541.48 377.28 540.52C378.987 539.56 380.453 538.2 381.68 536.44C382.907 534.68 383.867 532.547 384.56 530.04C385.253 527.587 385.6 524.84 385.6 521.8C385.6 518.813 385.307 516.093 384.72 513.64C384.08 511.187 383.173 509.08 382 507.32C380.827 505.56 379.387 504.173 377.68 503.16C375.92 502.2 373.92 501.72 371.68 501.72C370.133 501.72 368.933 501.827 368.08 502.04C367.227 502.253 366.587 502.467 366.16 502.68L366.16 521.4ZM335.28 535C330.267 535 326.4 533.427 323.68 530.28C320.96 527.187 319.6 522.467 319.6 516.12L319.6 513.8L346.16 513.8C345.893 509.96 344.64 507.027 342.4 505C340.107 503.027 336.907 502.04 332.8 502.04C330.453 502.04 328.453 502.227 326.8 502.6C325.147 502.973 323.893 503.373 323.04 503.8L322.16 498.2C322.96 497.773 324.4 497.32 326.48 496.84C328.56 496.36 330.907 496.12 333.52 496.12C336.72 496.12 339.547 496.6 342 497.56C344.4 498.573 346.4 499.933 348 501.64C349.6 503.347 350.8 505.373 351.6 507.72C352.4 510.12 352.8 512.707 352.8 515.48C352.8 518.787 352.293 521.667 351.28 524.12C350.267 526.573 348.933 528.6 347.28 530.2C345.627 531.8 343.76 533 341.68 533.8C339.6 534.6 337.467 535 335.28 535ZM326.32 519.16C326.32 522.307 327.147 524.787 328.8 526.6C330.453 528.467 332.64 529.4 335.36 529.4C336.907 529.4 338.32 529.107 339.6 528.52C340.827 527.933 341.893 527.16 342.8 526.2C343.707 525.24 344.427 524.147 344.96 522.92C345.493 521.693 345.84 520.44 346 519.16L326.32 519.16ZM279.2 515.56C279.2 512.627 279.627 509.96 280.48 507.56C281.28 505.213 282.427 503.187 283.92 501.48C285.413 499.773 287.2 498.44 289.28 497.48C291.36 496.573 293.627 496.12 296.08 496.12C298.48 496.12 300.72 496.573 302.8 497.48C304.827 498.44 306.587 499.773 308.08 501.48C309.573 503.187 310.747 505.213 311.6 507.56C312.4 509.96 312.8 512.627 312.8 515.56C312.8 518.493 312.4 521.16 311.6 523.56C310.747 525.96 309.573 527.987 308.08 529.64C306.587 531.347 304.827 532.653 302.8 533.56C300.72 534.52 298.48 535 296.08 535C293.627 535 291.36 534.52 289.28 533.56C287.2 532.653 285.413 531.347 283.92 529.64C282.427 527.987 281.28 525.96 280.48 523.56C279.627 521.16 279.2 518.493 279.2 515.56ZM286 515.56C286 519.773 286.907 523.08 288.72 525.48C290.533 527.933 292.987 529.16 296.08 529.16C299.12 529.16 301.547 527.933 303.36 525.48C305.12 523.08 306 519.773 306 515.56C306 511.4 305.12 508.093 303.36 505.64C301.547 503.24 299.12 502.04 296.08 502.04C292.987 502.04 290.533 503.24 288.72 505.64C286.907 508.093 286 511.4 286 515.56ZM248.32 500.44C249.067 500.013 250.213 499.56 251.76 499.08C253.307 498.6 255.093 498.36 257.12 498.36C259.307 498.36 261.36 498.707 263.28 499.4C265.147 500.147 266.8 501.24 268.24 502.68C269.627 504.173 270.747 506.04 271.6 508.28C272.4 510.573 272.8 513.267 272.8 516.36C272.8 519.08 272.427 521.56 271.68 523.8C270.88 526.093 269.76 528.067 268.32 529.72C266.827 531.373 265.013 532.653 262.88 533.56C260.747 534.52 258.32 535 255.6 535C252.4 535 249.68 534.76 247.44 534.28C245.147 533.853 243.227 533.427 241.68 533L241.68 499.88C241.68 494.12 243.147 489.96 246.08 487.4C248.96 484.84 253.333 483.56 259.2 483.56C261.6 483.56 263.787 483.747 265.76 484.12C267.68 484.493 269.387 484.947 270.88 485.48L269.68 491.32C268.293 490.733 266.72 490.253 264.96 489.88C263.147 489.507 261.173 489.32 259.04 489.32C255.2 489.32 252.453 490.093 250.8 491.64C249.147 493.187 248.32 495.693 248.32 499.16L248.32 500.44ZM248.32 528.28C248.96 528.493 249.84 528.68 250.96 528.84C252.08 529.053 253.6 529.16 255.52 529.16C258.933 529.16 261.547 527.987 263.36 525.64C265.12 523.293 266 520.173 266 516.28C266 514.147 265.76 512.307 265.28 510.76C264.747 509.267 264.053 508.013 263.2 507C262.293 506.04 261.28 505.32 260.16 504.84C259.04 504.413 257.84 504.2 256.56 504.2C254.907 504.2 253.36 504.44 251.92 504.92C250.427 505.4 249.227 505.96 248.32 506.6L248.32 528.28ZM227.44 497L227.44 532.12C222 533.987 216.507 534.92 210.96 534.92C209.253 534.92 207.627 534.84 206.08 534.68C204.533 534.573 202.827 534.307 200.96 533.88L202.16 528.04C203.867 528.52 205.387 528.813 206.72 528.92C208 529.08 209.413 529.16 210.96 529.16C214.213 529.16 217.52 528.707 220.88 527.8L220.88 497L227.44 497ZM175.6 501.72C173.947 501.72 172.48 501.773 171.2 501.88C169.867 501.987 168.773 502.12 167.92 502.28L167.92 513.32C168.773 513.587 169.813 513.8 171.04 513.96C172.213 514.12 173.467 514.2 174.8 514.2C176.027 514.2 177.227 514.093 178.4 513.88C179.573 513.72 180.613 513.4 181.52 512.92C182.427 512.44 183.173 511.8 183.76 511C184.347 510.253 184.64 509.293 184.64 508.12C184.64 505.72 183.84 504.04 182.24 503.08C180.587 502.173 178.373 501.72 175.6 501.72ZM176.24 535C173.467 535 171.147 534.653 169.28 533.96C167.36 533.267 165.813 532.307 164.64 531.08C163.467 529.853 162.64 528.36 162.16 526.6C161.68 524.84 161.44 522.92 161.44 520.84L161.44 497.64C162.987 497.373 165.04 497.053 167.6 496.68C170.107 496.307 172.693 496.12 175.36 496.12C177.387 496.12 179.36 496.307 181.28 496.68C183.2 497 184.907 497.587 186.4 498.44C187.893 499.347 189.093 500.573 190 502.12C190.907 503.667 191.36 505.64 191.36 508.04C191.36 510.173 190.907 511.96 190 513.4C189.04 514.893 187.84 516.093 186.4 517C184.907 517.907 183.227 518.547 181.36 518.92C179.44 519.347 177.52 519.56 175.6 519.56C172.987 519.56 170.427 519.267 167.92 518.68L167.92 520.52C167.92 521.64 168.053 522.707 168.32 523.72C168.533 524.787 168.987 525.747 169.68 526.6C170.32 527.453 171.227 528.12 172.4 528.6C173.52 529.133 174.987 529.4 176.8 529.4C179.093 529.4 181.093 529.24 182.8 528.92C184.507 528.6 185.813 528.28 186.72 527.96L187.52 533.4C186.613 533.827 185.12 534.2 183.04 534.52C180.907 534.84 178.64 535 176.24 535ZM126 515.48C126 519.8 127.013 523.133 129.04 525.48C131.067 527.88 133.707 529.08 136.96 529.08C138.773 529.08 140.213 529 141.28 528.84C142.293 528.68 143.093 528.493 143.68 528.28L143.68 504.84C142.933 504.147 141.84 503.507 140.4 502.92C138.96 502.333 137.467 502.04 135.92 502.04C134.16 502.04 132.667 502.387 131.44 503.08C130.16 503.773 129.12 504.707 128.32 505.88C127.52 507.107 126.933 508.52 126.56 510.12C126.187 511.773 126 513.56 126 515.48ZM119.2 515.48C119.2 512.653 119.573 510.04 120.32 507.64C121.013 505.293 122.053 503.267 123.44 501.56C124.773 499.853 126.427 498.52 128.4 497.56C130.373 496.6 132.613 496.12 135.12 496.12C137.093 496.12 138.827 496.36 140.32 496.84C141.813 497.32 142.933 497.853 143.68 498.44L143.68 483.8L150.32 483.8L150.32 533C148.88 533.427 147.04 533.853 144.8 534.28C142.507 534.707 139.893 534.92 136.96 534.92C134.293 534.92 131.867 534.467 129.68 533.56C127.493 532.653 125.627 531.347 124.08 529.64C122.533 527.987 121.333 525.96 120.48 523.56C119.627 521.16 119.2 518.467 119.2 515.48ZM110.32 497L110.32 551.32L103.68 552.44L103.68 533.56C102.613 533.987 101.413 534.307 100.08 534.52C98.7467 534.787 97.44 534.92 96.16 534.92C93.3333 534.92 90.9867 534.493 89.12 533.64C87.2 532.84 85.68 531.693 84.56 530.2C83.44 528.707 82.64 526.92 82.16 524.84C81.68 522.76 81.44 520.467 81.44 517.96L81.44 497L88 497L88 516.52C88 521.107 88.64 524.333 89.92 526.2C91.2 528.12 93.4933 529.08 96.8 529.08C98.1867 529.08 99.5467 528.92 100.88 528.6C102.16 528.333 103.093 528.067 103.68 527.8L103.68 497L110.32 497ZM71.92 490.04C71.44 489.773 70.7733 489.56 69.92 489.4C69.0133 489.24 68.1867 489.16 67.44 489.16C64.8267 489.16 62.8 489.747 61.36 490.92C59.8667 492.04 58.5067 493.907 57.28 496.52C60.2667 502.173 63.0667 508.227 65.68 514.68C68.2933 521.187 70.4533 527.667 72.16 534.12L64.96 534.12C64.4267 531.987 63.8133 529.667 63.12 527.16C62.3733 524.707 61.5467 522.173 60.64 519.56C59.7333 516.947 58.7733 514.307 57.76 511.64C56.6933 509.027 55.5733 506.52 54.4 504.12C53.5467 506.573 52.7467 509 52 511.4C51.2533 513.8 50.56 516.2 49.92 518.6C49.28 521.053 48.64 523.533 48 526.04C47.36 528.6 46.6933 531.293 46 534.12L39.12 534.12C40.8267 527.187 42.7467 520.467 44.88 513.96C46.96 507.453 49.2 501.427 51.6 495.88C52.5067 493.747 53.4933 491.907 54.56 490.36C55.5733 488.813 56.6933 487.533 57.92 486.52C59.1467 485.507 60.5333 484.76 62.08 484.28C63.6267 483.8 65.3867 483.56 67.36 483.56C68.3733 483.56 69.4933 483.693 70.72 483.96C71.8933 484.227 72.6933 484.467 73.12 484.68L71.92 490.04Z" fill="black"/>
</svg>
