<svg width="366" height="455" viewBox="0 0 366 455" fill="none" xmlns="http://www.w3.org/2000/svg">
<mask id="path-1-inside-1_687_41731" fill="white">
<path fill-rule="evenodd" clip-rule="evenodd" d="M366 10C366 4.47715 361.523 0 356 0H10C4.47719 0 3.84813e-05 4.47715 3.84813e-05 10V10.9802C2.57676e-05 10.9868 1.94079e-05 10.9934 1.94079e-05 11L0 445C-2.41411e-07 450.523 4.47716 455 10 455H152C157.523 455 162 450.523 162 445L162 172C162 166.477 166.477 162 172 162H356C361.523 162 366 157.523 366 152V10Z"/>
</mask>
<path d="M3.84813e-05 10.9802L1.00004 10.9822V10.9802H3.84813e-05ZM1.94079e-05 11H1.00002H1.94079e-05ZM0 445H-1H0ZM162 445H161H162ZM162 172H161H162ZM10 1H356V-1H10V1ZM1.00004 10.9802V10H-0.999961V10.9802H1.00004ZM1.00002 11C1.00002 10.994 1.00003 10.9881 1.00004 10.9822L-0.99996 10.9783C-0.999974 10.9855 -0.999981 10.9928 -0.999981 11H1.00002ZM1 445L1.00002 11H-0.999981L-1 445H1ZM10 454C5.02944 454 1 449.971 1 445H-1C-1 451.075 3.92487 456 10 456V454ZM152 454H10V456H152V454ZM161 445C161 449.971 156.971 454 152 454V456C158.075 456 163 451.075 163 445H161ZM161 172L161 445H163L163 172H161ZM356 161H172V163H356V161ZM365 10V152H367V10H365ZM356 163C362.075 163 367 158.075 367 152H365C365 156.971 360.971 161 356 161V163ZM163 172C163 167.029 167.029 163 172 163V161C165.925 161 161 165.925 161 172H163ZM356 1C360.971 1 365 5.02944 365 10H367C367 3.92487 362.075 -1 356 -1V1ZM10 -1C3.92491 -1 -0.999961 3.92487 -0.999961 10H1.00004C1.00004 5.02944 5.02948 1 10 1V-1Z" fill="#818181" mask="url(#path-1-inside-1_687_41731)"/>
<path d="M54.28 97V47.48H82.04V53.08H60.84V68.28H79.4V73.88H60.84V91.4H83.8V97H54.28ZM90.92 78.52C90.92 75.16 91.4533 72.2533 92.52 69.8C93.5867 67.3467 95.0533 65.32 96.92 63.72C98.7867 62.12 100.947 60.9467 103.4 60.2C105.907 59.4 108.573 59 111.4 59C113.213 59 115 59.1333 116.76 59.4C118.573 59.6133 120.493 60.04 122.52 60.68L121 66.36C119.24 65.72 117.613 65.32 116.12 65.16C114.68 64.9467 113.213 64.84 111.72 64.84C109.8 64.84 107.987 65.1067 106.28 65.64C104.573 66.12 103.08 66.92 101.8 68.04C100.573 69.1067 99.5867 70.52 98.84 72.28C98.0933 73.9867 97.72 76.0667 97.72 78.52C97.72 80.8667 98.0667 82.8933 98.76 84.6C99.4533 86.2533 100.413 87.64 101.64 88.76C102.92 89.8267 104.44 90.6267 106.2 91.16C107.96 91.6933 109.907 91.96 112.04 91.96C113.747 91.96 115.373 91.88 116.92 91.72C118.52 91.5067 120.253 91.08 122.12 90.44L123.08 95.96C121.213 96.6533 119.32 97.1333 117.4 97.4C115.48 97.72 113.4 97.88 111.16 97.88C108.173 97.88 105.427 97.48 102.92 96.68C100.467 95.8267 98.3333 94.6 96.52 93C94.76 91.4 93.3733 89.4 92.36 87C91.4 84.5467 90.92 81.72 90.92 78.52ZM163.8 78.44C163.8 81.3733 163.373 84.04 162.52 86.44C161.72 88.7867 160.573 90.8133 159.08 92.52C157.587 94.2267 155.8 95.56 153.72 96.52C151.64 97.4267 149.373 97.88 146.92 97.88C144.52 97.88 142.28 97.4267 140.2 96.52C138.173 95.56 136.413 94.2267 134.92 92.52C133.427 90.8133 132.253 88.7867 131.4 86.44C130.6 84.04 130.2 81.3733 130.2 78.44C130.2 75.5067 130.6 72.84 131.4 70.44C132.253 68.04 133.427 66.0133 134.92 64.36C136.413 62.6533 138.173 61.3467 140.2 60.44C142.28 59.48 144.52 59 146.92 59C149.373 59 151.64 59.48 153.72 60.44C155.8 61.3467 157.587 62.6533 159.08 64.36C160.573 66.0133 161.72 68.04 162.52 70.44C163.373 72.84 163.8 75.5067 163.8 78.44ZM157 78.44C157 74.2267 156.093 70.92 154.28 68.52C152.467 66.0667 150.013 64.84 146.92 64.84C143.88 64.84 141.453 66.0667 139.64 68.52C137.88 70.92 137 74.2267 137 78.44C137 82.6 137.88 85.9067 139.64 88.36C141.453 90.76 143.88 91.96 146.92 91.96C150.013 91.96 152.467 90.76 154.28 88.36C156.093 85.9067 157 82.6 157 78.44ZM172.68 60.92C175.08 60.3333 177.453 59.88 179.8 59.56C182.2 59.24 184.44 59.08 186.52 59.08C191.48 59.08 195.213 60.36 197.72 62.92C200.28 65.48 201.56 69.5867 201.56 75.24V97H195V76.44C195 74.04 194.787 72.0933 194.36 70.6C193.933 69.1067 193.32 67.96 192.52 67.16C191.773 66.3067 190.84 65.72 189.72 65.4C188.653 65.08 187.48 64.92 186.2 64.92C185.133 64.92 183.987 65 182.76 65.16C181.587 65.2667 180.44 65.4267 179.32 65.64V97H172.68V60.92ZM243.8 78.44C243.8 81.3733 243.373 84.04 242.52 86.44C241.72 88.7867 240.573 90.8133 239.08 92.52C237.587 94.2267 235.8 95.56 233.72 96.52C231.64 97.4267 229.373 97.88 226.92 97.88C224.52 97.88 222.28 97.4267 220.2 96.52C218.173 95.56 216.413 94.2267 214.92 92.52C213.427 90.8133 212.253 88.7867 211.4 86.44C210.6 84.04 210.2 81.3733 210.2 78.44C210.2 75.5067 210.6 72.84 211.4 70.44C212.253 68.04 213.427 66.0133 214.92 64.36C216.413 62.6533 218.173 61.3467 220.2 60.44C222.28 59.48 224.52 59 226.92 59C229.373 59 231.64 59.48 233.72 60.44C235.8 61.3467 237.587 62.6533 239.08 64.36C240.573 66.0133 241.72 68.04 242.52 70.44C243.373 72.84 243.8 75.5067 243.8 78.44ZM237 78.44C237 74.2267 236.093 70.92 234.28 68.52C232.467 66.0667 230.013 64.84 226.92 64.84C223.88 64.84 221.453 66.0667 219.64 68.52C217.88 70.92 217 74.2267 217 78.44C217 82.6 217.88 85.9067 219.64 88.36C221.453 90.76 223.88 91.96 226.92 91.96C230.013 91.96 232.467 90.76 234.28 88.36C236.093 85.9067 237 82.6 237 78.44ZM250.28 60.92C253.48 59.6933 256.493 59.08 259.32 59.08C260.867 59.08 262.307 59.32 263.64 59.8C265.027 60.2267 266.2 60.92 267.16 61.88C269.453 60.0133 271.907 59.08 274.52 59.08C275.8 59.08 277 59.32 278.12 59.8C279.293 60.28 280.307 61 281.16 61.96C282.067 62.92 282.787 64.12 283.32 65.56C283.853 67 284.12 68.68 284.12 70.6V97H278.12V70.44C278.12 68.52 277.693 67.0533 276.84 66.04C275.987 65.0267 274.92 64.52 273.64 64.52C273 64.52 272.333 64.68 271.64 65C270.947 65.32 270.307 65.8267 269.72 66.52C270.04 67.7467 270.2 69.1067 270.2 70.6V82.68H264.2V70.52C264.2 68.6533 263.907 67.1867 263.32 66.12C262.733 65.0533 261.587 64.52 259.88 64.52C258.813 64.52 257.613 64.76 256.28 65.24V97H250.28V60.92ZM291.08 103.96C291.56 104.227 292.227 104.44 293.08 104.6C293.987 104.76 294.813 104.84 295.56 104.84C298.173 104.84 300.2 104.253 301.64 103.08C303.133 101.96 304.493 100.093 305.72 97.48C302.733 91.8267 299.933 85.7733 297.32 79.32C294.707 72.8133 292.547 66.3333 290.84 59.88H298.04C298.573 62.0133 299.187 64.3333 299.88 66.84C300.627 69.2933 301.453 71.8267 302.36 74.44C303.267 77.0533 304.227 79.6933 305.24 82.36C306.307 84.9733 307.427 87.48 308.6 89.88C309.453 87.4267 310.253 85 311 82.6C311.747 80.2 312.44 77.8 313.08 75.4C313.72 72.9467 314.36 70.4667 315 67.96C315.64 65.4 316.307 62.7067 317 59.88H323.88C322.173 66.8133 320.253 73.5333 318.12 80.04C316.04 86.5467 313.8 92.5733 311.4 98.12C310.493 100.253 309.507 102.093 308.44 103.64C307.427 105.187 306.307 106.467 305.08 107.48C303.853 108.493 302.467 109.24 300.92 109.72C299.373 110.2 297.613 110.44 295.64 110.44C294.627 110.44 293.507 110.307 292.28 110.04C291.107 109.773 290.307 109.533 289.88 109.32L291.08 103.96Z" fill="black"/>
<path d="M96.52 175.84L96.52 182.4L47 182.4L47 175.84L70.04 175.84L70.04 156.16L47 156.16L47 149.6L96.52 149.6L96.52 156.16L75.64 156.16L75.64 175.84L96.52 175.84ZM89.88 202.72C89.88 201.333 90.36 200.133 91.32 199.12C92.28 198.107 93.5867 197.6 95.24 197.6C96.8933 197.6 98.2 198.107 99.16 199.12C100.12 200.133 100.6 201.333 100.6 202.72C100.6 204.16 100.12 205.36 99.16 206.32C98.2 207.333 96.8933 207.84 95.24 207.84C93.5867 207.84 92.28 207.333 91.32 206.32C90.36 205.36 89.88 204.16 89.88 202.72ZM78.6 201.04L78.6 190.32L84.12 190.32L84.12 207.6L61.32 207.6C57.64 207.6 55.16 208.107 53.88 209.12C52.6533 210.133 52.04 211.653 52.04 213.68C52.04 215.227 52.2267 216.64 52.6 217.92C52.9733 219.253 53.3733 220.293 53.8 221.04L48.2 222C48.04 221.68 47.8267 221.227 47.56 220.64C47.3467 220.053 47.1333 219.36 46.92 218.56C46.7067 217.813 46.52 216.96 46.36 216C46.2 215.093 46.12 214.133 46.12 213.12C46.12 210.773 46.44 208.827 47.08 207.28C47.72 205.733 48.68 204.48 49.96 203.52C51.24 202.613 52.8133 201.973 54.68 201.6C56.6 201.227 58.8133 201.04 61.32 201.04L78.6 201.04ZM56.28 254.08C57.6133 254.08 58.7067 253.52 59.56 252.4C60.4133 251.333 61.16 249.973 61.8 248.32C62.44 246.72 63.0533 244.96 63.64 243.04C64.28 241.12 65.0533 239.333 65.96 237.68C66.8667 236.08 67.9867 234.72 69.32 233.6C70.6533 232.533 72.3867 232 74.52 232C77.5067 232 79.9867 233.2 81.96 235.6C83.9867 238.053 85 241.867 85 247.04C85 249.067 84.84 251.147 84.52 253.28C84.2533 255.467 83.88 257.333 83.4 258.88L77.48 257.68C77.6933 257.253 77.9067 256.667 78.12 255.92C78.3867 255.173 78.6 254.32 78.76 253.36C78.9733 252.4 79.1333 251.36 79.24 250.24C79.3467 249.173 79.4 248.133 79.4 247.12C79.4 241.36 77.8267 238.48 74.68 238.48C73.56 238.48 72.6 239.013 71.8 240.08C71.0533 241.2 70.36 242.587 69.72 244.24C69.08 245.893 68.4133 247.68 67.72 249.6C67.08 251.52 66.28 253.307 65.32 254.96C64.36 256.613 63.1867 257.973 61.8 259.04C60.4667 260.16 58.76 260.72 56.68 260.72C53.32 260.72 50.7067 259.413 48.84 256.8C47.0267 254.187 46.12 250.053 46.12 244.4C46.12 241.84 46.3333 239.493 46.76 237.36C47.1867 235.227 47.8267 233.2 48.68 231.28L54.68 232.56C53.8267 234.427 53.1067 236.373 52.52 238.4C51.9867 240.48 51.72 242.693 51.72 245.04C51.72 251.067 53.24 254.08 56.28 254.08ZM84.12 285.44L84.12 301.12L78.6 301.12L78.6 285.44L61.32 285.44C59.4533 285.44 57.9333 285.573 56.76 285.84C55.5867 286.107 54.6267 286.533 53.88 287.12C53.1867 287.76 52.7067 288.56 52.44 289.52C52.1733 290.48 52.04 291.653 52.04 293.04C52.04 294.96 52.2 296.507 52.52 297.68C52.84 298.853 53.2667 299.973 53.8 301.04L48.2 302C47.88 301.253 47.4533 300.053 46.92 298.4C46.3867 296.8 46.12 294.8 46.12 292.4C46.12 289.627 46.44 287.36 47.08 285.6C47.72 283.84 48.68 282.453 49.96 281.44C51.24 280.48 52.8133 279.813 54.68 279.44C56.6 279.067 58.8133 278.88 61.32 278.88L78.6 278.88L78.6 271.04L84.12 271.04L84.12 278.88L94.52 278.88L95.64 285.44L84.12 285.44ZM65.56 342.8C62.6267 342.8 59.96 342.373 57.56 341.52C55.2133 340.72 53.1867 339.573 51.48 338.08C49.7733 336.587 48.44 334.8 47.48 332.72C46.5733 330.64 46.12 328.373 46.12 325.92C46.12 323.52 46.5733 321.28 47.48 319.2C48.44 317.173 49.7733 315.413 51.48 313.92C53.1867 312.427 55.2133 311.253 57.56 310.4C59.96 309.6 62.6267 309.2 65.56 309.2C68.4933 309.2 71.16 309.6 73.56 310.4C75.96 311.253 77.9867 312.427 79.64 313.92C81.3467 315.413 82.6533 317.173 83.56 319.2C84.52 321.28 85 323.52 85 325.92C85 328.373 84.52 330.64 83.56 332.72C82.6533 334.8 81.3467 336.587 79.64 338.08C77.9867 339.573 75.96 340.72 73.56 341.52C71.16 342.373 68.4933 342.8 65.56 342.8ZM65.56 336C69.7733 336 73.08 335.093 75.48 333.28C77.9333 331.467 79.16 329.013 79.16 325.92C79.16 322.88 77.9333 320.453 75.48 318.64C73.08 316.88 69.7733 316 65.56 316C61.4 316 58.0933 316.88 55.64 318.64C53.24 320.453 52.04 322.88 52.04 325.92C52.04 329.013 53.24 331.467 55.64 333.28C58.0933 335.093 61.4 336 65.56 336ZM47 354.56L82.12 354.56C83.9867 360 84.92 365.493 84.92 371.04C84.92 372.747 84.84 374.373 84.68 375.92C84.5733 377.467 84.3067 379.173 83.88 381.04L78.04 379.84C78.52 378.133 78.8133 376.613 78.92 375.28C79.08 374 79.16 372.587 79.16 371.04C79.16 367.787 78.7067 364.48 77.8 361.12L47 361.12L47 354.56ZM40.04 390.08C39.7733 390.56 39.56 391.227 39.4 392.08C39.24 392.987 39.16 393.813 39.16 394.56C39.16 397.173 39.7467 399.2 40.92 400.64C42.04 402.133 43.9067 403.493 46.52 404.72C52.1733 401.733 58.2267 398.933 64.68 396.32C71.1867 393.707 77.6667 391.547 84.12 389.84L84.12 397.04C81.9867 397.573 79.6667 398.187 77.16 398.88C74.7067 399.627 72.1733 400.453 69.56 401.36C66.9467 402.267 64.3067 403.227 61.64 404.24C59.0267 405.307 56.52 406.427 54.12 407.6C56.5733 408.453 59 409.253 61.4 410C63.8 410.747 66.2 411.44 68.6 412.08C71.0533 412.72 73.5333 413.36 76.04 414C78.6 414.64 81.2933 415.307 84.12 416L84.12 422.88C77.1867 421.173 70.4667 419.253 63.96 417.12C57.4533 415.04 51.4267 412.8 45.88 410.4C43.7467 409.493 41.9067 408.507 40.36 407.44C38.8133 406.427 37.5333 405.307 36.52 404.08C35.5067 402.853 34.76 401.467 34.28 399.92C33.8 398.373 33.56 396.613 33.56 394.64C33.56 393.627 33.6933 392.507 33.96 391.28C34.2267 390.107 34.4667 389.307 34.68 388.88L40.04 390.08Z" fill="black"/>
</svg>
