<svg width="324" height="590" viewBox="0 0 324 590" fill="none" xmlns="http://www.w3.org/2000/svg">
<mask id="path-1-inside-1_687_41744" fill="white">
<path fill-rule="evenodd" clip-rule="evenodd" d="M314 314C319.523 314 324 309.523 324 304V10C324 4.47716 319.523 6.94759e-06 314 6.68749e-06L172 0C166.477 -2.60099e-07 162 4.47715 162 10L162 176C162 181.523 157.523 186 152 186H10C4.47717 186 1.70266e-05 190.477 1.67852e-05 196L0 580C-2.41411e-07 585.523 4.47715 590 10 590H152C157.523 590 162 585.523 162 580L162 324C162 318.477 166.477 314 172 314H314Z"/>
</mask>
<path d="M162 324H161H162ZM162 580H163H162ZM162 176H161H162ZM323 10V304H325V10H323ZM172 1L314 1.00001V-0.999993L172 -1V1ZM163 176L163 10L161 10L161 176H163ZM10 187H152V185H10V187ZM1 580L1.00002 196H-0.999983L-1 580H1ZM152 589H10V591H152V589ZM161 324L161 580H163L163 324H161ZM314 313H172V315H314V313ZM163 324C163 319.029 167.029 315 172 315V313C165.925 313 161 317.925 161 324H163ZM152 591C158.075 591 163 586.075 163 580H161C161 584.971 156.971 589 152 589V591ZM-1 580C-1 586.075 3.92487 591 10 591V589C5.02944 589 1 584.971 1 580H-1ZM10 185C3.92488 185 -0.999983 189.925 -0.999983 196H1.00002C1.00002 191.029 5.02946 187 10 187V185ZM161 176C161 180.971 156.971 185 152 185V187C158.075 187 163 182.075 163 176H161ZM172 -1C165.925 -1 161 3.92487 161 10L163 10C163 5.02944 167.029 1 172 1V-1ZM323 304C323 308.971 318.971 313 314 313V315C320.075 315 325 310.075 325 304H323ZM325 10C325 3.92487 320.075 -0.999993 314 -0.999993V1.00001C318.971 1.00001 323 5.02944 323 10H325Z" fill="#818181" mask="url(#path-1-inside-1_687_41744)"/>
<path d="M230.72 227.32C230.027 228.067 229.387 229.16 228.8 230.6C228.16 232.04 227.84 233.533 227.84 235.08C227.84 236.84 228.187 238.36 228.88 239.64C229.573 240.867 230.533 241.88 231.76 242.68C232.933 243.48 234.373 244.067 236.08 244.44C237.733 244.813 239.52 245 241.44 245C245.76 245 249.093 243.987 251.44 241.96C253.787 239.933 254.96 237.293 254.96 234.04C254.96 232.387 254.88 231 254.72 229.88C254.56 228.707 254.4 227.853 254.24 227.32L230.72 227.32ZM205.68 227.32L204.56 220.68L258.96 220.68C259.387 222.12 259.813 223.96 260.24 226.2C260.667 228.44 260.88 231.053 260.88 234.04C260.88 236.707 260.427 239.133 259.52 241.32C258.613 243.507 257.333 245.373 255.68 246.92C253.973 248.467 251.92 249.667 249.52 250.52C247.12 251.373 244.427 251.8 241.44 251.8C238.56 251.8 235.947 251.453 233.6 250.76C231.2 250.013 229.147 248.947 227.44 247.56C225.733 246.173 224.4 244.52 223.44 242.6C222.48 240.627 222 238.387 222 235.88C222 233.907 222.24 232.173 222.72 230.68C223.2 229.187 223.707 228.067 224.24 227.32L205.68 227.32ZM255.28 194.6C255.28 192.947 255.227 191.48 255.12 190.2C255.013 188.867 254.88 187.773 254.72 186.92L243.68 186.92C243.413 187.773 243.2 188.813 243.04 190.04C242.88 191.213 242.8 192.467 242.8 193.8C242.8 195.027 242.907 196.227 243.12 197.4C243.28 198.573 243.6 199.613 244.08 200.52C244.56 201.427 245.2 202.173 246 202.76C246.747 203.347 247.707 203.64 248.88 203.64C251.28 203.64 252.96 202.84 253.92 201.24C254.827 199.587 255.28 197.373 255.28 194.6ZM222 195.24C222 192.467 222.347 190.147 223.04 188.28C223.733 186.36 224.693 184.813 225.92 183.64C227.147 182.467 228.64 181.64 230.4 181.16C232.16 180.68 234.08 180.44 236.16 180.44L259.36 180.44C259.627 181.987 259.947 184.04 260.32 186.6C260.693 189.107 260.88 191.693 260.88 194.36C260.88 196.387 260.693 198.36 260.32 200.28C260 202.2 259.413 203.907 258.56 205.4C257.653 206.893 256.427 208.093 254.88 209C253.333 209.907 251.36 210.36 248.96 210.36C246.827 210.36 245.04 209.907 243.6 209C242.107 208.04 240.907 206.84 240 205.4C239.093 203.907 238.453 202.227 238.08 200.36C237.653 198.44 237.44 196.52 237.44 194.6C237.44 191.987 237.733 189.427 238.32 186.92L236.48 186.92C235.36 186.92 234.293 187.053 233.28 187.32C232.213 187.533 231.253 187.987 230.4 188.68C229.547 189.32 228.88 190.227 228.4 191.4C227.867 192.52 227.6 193.987 227.6 195.8C227.6 198.093 227.76 200.093 228.08 201.8C228.4 203.507 228.72 204.813 229.04 205.72L223.6 206.52C223.173 205.613 222.8 204.12 222.48 202.04C222.16 199.907 222 197.64 222 195.24ZM223.92 169.32C223.333 166.92 222.88 164.547 222.56 162.2C222.24 159.8 222.08 157.56 222.08 155.48C222.08 150.52 223.36 146.787 225.92 144.28C228.48 141.72 232.587 140.44 238.24 140.44L260 140.44L260 147L239.44 147C237.04 147 235.093 147.213 233.6 147.64C232.107 148.067 230.96 148.68 230.16 149.48C229.307 150.227 228.72 151.16 228.4 152.28C228.08 153.347 227.92 154.52 227.92 155.8C227.92 156.867 228 158.013 228.16 159.24C228.267 160.413 228.427 161.56 228.64 162.68L260 162.68L260 169.32L223.92 169.32ZM241.52 131.08C238.16 131.08 235.253 130.547 232.8 129.48C230.347 128.413 228.32 126.947 226.72 125.08C225.12 123.213 223.947 121.053 223.2 118.6C222.4 116.093 222 113.427 222 110.6C222 108.787 222.133 107 222.4 105.24C222.613 103.427 223.04 101.507 223.68 99.48L229.36 101C228.72 102.76 228.32 104.387 228.16 105.88C227.947 107.32 227.84 108.787 227.84 110.28C227.84 112.2 228.107 114.013 228.64 115.72C229.12 117.427 229.92 118.92 231.04 120.2C232.107 121.427 233.52 122.413 235.28 123.16C236.987 123.907 239.067 124.28 241.52 124.28C243.867 124.28 245.893 123.933 247.6 123.24C249.253 122.547 250.64 121.587 251.76 120.36C252.827 119.08 253.627 117.56 254.16 115.8C254.693 114.04 254.96 112.093 254.96 109.96C254.96 108.253 254.88 106.627 254.72 105.08C254.507 103.48 254.08 101.747 253.44 99.88L258.96 98.92C259.653 100.787 260.133 102.68 260.4 104.6C260.72 106.52 260.88 108.6 260.88 110.84C260.88 113.827 260.48 116.573 259.68 119.08C258.827 121.533 257.6 123.667 256 125.48C254.4 127.24 252.4 128.627 250 129.64C247.547 130.6 244.72 131.08 241.52 131.08ZM222 74.28C222 69.2667 223.573 65.4 226.72 62.68C229.813 59.96 234.533 58.6 240.88 58.6L243.2 58.6L243.2 85.16C247.04 84.8933 249.973 83.64 252 81.4C253.973 79.1067 254.96 75.9067 254.96 71.8C254.96 69.4533 254.773 67.4533 254.4 65.8C254.027 64.1467 253.627 62.8933 253.2 62.04L258.8 61.16C259.227 61.96 259.68 63.4 260.16 65.48C260.64 67.56 260.88 69.9067 260.88 72.52C260.88 75.72 260.4 78.5467 259.44 81C258.427 83.4 257.067 85.4 255.36 87C253.653 88.6 251.627 89.8 249.28 90.6C246.88 91.4 244.293 91.8 241.52 91.8C238.213 91.8 235.333 91.2933 232.88 90.28C230.427 89.2667 228.4 87.9333 226.8 86.28C225.2 84.6267 224 82.76 223.2 80.68C222.4 78.6 222 76.4667 222 74.28ZM237.84 65.32C234.693 65.32 232.213 66.1467 230.4 67.8C228.533 69.4533 227.6 71.64 227.6 74.36C227.6 75.9067 227.893 77.32 228.48 78.6C229.067 79.8267 229.84 80.8933 230.8 81.8C231.76 82.7067 232.853 83.4267 234.08 83.96C235.307 84.4933 236.56 84.84 237.84 85L237.84 65.32Z" fill="black"/>
<path d="M101.4 518.68C101.4 519.48 101.373 520.413 101.32 521.48C101.267 522.547 101.187 523.613 101.08 524.68C101.027 525.747 100.92 526.813 100.76 527.88C100.6 528.947 100.413 529.88 100.2 530.68L52.2 530.68C51.9867 529.88 51.8 528.973 51.64 527.96C51.48 526.893 51.3733 525.827 51.32 524.76C51.2133 523.64 51.1333 522.573 51.08 521.56C51.0267 520.493 51 519.533 51 518.68C51 516.227 51.2133 513.933 51.64 511.8C52.0667 509.667 52.7867 507.827 53.8 506.28C54.8133 504.68 56.1467 503.453 57.8 502.6C59.4533 501.693 61.5067 501.24 63.96 501.24C65.1333 501.24 66.28 501.427 67.4 501.8C68.4667 502.173 69.48 502.707 70.44 503.4C71.4 504.04 72.2533 504.813 73 505.72C73.6933 506.573 74.2267 507.507 74.6 508.52C75.3467 505.8 76.7333 503.533 78.76 501.72C80.7333 499.853 83.32 498.92 86.52 498.92C91.4267 498.92 95.1333 500.493 97.64 503.64C100.147 506.787 101.4 511.8 101.4 518.68ZM77.88 524.12L95.56 524.12C95.6133 524.013 95.6933 523.427 95.8 522.36C95.8533 521.24 95.88 519.853 95.88 518.2C95.88 516.547 95.7467 514.973 95.48 513.48C95.2133 511.933 94.7333 510.573 94.04 509.4C93.2933 508.227 92.3333 507.293 91.16 506.6C89.9867 505.853 88.4667 505.48 86.6 505.48C84.9467 505.48 83.56 505.827 82.44 506.52C81.32 507.16 80.44 508.04 79.8 509.16C79.1067 510.227 78.6267 511.48 78.36 512.92C78.04 514.36 77.88 515.853 77.88 517.4L77.88 524.12ZM72.44 524.12L72.44 518.92C72.44 517.587 72.3067 516.253 72.04 514.92C71.7733 513.587 71.3467 512.387 70.76 511.32C70.1733 510.253 69.3733 509.4 68.36 508.76C67.3467 508.12 66.0667 507.8 64.52 507.8C63.08 507.8 61.8533 508.093 60.84 508.68C59.8267 509.267 59 510.04 58.36 511C57.72 511.96 57.2667 513.08 57 514.36C56.7333 515.587 56.6 516.893 56.6 518.28C56.6 519.667 56.6267 520.893 56.68 521.96C56.68 522.973 56.7333 523.693 56.84 524.12L72.44 524.12ZM96.28 474.6C96.28 472.947 96.2267 471.48 96.12 470.2C96.0133 468.867 95.88 467.773 95.72 466.92L84.68 466.92C84.4133 467.773 84.2 468.813 84.04 470.04C83.88 471.213 83.8 472.467 83.8 473.8C83.8 475.027 83.9067 476.227 84.12 477.4C84.28 478.573 84.6 479.613 85.08 480.52C85.56 481.427 86.2 482.173 87 482.76C87.7467 483.347 88.7067 483.64 89.88 483.64C92.28 483.64 93.96 482.84 94.92 481.24C95.8267 479.587 96.28 477.373 96.28 474.6ZM63 475.24C63 472.467 63.3467 470.147 64.04 468.28C64.7333 466.36 65.6933 464.813 66.92 463.64C68.1467 462.467 69.64 461.64 71.4 461.16C73.16 460.68 75.08 460.44 77.16 460.44L100.36 460.44C100.627 461.987 100.947 464.04 101.32 466.6C101.693 469.107 101.88 471.693 101.88 474.36C101.88 476.387 101.693 478.36 101.32 480.28C101 482.2 100.413 483.907 99.56 485.4C98.6533 486.893 97.4267 488.093 95.88 489C94.3333 489.907 92.36 490.36 89.96 490.36C87.8267 490.36 86.04 489.907 84.6 489C83.1067 488.04 81.9067 486.84 81 485.4C80.0933 483.907 79.4533 482.227 79.08 480.36C78.6533 478.44 78.44 476.52 78.44 474.6C78.44 471.987 78.7333 469.427 79.32 466.92L77.48 466.92C76.36 466.92 75.2933 467.053 74.28 467.32C73.2133 467.533 72.2533 467.987 71.4 468.68C70.5467 469.32 69.88 470.227 69.4 471.4C68.8667 472.52 68.6 473.987 68.6 475.8C68.6 478.093 68.76 480.093 69.08 481.8C69.4 483.507 69.72 484.813 70.04 485.72L64.6 486.52C64.1733 485.613 63.8 484.12 63.48 482.04C63.16 479.907 63 477.64 63 475.24ZM99.96 420.68C100.333 422.12 100.733 424.04 101.16 426.44C101.587 428.787 101.8 431.56 101.8 434.76C101.8 437.587 101.4 439.933 100.6 441.8C99.7467 443.667 98.5733 445.187 97.08 446.36C95.5333 447.533 93.72 448.36 91.64 448.84C89.56 449.32 87.2667 449.56 84.76 449.56L63.88 449.56L63.88 443L83.32 443C87.9067 443 91.16 442.333 93.08 441C95 439.613 95.96 437.32 95.96 434.12C95.96 433.427 95.9333 432.733 95.88 432.04C95.8267 431.293 95.7733 430.6 95.72 429.96C95.6133 429.32 95.5333 428.76 95.48 428.28C95.3733 427.8 95.2933 427.48 95.24 427.32L63.88 427.32L63.88 420.68L99.96 420.68ZM101 409.32L46.68 409.32L45.56 402.68L64.44 402.68C64.0133 401.613 63.6933 400.413 63.48 399.08C63.2133 397.747 63.08 396.44 63.08 395.16C63.08 392.333 63.5067 389.987 64.36 388.12C65.16 386.2 66.3067 384.68 67.8 383.56C69.2933 382.44 71.08 381.64 73.16 381.16C75.24 380.68 77.5333 380.44 80.04 380.44L101 380.44L101 387L81.48 387C76.8933 387 73.6667 387.64 71.8 388.92C69.88 390.2 68.92 392.493 68.92 395.8C68.92 397.187 69.08 398.547 69.4 399.88C69.6667 401.16 69.9333 402.093 70.2 402.68L101 402.68L101 409.32ZM96.28 354.6C96.28 352.947 96.2267 351.48 96.12 350.2C96.0133 348.867 95.88 347.773 95.72 346.92L84.68 346.92C84.4133 347.773 84.2 348.813 84.04 350.04C83.88 351.213 83.8 352.467 83.8 353.8C83.8 355.027 83.9067 356.227 84.12 357.4C84.28 358.573 84.6 359.613 85.08 360.52C85.56 361.427 86.2 362.173 87 362.76C87.7467 363.347 88.7067 363.64 89.88 363.64C92.28 363.64 93.96 362.84 94.92 361.24C95.8267 359.587 96.28 357.373 96.28 354.6ZM63 355.24C63 352.467 63.3467 350.147 64.04 348.28C64.7333 346.36 65.6933 344.813 66.92 343.64C68.1467 342.467 69.64 341.64 71.4 341.16C73.16 340.68 75.08 340.44 77.16 340.44L100.36 340.44C100.627 341.987 100.947 344.04 101.32 346.6C101.693 349.107 101.88 351.693 101.88 354.36C101.88 356.387 101.693 358.36 101.32 360.28C101 362.2 100.413 363.907 99.56 365.4C98.6533 366.893 97.4267 368.093 95.88 369C94.3333 369.907 92.36 370.36 89.96 370.36C87.8267 370.36 86.04 369.907 84.6 369C83.1067 368.04 81.9067 366.84 81 365.4C80.0933 363.907 79.4533 362.227 79.08 360.36C78.6533 358.44 78.44 356.52 78.44 354.6C78.44 351.987 78.7333 349.427 79.32 346.92L77.48 346.92C76.36 346.92 75.2933 347.053 74.28 347.32C73.2133 347.533 72.2533 347.987 71.4 348.68C70.5467 349.32 69.88 350.227 69.4 351.4C68.8667 352.52 68.6 353.987 68.6 355.8C68.6 358.093 68.76 360.093 69.08 361.8C69.4 363.507 69.72 364.813 70.04 365.72L64.6 366.52C64.1733 365.613 63.8 364.12 63.48 362.04C63.16 359.907 63 357.64 63 355.24ZM99.96 300.68C100.333 302.12 100.733 304.04 101.16 306.44C101.587 308.787 101.8 311.56 101.8 314.76C101.8 317.587 101.4 319.933 100.6 321.8C99.7467 323.667 98.5733 325.187 97.08 326.36C95.5333 327.533 93.72 328.36 91.64 328.84C89.56 329.32 87.2667 329.56 84.76 329.56L63.88 329.56L63.88 323L83.32 323C87.9067 323 91.16 322.333 93.08 321C95 319.613 95.96 317.32 95.96 314.12C95.96 313.427 95.9333 312.733 95.88 312.04C95.8267 311.293 95.7733 310.6 95.72 309.96C95.6133 309.32 95.5333 308.76 95.48 308.28C95.3733 307.8 95.2933 307.48 95.24 307.32L63.88 307.32L63.88 300.68L99.96 300.68ZM91.72 266.92C90.3867 266.92 89.2933 267.48 88.44 268.6C87.5867 269.667 86.84 271.027 86.2 272.68C85.56 274.28 84.9467 276.04 84.36 277.96C83.72 279.88 82.9467 281.667 82.04 283.32C81.1333 284.92 80.0133 286.28 78.68 287.4C77.3467 288.467 75.6133 289 73.48 289C70.4933 289 68.0133 287.8 66.04 285.4C64.0133 282.947 63 279.133 63 273.96C63 271.933 63.16 269.853 63.48 267.72C63.7467 265.533 64.12 263.667 64.6 262.12L70.52 263.32C70.3067 263.747 70.0933 264.333 69.88 265.08C69.6133 265.827 69.4 266.68 69.24 267.64C69.0267 268.6 68.8667 269.64 68.76 270.76C68.6533 271.827 68.6 272.867 68.6 273.88C68.6 279.64 70.1733 282.52 73.32 282.52C74.44 282.52 75.4 281.987 76.2 280.92C76.9467 279.8 77.64 278.413 78.28 276.76C78.92 275.107 79.5867 273.32 80.28 271.4C80.92 269.48 81.72 267.693 82.68 266.04C83.64 264.387 84.8133 263.027 86.2 261.96C87.5333 260.84 89.24 260.28 91.32 260.28C94.68 260.28 97.2933 261.587 99.16 264.2C100.973 266.813 101.88 270.947 101.88 276.6C101.88 279.16 101.667 281.507 101.24 283.64C100.813 285.773 100.173 287.8 99.32 289.72L93.32 288.44C94.1733 286.573 94.8933 284.627 95.48 282.6C96.0133 280.52 96.28 278.307 96.28 275.96C96.28 269.933 94.76 266.92 91.72 266.92Z" fill="black"/>
</svg>
