<svg width="779" height="634" viewBox="0 0 779 634" fill="none" xmlns="http://www.w3.org/2000/svg">
<mask id="path-1-inside-1_687_41847" fill="white">
<path fill-rule="evenodd" clip-rule="evenodd" d="M0.00201502 162.001C0.00201502 162 0.0015778 162 0.00103846 162C0.000499117 162 6.18953e-05 161.999 6.18955e-05 161.999L0.00010176 10C0.000103208 4.47717 4.47724 5.87108e-07 10.0001 1.31134e-06L768 0.000222781C773.523 0.000223506 778 4.4774 778 10.0002L778 152C778 157.523 773.523 162 768 162L172.002 162C166.479 162 162.002 166.477 162.002 172L162.002 462C162.002 467.523 166.479 472 172.002 472L567 472C572.523 472 577 476.477 577 482L577 624C577 629.523 572.523 634 567 634L162.002 634L10.002 634C4.47911 634 0.00195371 629.523 0.00195444 624L0.00201502 162.001Z"/>
</mask>
<path d="M577 624L576 624L577 624ZM567 472L567 473L567 472ZM577 482L578 482L577 482ZM172.002 162L172.002 163L172.002 162ZM768 162L768 161L768 162ZM768 0.000222781L768 -0.999777L768 0.000222781ZM10.0001 1.31134e-06L10.0001 1L10.0001 1.31134e-06ZM-0.999898 10L-0.999938 161.999L1.00006 161.999L1.0001 10L-0.999898 10ZM768 -0.999777L10.0001 -0.999999L10.0001 1L768 1.00022L768 -0.999777ZM779 152L779 10.0002L777 10.0002L777 152L779 152ZM172.002 163L768 163L768 161L172.002 161L172.002 163ZM161.002 172L161.002 462L163.002 462L163.002 172L161.002 172ZM567 471L172.002 471L172.002 473L567 473L567 471ZM578 624L578 482L576 482L576 624L578 624ZM162.002 635L567 635L567 633L162.002 633L162.002 635ZM162.002 633L10.002 633L10.002 635L162.002 635L162.002 633ZM1.00195 624L1.00202 162.001L-0.997985 162.001L-0.998046 624L1.00195 624ZM10.002 633C5.03139 633 1.00195 628.971 1.00195 624L-0.998046 624C-0.998046 630.075 3.92683 635 10.002 635L10.002 633ZM576 624C576 628.971 571.971 633 567 633L567 635C573.075 635 578 630.075 578 624L576 624ZM567 473C571.971 473 576 477.03 576 482L578 482C578 475.925 573.075 471 567 471L567 473ZM161.002 462C161.002 468.075 165.927 473 172.002 473L172.002 471C167.031 471 163.002 466.971 163.002 462L161.002 462ZM172.002 161C165.927 161 161.002 165.925 161.002 172L163.002 172C163.002 167.029 167.031 163 172.002 163L172.002 161ZM777 152C777 156.971 772.971 161 768 161L768 163C774.075 163 779 158.075 779 152L777 152ZM768 1.00022C772.971 1.00022 777 5.02964 777 10.0002L779 10.0002C779 3.92509 774.075 -0.999776 768 -0.999777L768 1.00022ZM1.0001 10C1.0001 5.02942 5.02952 1 10.0001 1L10.0001 -0.999999C3.92495 -0.999999 -0.999897 3.92487 -0.999898 10L1.0001 10ZM0.00103833 163C-0.561428 163 -0.997985 162.542 -0.997985 162.001L1.00202 162.001C1.00202 161.459 0.564583 161 0.00103859 161L0.00103833 163ZM0.00103859 161C0.551032 161 1.00006 161.445 1.00006 161.999L-0.999938 161.999C-0.999938 162.553 -0.550033 163 0.00103833 163L0.00103859 161Z" fill="#818181" mask="url(#path-1-inside-1_687_41847)"/>
<path d="M199.84 84.6L206.4 84.6L206.4 107.8C205.387 108.173 203.76 108.627 201.52 109.16C199.28 109.747 196.64 110.04 193.6 110.04C190.613 110.04 187.893 109.48 185.44 108.36C182.987 107.187 180.88 105.507 179.12 103.32C177.413 101.133 176.08 98.44 175.12 95.24C174.16 91.9867 173.68 88.3067 173.68 84.2C173.68 80.04 174.213 76.36 175.28 73.16C176.347 69.96 177.787 67.2667 179.6 65.08C181.467 62.8933 183.627 61.24 186.08 60.12C188.533 58.9467 191.173 58.36 194 58.36C195.813 58.36 197.413 58.4933 198.8 58.76C200.187 59.0267 201.36 59.3467 202.32 59.72C203.333 60.0933 204.16 60.4933 204.8 60.92C205.44 61.2933 205.92 61.5867 206.24 61.8L204.08 67.32C202.853 66.36 201.387 65.5867 199.68 65C198.027 64.36 196.267 64.04 194.4 64.04C192.373 64.04 190.48 64.52 188.72 65.48C187.013 66.44 185.547 67.8 184.32 69.56C183.093 71.32 182.133 73.4533 181.44 75.96C180.747 78.4133 180.4 81.16 180.4 84.2C180.4 87.1867 180.693 89.9067 181.28 92.36C181.92 94.8133 182.827 96.92 184 98.68C185.173 100.44 186.613 101.827 188.32 102.84C190.08 103.8 192.08 104.28 194.32 104.28C195.867 104.28 197.067 104.173 197.92 103.96C198.773 103.747 199.413 103.533 199.84 103.32L199.84 84.6ZM218.56 109L218.56 73.88C224 72.0133 229.493 71.08 235.04 71.08C236.747 71.08 238.373 71.16 239.92 71.32C241.467 71.4267 243.173 71.6933 245.04 72.12L243.84 77.96C242.133 77.48 240.613 77.1867 239.28 77.08C238 76.92 236.587 76.84 235.04 76.84C231.787 76.84 228.48 77.2933 225.12 78.2L225.12 109L218.56 109ZM270.4 104.28C272.053 104.28 273.52 104.227 274.8 104.12C276.133 104.013 277.227 103.88 278.08 103.72L278.08 92.68C277.227 92.4134 276.187 92.2 274.96 92.04C273.787 91.88 272.533 91.8 271.2 91.8C269.973 91.8 268.773 91.9067 267.6 92.12C266.427 92.28 265.387 92.6 264.48 93.08C263.573 93.56 262.827 94.2 262.24 95C261.653 95.7467 261.36 96.7067 261.36 97.88C261.36 100.28 262.16 101.96 263.76 102.92C265.413 103.827 267.627 104.28 270.4 104.28ZM269.76 71C272.533 71 274.853 71.3467 276.72 72.04C278.64 72.7334 280.187 73.6934 281.36 74.92C282.533 76.1467 283.36 77.64 283.84 79.4C284.32 81.16 284.56 83.08 284.56 85.16L284.56 108.36C283.013 108.627 280.96 108.947 278.4 109.32C275.893 109.693 273.307 109.88 270.64 109.88C268.613 109.88 266.64 109.693 264.72 109.32C262.8 109 261.093 108.413 259.6 107.56C258.107 106.653 256.907 105.427 256 103.88C255.093 102.333 254.64 100.36 254.64 97.96C254.64 95.8267 255.093 94.04 256 92.6C256.96 91.1067 258.16 89.9067 259.6 89C261.093 88.0933 262.773 87.4533 264.64 87.08C266.56 86.6533 268.48 86.44 270.4 86.44C273.013 86.44 275.573 86.7334 278.08 87.32L278.08 85.48C278.08 84.36 277.947 83.2934 277.68 82.28C277.467 81.2134 277.013 80.2534 276.32 79.4C275.68 78.5467 274.773 77.88 273.6 77.4C272.48 76.8667 271.013 76.6 269.2 76.6C266.907 76.6 264.907 76.76 263.2 77.08C261.493 77.4 260.187 77.72 259.28 78.04L258.48 72.6C259.387 72.1733 260.88 71.8 262.96 71.48C265.093 71.16 267.36 71 269.76 71ZM320 90.52C320 86.2 318.987 82.8667 316.96 80.52C314.933 78.12 312.293 76.92 309.04 76.92C307.227 76.92 305.787 77 304.72 77.16C303.707 77.32 302.907 77.5067 302.32 77.72L302.32 101.16C303.067 101.853 304.16 102.493 305.6 103.08C307.04 103.667 308.533 103.96 310.08 103.96C311.84 103.96 313.333 103.613 314.56 102.92C315.84 102.227 316.88 101.293 317.68 100.12C318.48 98.8934 319.067 97.48 319.44 95.88C319.813 94.2267 320 92.44 320 90.52ZM326.8 90.52C326.8 93.3467 326.427 95.96 325.68 98.36C324.987 100.707 323.947 102.733 322.56 104.44C321.227 106.147 319.573 107.48 317.6 108.44C315.627 109.4 313.387 109.88 310.88 109.88C308.907 109.88 307.173 109.64 305.68 109.16C304.187 108.68 303.067 108.147 302.32 107.56L302.32 122.2L295.68 122.2L295.68 73C297.12 72.5734 298.96 72.1467 301.2 71.72C303.493 71.2934 306.107 71.08 309.04 71.08C311.707 71.08 314.133 71.5334 316.32 72.44C318.507 73.3467 320.373 74.6534 321.92 76.36C323.467 78.0134 324.667 80.04 325.52 82.44C326.373 84.84 326.8 87.5334 326.8 90.52ZM335.68 109L335.68 54.68L342.32 53.56L342.32 72.44C343.387 72.0134 344.587 71.6934 345.92 71.48C347.253 71.2134 348.56 71.08 349.84 71.08C352.667 71.08 355.013 71.5067 356.88 72.36C358.8 73.16 360.32 74.3067 361.44 75.8C362.56 77.2934 363.36 79.08 363.84 81.16C364.32 83.24 364.56 85.5334 364.56 88.04L364.56 109L358 109L358 89.48C358 84.8934 357.36 81.6667 356.08 79.8C354.8 77.88 352.507 76.92 349.2 76.92C347.813 76.92 346.453 77.08 345.12 77.4C343.84 77.6667 342.907 77.9334 342.32 78.2L342.32 109L335.68 109ZM386.72 66.12C385.333 66.12 384.133 65.64 383.12 64.68C382.107 63.72 381.6 62.4134 381.6 60.76C381.6 59.1067 382.107 57.8 383.12 56.84C384.133 55.88 385.333 55.4 386.72 55.4C388.16 55.4 389.36 55.88 390.32 56.84C391.333 57.8 391.84 59.1067 391.84 60.76C391.84 62.4134 391.333 63.72 390.32 64.68C389.36 65.64 388.16 66.12 386.72 66.12ZM385.04 77.4L374.32 77.4L374.32 71.88L391.6 71.88L391.6 94.68C391.6 98.36 392.107 100.84 393.12 102.12C394.133 103.347 395.653 103.96 397.68 103.96C399.227 103.96 400.64 103.773 401.92 103.4C403.253 103.027 404.293 102.627 405.04 102.2L406 107.8C405.68 107.96 405.227 108.173 404.64 108.44C404.053 108.653 403.36 108.867 402.56 109.08C401.813 109.293 400.96 109.48 400 109.64C399.093 109.8 398.133 109.88 397.12 109.88C394.773 109.88 392.827 109.56 391.28 108.92C389.733 108.28 388.48 107.32 387.52 106.04C386.613 104.76 385.973 103.187 385.6 101.32C385.227 99.4 385.04 97.1867 385.04 94.68L385.04 77.4ZM413.92 90.52C413.92 87.16 414.453 84.2534 415.52 81.8C416.587 79.3467 418.053 77.32 419.92 75.72C421.787 74.12 423.947 72.9467 426.4 72.2C428.907 71.4 431.573 71 434.4 71C436.213 71 438 71.1334 439.76 71.4C441.573 71.6134 443.493 72.04 445.52 72.68L444 78.36C442.24 77.72 440.613 77.32 439.12 77.16C437.68 76.9467 436.213 76.84 434.72 76.84C432.8 76.84 430.987 77.1067 429.28 77.64C427.573 78.12 426.08 78.92 424.8 80.04C423.573 81.1067 422.587 82.52 421.84 84.28C421.093 85.9867 420.72 88.0667 420.72 90.52C420.72 92.8667 421.067 94.8934 421.76 96.6C422.453 98.2534 423.413 99.64 424.64 100.76C425.92 101.827 427.44 102.627 429.2 103.16C430.96 103.693 432.907 103.96 435.04 103.96C436.747 103.96 438.373 103.88 439.92 103.72C441.52 103.507 443.253 103.08 445.12 102.44L446.08 107.96C444.213 108.653 442.32 109.133 440.4 109.4C438.48 109.72 436.4 109.88 434.16 109.88C431.173 109.88 428.427 109.48 425.92 108.68C423.467 107.827 421.333 106.6 419.52 105C417.76 103.4 416.373 101.4 415.36 99C414.4 96.5467 413.92 93.72 413.92 90.52ZM517.68 79.7201C516.933 79.0267 515.84 78.3867 514.4 77.8001C512.96 77.1601 511.467 76.8401 509.92 76.8401C508.16 76.8401 506.64 77.1867 505.36 77.8801C504.133 78.5734 503.12 79.5334 502.32 80.7601C501.52 81.9334 500.933 83.3734 500.56 85.0801C500.187 86.7334 500 88.5201 500 90.4401C500 94.7601 501.013 98.0934 503.04 100.44C505.067 102.787 507.707 103.96 510.96 103.96C512.613 103.96 514 103.88 515.12 103.72C516.293 103.56 517.147 103.4 517.68 103.24L517.68 79.7201ZM517.68 54.6801L524.32 53.5601L524.32 107.96C522.88 108.387 521.04 108.813 518.8 109.24C516.56 109.667 513.947 109.88 510.96 109.88C508.293 109.88 505.867 109.427 503.68 108.52C501.493 107.613 499.627 106.333 498.08 104.68C496.533 102.973 495.333 100.92 494.48 98.5201C493.627 96.1201 493.2 93.4267 493.2 90.4401C493.2 87.5601 493.547 84.9467 494.24 82.6001C494.987 80.2001 496.053 78.1467 497.44 76.4401C498.827 74.7334 500.48 73.4001 502.4 72.4401C504.373 71.4801 506.613 71.0001 509.12 71.0001C511.093 71.0001 512.827 71.2401 514.32 71.7201C515.813 72.2001 516.933 72.7067 517.68 73.2401L517.68 54.6801ZM550.72 71.0001C555.733 71.0001 559.6 72.5734 562.32 75.7201C565.04 78.8134 566.4 83.5334 566.4 89.8801L566.4 92.2001L539.84 92.2001C540.107 96.0401 541.36 98.9734 543.6 101C545.893 102.973 549.093 103.96 553.2 103.96C555.547 103.96 557.547 103.773 559.2 103.4C560.853 103.027 562.107 102.627 562.96 102.2L563.84 107.8C563.04 108.227 561.6 108.68 559.52 109.16C557.44 109.64 555.093 109.88 552.48 109.88C549.28 109.88 546.453 109.4 544 108.44C541.6 107.427 539.6 106.067 538 104.36C536.4 102.653 535.2 100.627 534.4 98.2801C533.6 95.8801 533.2 93.2934 533.2 90.5201C533.2 87.2134 533.707 84.3334 534.72 81.8801C535.733 79.4267 537.067 77.4001 538.72 75.8001C540.373 74.2001 542.24 73.0001 544.32 72.2001C546.4 71.4001 548.533 71.0001 550.72 71.0001ZM559.68 86.8401C559.68 83.6934 558.853 81.2134 557.2 79.4001C555.547 77.5334 553.36 76.6001 550.64 76.6001C549.093 76.6001 547.68 76.8934 546.4 77.4801C545.173 78.0667 544.107 78.8401 543.2 79.8001C542.293 80.7601 541.573 81.8534 541.04 83.0801C540.507 84.3067 540.16 85.5601 540 86.8401L559.68 86.8401ZM598.08 99.7201C598.08 98.3867 597.52 97.2934 596.4 96.4401C595.333 95.5867 593.973 94.8401 592.32 94.2001C590.72 93.5601 588.96 92.9467 587.04 92.3601C585.12 91.7201 583.333 90.9467 581.68 90.0401C580.08 89.1334 578.72 88.0134 577.6 86.6801C576.533 85.3467 576 83.6134 576 81.4801C576 78.4934 577.2 76.0134 579.6 74.0401C582.053 72.0134 585.867 71.0001 591.04 71.0001C593.067 71.0001 595.147 71.1601 597.28 71.4801C599.467 71.7467 601.333 72.1201 602.88 72.6001L601.68 78.5201C601.253 78.3067 600.667 78.0934 599.92 77.8801C599.173 77.6134 598.32 77.4001 597.36 77.2401C596.4 77.0267 595.36 76.8667 594.24 76.7601C593.173 76.6534 592.133 76.6001 591.12 76.6001C585.36 76.6001 582.48 78.1734 582.48 81.3201C582.48 82.4401 583.013 83.4001 584.08 84.2001C585.2 84.9467 586.587 85.6401 588.24 86.2801C589.893 86.9201 591.68 87.5867 593.6 88.2801C595.52 88.9201 597.307 89.7201 598.96 90.6801C600.613 91.6401 601.973 92.8134 603.04 94.2001C604.16 95.5334 604.72 97.2401 604.72 99.3201C604.72 102.68 603.413 105.293 600.8 107.16C598.187 108.973 594.053 109.88 588.4 109.88C585.84 109.88 583.493 109.667 581.36 109.24C579.227 108.813 577.2 108.173 575.28 107.32L576.56 101.32C578.427 102.173 580.373 102.893 582.4 103.48C584.48 104.013 586.693 104.28 589.04 104.28C595.067 104.28 598.08 102.76 598.08 99.7201ZM626.72 66.1201C625.333 66.1201 624.133 65.6401 623.12 64.6801C622.107 63.7201 621.6 62.4134 621.6 60.7601C621.6 59.1067 622.107 57.8001 623.12 56.8401C624.133 55.8801 625.333 55.4001 626.72 55.4001C628.16 55.4001 629.36 55.8801 630.32 56.8401C631.333 57.8001 631.84 59.1067 631.84 60.7601C631.84 62.4134 631.333 63.7201 630.32 64.6801C629.36 65.6401 628.16 66.1201 626.72 66.1201ZM625.04 77.4001L614.32 77.4001L614.32 71.8801L631.6 71.8801L631.6 94.6801C631.6 98.3601 632.107 100.84 633.12 102.12C634.133 103.347 635.653 103.96 637.68 103.96C639.227 103.96 640.64 103.773 641.92 103.4C643.253 103.027 644.293 102.627 645.04 102.2L646 107.8C645.68 107.96 645.227 108.173 644.64 108.44C644.053 108.653 643.36 108.867 642.56 109.08C641.813 109.293 640.96 109.48 640 109.64C639.093 109.8 638.133 109.88 637.12 109.88C634.773 109.88 632.827 109.56 631.28 108.92C629.733 108.28 628.48 107.32 627.52 106.04C626.613 104.76 625.973 103.187 625.6 101.32C625.227 99.4001 625.04 97.1867 625.04 94.6801L625.04 77.4001ZM677.68 105.56C676.933 105.987 675.787 106.44 674.24 106.92C672.693 107.4 670.907 107.64 668.88 107.64C666.693 107.64 664.64 107.293 662.72 106.6C660.853 105.853 659.2 104.76 657.76 103.32C656.373 101.827 655.253 99.9601 654.4 97.7201C653.6 95.4268 653.2 92.7334 653.2 89.6401C653.2 86.9201 653.573 84.4401 654.32 82.2001C655.12 79.9068 656.24 77.9334 657.68 76.2801C659.173 74.6268 660.987 73.3468 663.12 72.4401C665.253 71.4801 667.68 71.0001 670.4 71.0001C673.6 71.0001 676.32 71.2401 678.56 71.7201C680.853 72.1468 682.773 72.5734 684.32 73.0001L684.32 106.12C684.32 111.88 682.853 116.04 679.92 118.6C677.04 121.16 672.667 122.44 666.8 122.44C664.4 122.44 662.213 122.253 660.24 121.88C658.32 121.507 656.613 121.053 655.12 120.52L656.32 114.68C657.707 115.267 659.28 115.747 661.04 116.12C662.853 116.493 664.827 116.68 666.96 116.68C670.8 116.68 673.547 115.907 675.2 114.36C676.853 112.813 677.68 110.307 677.68 106.84L677.68 105.56ZM677.68 77.7201C677.04 77.5068 676.16 77.3201 675.04 77.1601C673.92 76.9468 672.4 76.8401 670.48 76.8401C667.067 76.8401 664.453 78.0134 662.64 80.3601C660.88 82.7068 660 85.8268 660 89.7201C660 91.8534 660.24 93.6934 660.72 95.2401C661.253 96.7334 661.947 97.9868 662.8 99.0001C663.707 99.9601 664.72 100.68 665.84 101.16C666.96 101.587 668.16 101.8 669.44 101.8C671.093 101.8 672.64 101.56 674.08 101.08C675.573 100.6 676.773 100.04 677.68 99.4001L677.68 77.7201ZM695.68 72.9201C698.08 72.3334 700.453 71.8801 702.8 71.5601C705.2 71.2401 707.44 71.0801 709.52 71.0801C714.48 71.0801 718.213 72.3601 720.72 74.9201C723.28 77.4801 724.56 81.5868 724.56 87.2401L724.56 109L718 109L718 88.4401C718 86.0401 717.787 84.0934 717.36 82.6001C716.933 81.1068 716.32 79.9601 715.52 79.1601C714.773 78.3068 713.84 77.7201 712.72 77.4001C711.653 77.0801 710.48 76.9201 709.2 76.9201C708.133 76.9201 706.987 77.0001 705.76 77.1601C704.587 77.2668 703.44 77.4268 702.32 77.6401L702.32 109L695.68 109L695.68 72.9201Z" fill="black"/>
<path d="M49 452.2C49 449.267 49.3733 446.707 50.12 444.52C50.8667 442.28 51.9333 440.44 53.32 439C54.6533 437.507 56.2533 436.413 58.12 435.72C59.9867 434.973 62.0667 434.6 64.36 434.6C69.5333 434.6 73.5333 436.12 76.36 439.16C79.1333 442.2 80.52 446.76 80.52 452.84L80.52 458.6L99 458.6L99 465.16L50.2 465.16C49.9867 464.2 49.8 463.16 49.64 462.04C49.48 460.867 49.3467 459.72 49.24 458.6C49.1333 457.427 49.08 456.307 49.08 455.24C49.0267 454.12 49 453.107 49 452.2ZM54.68 451.72C54.68 453.107 54.7067 454.44 54.76 455.72C54.76 457 54.8133 457.96 54.92 458.6L74.92 458.6L74.92 453.16C74.92 449.16 74.12 446.2 72.52 444.28C70.92 442.307 68.28 441.32 64.6 441.32C57.9867 441.32 54.68 444.787 54.68 451.72ZM99 425.32L44.68 425.32L43.56 418.68L62.44 418.68C62.0133 417.613 61.6933 416.413 61.48 415.08C61.2133 413.747 61.08 412.44 61.08 411.16C61.08 408.333 61.5067 405.987 62.36 404.12C63.16 402.2 64.3067 400.68 65.8 399.56C67.2933 398.44 69.08 397.64 71.16 397.16C73.24 396.68 75.5333 396.44 78.04 396.44L99 396.44L99 403L79.48 403C74.8933 403 71.6667 403.64 69.8 404.92C67.88 406.2 66.92 408.493 66.92 411.8C66.92 413.187 67.08 414.547 67.4 415.88C67.6667 417.16 67.9333 418.093 68.2 418.68L99 418.68L99 425.32ZM80.44 354.2C83.3733 354.2 86.04 354.627 88.44 355.48C90.7867 356.28 92.8133 357.427 94.52 358.92C96.2267 360.413 97.56 362.2 98.52 364.28C99.4267 366.36 99.88 368.627 99.88 371.08C99.88 373.48 99.4267 375.72 98.52 377.8C97.56 379.827 96.2267 381.587 94.52 383.08C92.8133 384.573 90.7867 385.747 88.44 386.6C86.04 387.4 83.3733 387.8 80.44 387.8C77.5067 387.8 74.84 387.4 72.44 386.6C70.04 385.747 68.0133 384.573 66.36 383.08C64.6533 381.587 63.3467 379.827 62.44 377.8C61.48 375.72 61 373.48 61 371.08C61 368.627 61.48 366.36 62.44 364.28C63.3467 362.2 64.6533 360.413 66.36 358.92C68.0133 357.427 70.04 356.28 72.44 355.48C74.84 354.627 77.5067 354.2 80.44 354.2ZM80.44 361C76.2267 361 72.92 361.907 70.52 363.72C68.0667 365.533 66.84 367.987 66.84 371.08C66.84 374.12 68.0667 376.547 70.52 378.36C72.92 380.12 76.2267 381 80.44 381C84.6 381 87.9067 380.12 90.36 378.36C92.76 376.547 93.96 374.12 93.96 371.08C93.96 367.987 92.76 365.533 90.36 363.72C87.9067 361.907 84.6 361 80.44 361ZM61.88 331.56L61.88 315.88L67.4 315.88L67.4 331.56L84.68 331.56C86.5467 331.56 88.0667 331.427 89.24 331.16C90.4134 330.893 91.3734 330.467 92.12 329.88C92.8134 329.24 93.2934 328.44 93.56 327.48C93.8267 326.52 93.96 325.347 93.96 323.96C93.96 322.04 93.8 320.493 93.48 319.32C93.16 318.147 92.7334 317.027 92.2 315.96L97.8 315C98.12 315.747 98.5467 316.947 99.08 318.6C99.6134 320.2 99.88 322.2 99.88 324.6C99.88 327.373 99.56 329.64 98.92 331.4C98.28 333.16 97.32 334.547 96.04 335.56C94.76 336.52 93.1867 337.187 91.32 337.56C89.4 337.933 87.1867 338.12 84.68 338.12L67.4 338.12L67.4 345.96L61.88 345.96L61.88 338.12L51.48 338.12L50.36 331.56L61.88 331.56ZM80.44 274.2C83.3734 274.2 86.04 274.627 88.44 275.48C90.7867 276.28 92.8134 277.427 94.52 278.92C96.2267 280.413 97.56 282.2 98.52 284.28C99.4267 286.36 99.88 288.627 99.88 291.08C99.88 293.48 99.4267 295.72 98.52 297.8C97.56 299.827 96.2267 301.587 94.52 303.08C92.8134 304.573 90.7867 305.747 88.44 306.6C86.04 307.4 83.3734 307.8 80.44 307.8C77.5067 307.8 74.84 307.4 72.44 306.6C70.04 305.747 68.0134 304.573 66.36 303.08C64.6534 301.587 63.3467 299.827 62.44 297.8C61.48 295.72 61 293.48 61 291.08C61 288.627 61.48 286.36 62.44 284.28C63.3467 282.2 64.6534 280.413 66.36 278.92C68.0134 277.427 70.04 276.28 72.44 275.48C74.84 274.627 77.5067 274.2 80.44 274.2ZM80.44 281C76.2267 281 72.92 281.907 70.52 283.72C68.0667 285.533 66.84 287.987 66.84 291.08C66.84 294.12 68.0667 296.547 70.52 298.36C72.92 300.12 76.2267 301 80.44 301C84.6 301 87.9067 300.12 90.36 298.36C92.76 296.547 93.96 294.12 93.96 291.08C93.96 287.987 92.76 285.533 90.36 283.72C87.9067 281.907 84.6 281 80.44 281ZM95.56 243.32C95.9867 244.067 96.44 245.213 96.92 246.76C97.4 248.307 97.64 250.093 97.64 252.12C97.64 254.307 97.2934 256.36 96.6 258.28C95.8534 260.147 94.76 261.8 93.32 263.24C91.8267 264.627 89.96 265.747 87.72 266.6C85.4267 267.4 82.7334 267.8 79.64 267.8C76.92 267.8 74.44 267.427 72.2 266.68C69.9067 265.88 67.9334 264.76 66.28 263.32C64.6267 261.827 63.3467 260.013 62.44 257.88C61.48 255.747 61 253.32 61 250.6C61 247.4 61.24 244.68 61.72 242.44C62.1467 240.147 62.5734 238.227 63 236.68L96.12 236.68C101.88 236.68 106.04 238.147 108.6 241.08C111.16 243.96 112.44 248.333 112.44 254.2C112.44 256.6 112.253 258.787 111.88 260.76C111.507 262.68 111.053 264.387 110.52 265.88L104.68 264.68C105.267 263.293 105.747 261.72 106.12 259.96C106.493 258.147 106.68 256.173 106.68 254.04C106.68 250.2 105.907 247.453 104.36 245.8C102.813 244.147 100.307 243.32 96.84 243.32L95.56 243.32ZM67.72 243.32C67.5067 243.96 67.32 244.84 67.16 245.96C66.9467 247.08 66.84 248.6 66.84 250.52C66.84 253.933 68.0134 256.547 70.36 258.36C72.7067 260.12 75.8267 261 79.72 261C81.8534 261 83.6934 260.76 85.24 260.28C86.7334 259.747 87.9867 259.053 89 258.2C89.96 257.293 90.68 256.28 91.16 255.16C91.5867 254.04 91.8 252.84 91.8 251.56C91.8 249.907 91.56 248.36 91.08 246.92C90.6 245.427 90.04 244.227 89.4 243.32L67.72 243.32ZM99 222.44L63.88 222.44C62.0134 217 61.08 211.507 61.08 205.96C61.08 204.253 61.16 202.627 61.32 201.08C61.4267 199.533 61.6934 197.827 62.12 195.96L67.96 197.16C67.48 198.867 67.1867 200.387 67.08 201.72C66.92 203 66.84 204.413 66.84 205.96C66.84 209.213 67.2934 212.52 68.2 215.88L99 215.88L99 222.44ZM94.28 170.6C94.28 168.947 94.2267 167.48 94.12 166.2C94.0134 164.867 93.88 163.773 93.72 162.92L82.68 162.92C82.4134 163.773 82.2 164.813 82.04 166.04C81.88 167.213 81.8 168.467 81.8 169.8C81.8 171.027 81.9067 172.227 82.12 173.4C82.28 174.573 82.6 175.613 83.08 176.52C83.56 177.427 84.2 178.173 85 178.76C85.7467 179.347 86.7067 179.64 87.88 179.64C90.28 179.64 91.96 178.84 92.92 177.24C93.8267 175.587 94.28 173.373 94.28 170.6ZM61 171.24C61 168.467 61.3467 166.147 62.04 164.28C62.7334 162.36 63.6934 160.813 64.92 159.64C66.1467 158.467 67.64 157.64 69.4 157.16C71.16 156.68 73.08 156.44 75.16 156.44L98.36 156.44C98.6267 157.987 98.9467 160.04 99.32 162.6C99.6934 165.107 99.88 167.693 99.88 170.36C99.88 172.387 99.6934 174.36 99.32 176.28C99 178.2 98.4134 179.907 97.56 181.4C96.6534 182.893 95.4267 184.093 93.88 185C92.3334 185.907 90.36 186.36 87.96 186.36C85.8267 186.36 84.04 185.907 82.6 185C81.1067 184.04 79.9067 182.84 79 181.4C78.0934 179.907 77.4534 178.227 77.08 176.36C76.6534 174.44 76.44 172.52 76.44 170.6C76.44 167.987 76.7334 165.427 77.32 162.92L75.48 162.92C74.36 162.92 73.2934 163.053 72.28 163.32C71.2134 163.533 70.2534 163.987 69.4 164.68C68.5467 165.32 67.88 166.227 67.4 167.4C66.8667 168.52 66.6 169.987 66.6 171.8C66.6 174.093 66.76 176.093 67.08 177.8C67.4 179.507 67.72 180.813 68.04 181.72L62.6 182.52C62.1734 181.613 61.8 180.12 61.48 178.04C61.16 175.907 61 173.64 61 171.24ZM80.52 121C76.2 121 72.8667 122.013 70.52 124.04C68.12 126.067 66.92 128.707 66.92 131.96C66.92 133.773 67 135.213 67.16 136.28C67.32 137.293 67.5067 138.093 67.72 138.68L91.16 138.68C91.8534 137.933 92.4934 136.84 93.08 135.4C93.6667 133.96 93.96 132.467 93.96 130.92C93.96 129.16 93.6134 127.667 92.92 126.44C92.2267 125.16 91.2934 124.12 90.12 123.32C88.8934 122.52 87.48 121.933 85.88 121.56C84.2267 121.187 82.44 121 80.52 121ZM80.52 114.2C83.3467 114.2 85.96 114.573 88.36 115.32C90.7067 116.013 92.7334 117.053 94.44 118.44C96.1467 119.773 97.48 121.427 98.44 123.4C99.4 125.373 99.88 127.613 99.88 130.12C99.88 132.093 99.64 133.827 99.16 135.32C98.68 136.813 98.1467 137.933 97.56 138.68L112.2 138.68L112.2 145.32L63 145.32C62.5734 143.88 62.1467 142.04 61.72 139.8C61.2934 137.507 61.08 134.893 61.08 131.96C61.08 129.293 61.5334 126.867 62.44 124.68C63.3467 122.493 64.6534 120.627 66.36 119.08C68.0134 117.533 70.04 116.333 72.44 115.48C74.84 114.627 77.5334 114.2 80.52 114.2ZM99 105.32L44.68 105.32L43.56 98.68L62.44 98.68C62.0134 97.6133 61.6934 96.4133 61.48 95.08C61.2134 93.7467 61.08 92.44 61.08 91.16C61.08 88.3333 61.5067 85.9867 62.36 84.12C63.16 82.2 64.3067 80.68 65.8 79.56C67.2934 78.44 69.08 77.64 71.1601 77.16C73.2401 76.68 75.5334 76.44 78.04 76.44L99.0001 76.44L99.0001 83L79.48 83C74.8934 83 71.6667 83.64 69.8 84.92C67.88 86.2 66.92 88.4933 66.92 91.8C66.92 93.1867 67.08 94.5467 67.4 95.88C67.6667 97.16 67.9334 98.0933 68.2 98.68L99 98.68L99 105.32Z" fill="black"/>
<path d="M76.6019 541.12C76.6019 542.827 76.2553 544.48 75.5619 546.08C74.9219 547.68 74.0419 549.253 72.9219 550.8C71.8553 552.347 70.6286 553.867 69.2419 555.36C67.8553 556.853 66.4419 558.32 65.0019 559.76C64.2019 560.56 63.2686 561.52 62.2019 562.64C61.1353 563.76 60.1219 564.907 59.1619 566.08C58.2019 567.253 57.4019 568.4 56.7619 569.52C56.1219 570.64 55.8019 571.6 55.8019 572.4L78.6019 572.4L78.6019 578L48.6019 578C48.5486 577.733 48.5219 577.467 48.5219 577.2C48.5219 576.88 48.5219 576.587 48.5219 576.32C48.5219 574.08 48.8953 572 49.6419 570.08C50.3886 568.16 51.3486 566.347 52.5219 564.64C53.6953 562.933 55.0019 561.333 56.4419 559.84C57.9353 558.293 59.4019 556.8 60.8419 555.36C62.0153 554.187 63.1353 553.04 64.2019 551.92C65.3219 550.8 66.2819 549.68 67.0819 548.56C67.9353 547.44 68.6019 546.293 69.0819 545.12C69.6153 543.893 69.8819 542.64 69.882 541.36C69.882 539.92 69.642 538.693 69.162 537.68C68.7353 536.667 68.1219 535.84 67.322 535.2C66.5753 534.507 65.6953 534 64.682 533.68C63.6686 533.36 62.5753 533.2 61.4019 533.2C60.0153 533.2 58.7353 533.387 57.562 533.76C56.442 534.133 55.4286 534.587 54.5219 535.12C53.6686 535.653 52.9219 536.187 52.2819 536.72C51.6419 537.2 51.1619 537.6 50.8419 537.92L47.5619 533.28C47.9886 532.8 48.6286 532.213 49.4819 531.52C50.3353 530.827 51.3486 530.187 52.522 529.6C53.7486 528.96 55.1086 528.427 56.602 528C58.0953 527.573 59.6953 527.36 61.402 527.36C66.5753 527.36 70.3886 528.56 72.842 530.96C75.3486 533.307 76.602 536.693 76.6019 541.12ZM107.642 552.32C107.642 553.707 107.215 554.907 106.362 555.92C105.562 556.933 104.495 557.44 103.162 557.44C101.775 557.44 100.655 556.933 99.8019 555.92C98.9486 554.907 98.5219 553.707 98.5219 552.32C98.5219 550.933 98.9486 549.707 99.8019 548.64C100.655 547.573 101.775 547.04 103.162 547.04C104.495 547.04 105.562 547.573 106.362 548.64C107.215 549.707 107.642 550.933 107.642 552.32ZM86.6819 553.2C86.6819 544.88 88.0953 538.507 90.9219 534.08C93.802 529.6 97.8286 527.36 103.002 527.36C108.229 527.36 112.255 529.6 115.082 534.08C117.909 538.507 119.322 544.88 119.322 553.2C119.322 561.52 117.909 567.92 115.082 572.4C112.255 576.827 108.229 579.04 103.002 579.04C97.8286 579.04 93.8019 576.827 90.9219 572.4C88.0953 567.92 86.6819 561.52 86.6819 553.2ZM112.602 553.2C112.602 550.48 112.442 547.92 112.122 545.52C111.802 543.067 111.269 540.933 110.522 539.12C109.775 537.307 108.789 535.867 107.562 534.8C106.335 533.733 104.815 533.2 103.002 533.2C101.189 533.2 99.6686 533.733 98.4419 534.8C97.2153 535.867 96.2286 537.307 95.4819 539.12C94.7353 540.933 94.2019 543.067 93.8819 545.52C93.5619 547.92 93.4019 550.48 93.4019 553.2C93.4019 555.92 93.5619 558.507 93.8819 560.96C94.2019 563.36 94.7353 565.467 95.4819 567.28C96.2286 569.093 97.2153 570.533 98.4419 571.6C99.6686 572.667 101.189 573.2 103.002 573.2C104.815 573.2 106.335 572.667 107.562 571.6C108.789 570.533 109.775 569.093 110.522 567.28C111.269 565.467 111.802 563.36 112.122 560.96C112.442 558.507 112.602 555.92 112.602 553.2ZM142.442 540.88L158.122 540.88L158.122 546.4L142.442 546.4L142.442 563.68C142.442 565.547 142.575 567.067 142.842 568.24C143.109 569.413 143.535 570.373 144.122 571.12C144.762 571.813 145.562 572.293 146.522 572.56C147.482 572.827 148.655 572.96 150.042 572.96C151.962 572.96 153.509 572.8 154.682 572.48C155.855 572.16 156.975 571.733 158.042 571.2L159.002 576.8C158.255 577.12 157.055 577.547 155.402 578.08C153.802 578.613 151.802 578.88 149.402 578.88C146.629 578.88 144.362 578.56 142.602 577.92C140.842 577.28 139.455 576.32 138.442 575.04C137.482 573.76 136.815 572.187 136.442 570.32C136.069 568.4 135.882 566.187 135.882 563.68L135.882 546.4L128.042 546.4L128.042 540.88L135.882 540.88L135.882 530.48L142.442 529.36L142.442 540.88ZM168.682 578L168.682 523.68L175.322 522.56L175.322 541.44C176.389 541.013 177.589 540.693 178.922 540.48C180.255 540.213 181.562 540.08 182.842 540.08C185.669 540.08 188.015 540.507 189.882 541.36C191.802 542.16 193.322 543.307 194.442 544.8C195.562 546.293 196.362 548.08 196.842 550.16C197.322 552.24 197.562 554.533 197.562 557.04L197.562 578L191.002 578L191.002 558.48C191.002 553.893 190.362 550.667 189.082 548.8C187.802 546.88 185.509 545.92 182.202 545.92C180.815 545.92 179.455 546.08 178.122 546.4C176.842 546.667 175.909 546.933 175.322 547.2L175.322 578L168.682 578ZM279.802 575.92C277.935 576.987 275.935 577.76 273.802 578.24C271.722 578.773 269.482 579.04 267.082 579.04C264.149 579.04 261.429 578.533 258.922 577.52C256.469 576.453 254.335 574.88 252.522 572.8C250.709 570.667 249.269 567.973 248.202 564.72C247.189 561.467 246.682 557.627 246.682 553.2C246.682 548.987 247.215 545.28 248.282 542.08C249.402 538.88 250.895 536.187 252.762 534C254.629 531.813 256.815 530.16 259.322 529.04C261.829 527.92 264.495 527.36 267.322 527.36C269.295 527.36 271.295 527.627 273.322 528.16C275.402 528.693 277.429 529.573 279.402 530.8L277.482 536.24C273.962 534.213 270.655 533.2 267.562 533.2C265.375 533.2 263.402 533.68 261.642 534.64C259.935 535.547 258.469 536.88 257.242 538.64C256.015 540.4 255.055 542.507 254.362 544.96C253.722 547.413 253.402 550.16 253.402 553.2C253.402 556.613 253.749 559.573 254.442 562.08C255.189 564.587 256.202 566.667 257.482 568.32C258.762 569.973 260.282 571.2 262.042 572C263.855 572.8 265.802 573.2 267.882 573.2C269.429 573.2 271.055 573.013 272.762 572.64C274.469 572.213 276.229 571.493 278.042 570.48L279.802 575.92ZM303.722 540C308.735 540 312.602 541.573 315.322 544.72C318.042 547.813 319.402 552.533 319.402 558.88L319.402 561.2L292.842 561.2C293.109 565.04 294.362 567.973 296.602 570C298.895 571.973 302.095 572.96 306.202 572.96C308.549 572.96 310.549 572.773 312.202 572.4C313.855 572.027 315.109 571.627 315.962 571.2L316.842 576.8C316.042 577.227 314.602 577.68 312.522 578.16C310.442 578.64 308.095 578.88 305.482 578.88C302.282 578.88 299.455 578.4 297.002 577.44C294.602 576.427 292.602 575.067 291.002 573.36C289.402 571.653 288.202 569.627 287.402 567.28C286.602 564.88 286.202 562.293 286.202 559.52C286.202 556.213 286.709 553.333 287.722 550.88C288.735 548.427 290.069 546.4 291.722 544.8C293.375 543.2 295.242 542 297.322 541.2C299.402 540.4 301.535 540 303.722 540ZM312.682 555.84C312.682 552.693 311.855 550.213 310.202 548.4C308.549 546.533 306.362 545.6 303.642 545.6C302.095 545.6 300.682 545.893 299.402 546.48C298.175 547.067 297.109 547.84 296.202 548.8C295.295 549.76 294.575 550.853 294.042 552.08C293.509 553.307 293.162 554.56 293.002 555.84L312.682 555.84ZM328.682 541.92C331.082 541.333 333.455 540.88 335.802 540.56C338.202 540.24 340.442 540.08 342.522 540.08C347.482 540.08 351.215 541.36 353.722 543.92C356.282 546.48 357.562 550.587 357.562 556.24L357.562 578L351.002 578L351.002 557.44C351.002 555.04 350.789 553.093 350.362 551.6C349.935 550.107 349.322 548.96 348.522 548.16C347.775 547.307 346.842 546.72 345.722 546.4C344.655 546.08 343.482 545.92 342.202 545.92C341.135 545.92 339.989 546 338.762 546.16C337.589 546.267 336.442 546.427 335.322 546.64L335.322 578L328.682 578L328.682 541.92ZM382.442 540.88L398.122 540.88L398.122 546.4L382.442 546.4L382.442 563.68C382.442 565.547 382.575 567.067 382.842 568.24C383.109 569.413 383.535 570.373 384.122 571.12C384.762 571.813 385.562 572.293 386.522 572.56C387.482 572.827 388.655 572.96 390.042 572.96C391.962 572.96 393.509 572.8 394.682 572.48C395.855 572.16 396.975 571.733 398.042 571.2L399.002 576.8C398.255 577.12 397.055 577.547 395.402 578.08C393.802 578.613 391.802 578.88 389.402 578.88C386.629 578.88 384.362 578.56 382.602 577.92C380.842 577.28 379.455 576.32 378.442 575.04C377.482 573.76 376.815 572.187 376.442 570.32C376.069 568.4 375.882 566.187 375.882 563.68L375.882 546.4L368.042 546.4L368.042 540.88L375.882 540.88L375.882 530.48L382.442 529.36L382.442 540.88ZM437.322 576.96C435.882 577.333 433.962 577.733 431.562 578.16C429.215 578.587 426.442 578.8 423.242 578.8C420.415 578.8 418.069 578.4 416.202 577.6C414.335 576.747 412.815 575.573 411.642 574.08C410.469 572.533 409.642 570.72 409.162 568.64C408.682 566.56 408.442 564.267 408.442 561.76L408.442 540.88L415.002 540.88L415.002 560.32C415.002 564.907 415.669 568.16 417.002 570.08C418.389 572 420.682 572.96 423.882 572.96C424.575 572.96 425.269 572.933 425.962 572.88C426.709 572.827 427.402 572.773 428.042 572.72C428.682 572.613 429.242 572.533 429.722 572.48C430.202 572.373 430.522 572.293 430.682 572.24L430.682 540.88L437.322 540.88L437.322 576.96ZM451.562 578L451.562 542.88C457.002 541.013 462.495 540.08 468.042 540.08C469.749 540.08 471.375 540.16 472.922 540.32C474.469 540.427 476.175 540.693 478.042 541.12L476.842 546.96C475.135 546.48 473.615 546.187 472.282 546.08C471.002 545.92 469.589 545.84 468.042 545.84C464.789 545.84 461.482 546.293 458.122 547.2L458.122 578L451.562 578ZM487.082 584.96C487.562 585.227 488.229 585.44 489.082 585.6C489.989 585.76 490.815 585.84 491.562 585.84C494.175 585.84 496.202 585.253 497.642 584.08C499.135 582.96 500.495 581.093 501.722 578.48C498.735 572.827 495.935 566.773 493.322 560.32C490.709 553.813 488.549 547.333 486.842 540.88L494.042 540.88C494.575 543.013 495.189 545.333 495.882 547.84C496.629 550.293 497.455 552.827 498.362 555.44C499.269 558.053 500.229 560.693 501.242 563.36C502.309 565.973 503.429 568.48 504.602 570.88C505.455 568.427 506.255 566 507.002 563.6C507.749 561.2 508.442 558.8 509.082 556.4C509.722 553.947 510.362 551.467 511.002 548.96C511.642 546.4 512.309 543.707 513.002 540.88L519.882 540.88C518.175 547.813 516.255 554.533 514.122 561.04C512.042 567.547 509.802 573.573 507.402 579.12C506.495 581.253 505.509 583.093 504.442 584.64C503.429 586.187 502.309 587.467 501.082 588.48C499.855 589.493 498.469 590.24 496.922 590.72C495.375 591.2 493.615 591.44 491.642 591.44C490.629 591.44 489.509 591.307 488.282 591.04C487.109 590.773 486.309 590.533 485.882 590.32L487.082 584.96Z" fill="black"/>
</svg>
