<svg width="623" height="434" viewBox="0 0 623 434" fill="none" xmlns="http://www.w3.org/2000/svg">
<path d="M93.4 91.48C90.36 91.48 87.6667 90.68 85.32 89.08C83.0267 87.48 81.24 85.32 79.96 82.6C78.68 83.4 77.2133 84.28 75.56 85.24C73.96 86.2533 72.2267 87.2667 70.36 88.28C68.5467 89.2933 66.6533 90.28 64.68 91.24C62.76 92.2533 60.8667 93.1867 59 94.04L59 87C62.84 85.4 66.52 83.64 70.04 81.72C73.56 79.8533 76.4133 78.04 78.6 76.28C78.5467 75.96 78.52 75.48 78.52 74.84C78.52 74.2533 78.52 73.8533 78.52 73.64L78.52 68.04L59 68.04L59 61.4L107.8 61.4C108.013 62.2 108.2 63.1067 108.36 64.12C108.52 65.1867 108.627 66.2533 108.68 67.32C108.787 68.44 108.867 69.5333 108.92 70.6C108.973 71.6667 109 72.6267 109 73.48C109 79.4533 107.693 83.9333 105.08 86.92C102.467 89.96 98.5733 91.48 93.4 91.48ZM103.32 74.04C103.32 72.8133 103.293 71.6133 103.24 70.44C103.24 69.32 103.187 68.52 103.08 68.04L83.96 68.04L83.96 72.28C83.96 74.2 84.0933 75.9067 84.36 77.4C84.6267 78.9467 85.1067 80.2533 85.8 81.32C86.5467 82.44 87.5333 83.2933 88.76 83.88C90.04 84.4667 91.6933 84.76 93.72 84.76C95.64 84.76 97.2133 84.4667 98.44 83.88C99.6667 83.2933 100.627 82.52 101.32 81.56C102.067 80.6 102.573 79.4533 102.84 78.12C103.16 76.84 103.32 75.48 103.32 74.04ZM97 117.72C97 122.733 95.4267 126.6 92.28 129.32C89.1867 132.04 84.4667 133.4 78.12 133.4L75.8 133.4L75.8 106.84C71.96 107.107 69.0267 108.36 67 110.6C65.0267 112.893 64.04 116.093 64.04 120.2C64.04 122.547 64.2267 124.547 64.6 126.2C64.9733 127.853 65.3733 129.107 65.8 129.96L60.2 130.84C59.7733 130.04 59.32 128.6 58.84 126.52C58.36 124.44 58.12 122.093 58.12 119.48C58.12 116.28 58.6 113.453 59.56 111C60.5733 108.6 61.9333 106.6 63.64 105C65.3467 103.4 67.3733 102.2 69.72 101.4C72.12 100.6 74.7067 100.2 77.48 100.2C80.7867 100.2 83.6667 100.707 86.12 101.72C88.5733 102.733 90.6 104.067 92.2 105.72C93.8 107.373 95 109.24 95.8 111.32C96.6 113.4 97 115.533 97 117.72ZM81.16 126.68C84.3067 126.68 86.7867 125.853 88.6 124.2C90.4667 122.547 91.4 120.36 91.4 117.64C91.4 116.093 91.1067 114.68 90.52 113.4C89.9333 112.173 89.16 111.107 88.2 110.2C87.24 109.293 86.1467 108.573 84.92 108.04C83.6933 107.507 82.44 107.16 81.16 107L81.16 126.68ZM58.12 164.04C58.12 161.693 58.44 159.747 59.08 158.2C59.72 156.653 60.68 155.427 61.96 154.52C63.24 153.613 64.8133 152.973 66.68 152.6C68.6 152.227 70.8133 152.04 73.32 152.04L108.44 152.04L108.44 141.32L114.04 141.32L114.04 158.6L73.32 158.6C71.4533 158.6 69.9333 158.707 68.76 158.92C67.5867 159.187 66.6267 159.56 65.88 160.04C65.1867 160.573 64.7067 161.213 64.44 161.96C64.1733 162.707 64.04 163.587 64.04 164.6C64.04 166.147 64.2267 167.587 64.6 168.92C64.9733 170.253 65.3733 171.293 65.8 172.04L60.2 173C60.04 172.68 59.8267 172.227 59.56 171.64C59.3467 171.053 59.1333 170.36 58.92 169.56C58.7067 168.76 58.52 167.88 58.36 166.92C58.2 166.013 58.12 165.053 58.12 164.04ZM101.88 193.72C101.88 192.333 102.36 191.133 103.32 190.12C104.28 189.107 105.587 188.6 107.24 188.6C108.893 188.6 110.2 189.107 111.16 190.12C112.12 191.133 112.6 192.333 112.6 193.72C112.6 195.16 112.12 196.36 111.16 197.32C110.2 198.333 108.893 198.84 107.24 198.84C105.587 198.84 104.28 198.333 103.32 197.32C102.36 196.36 101.88 195.16 101.88 193.72ZM90.6 192.04L90.6 181.32L96.12 181.32L96.12 198.6L73.32 198.6C69.64 198.6 67.16 199.107 65.88 200.12C64.6533 201.133 64.04 202.653 64.04 204.68C64.04 206.227 64.2267 207.64 64.6 208.92C64.9733 210.253 65.3733 211.293 65.8 212.04L60.2 213C60.04 212.68 59.8267 212.227 59.56 211.64C59.3467 211.053 59.1333 210.36 58.92 209.56C58.7067 208.813 58.52 207.96 58.36 207C58.2 206.093 58.12 205.133 58.12 204.12C58.12 201.773 58.44 199.827 59.08 198.28C59.72 196.733 60.68 195.48 61.96 194.52C63.24 193.613 64.8133 192.973 66.68 192.6C68.6 192.227 70.8133 192.04 73.32 192.04L90.6 192.04ZM62.44 244.68C62.0133 243.933 61.56 242.787 61.08 241.24C60.6 239.693 60.36 237.907 60.36 235.88C60.36 233.693 60.7067 231.64 61.4 229.72C62.1467 227.853 63.24 226.2 64.68 224.76C66.1733 223.373 68.04 222.253 70.28 221.4C72.5733 220.6 75.2667 220.2 78.36 220.2C81.08 220.2 83.56 220.573 85.8 221.32C88.0933 222.12 90.0667 223.24 91.72 224.68C93.3733 226.173 94.6533 227.987 95.56 230.12C96.52 232.253 97 234.68 97 237.4C97 240.6 96.76 243.32 96.28 245.56C95.8533 247.853 95.4267 249.773 95 251.32L61.88 251.32C56.12 251.32 51.96 249.853 49.4 246.92C46.84 244.04 45.56 239.667 45.56 233.8C45.56 231.4 45.7467 229.213 46.12 227.24C46.4933 225.32 46.9467 223.613 47.48 222.12L53.32 223.32C52.7333 224.707 52.2533 226.28 51.88 228.04C51.5067 229.853 51.32 231.827 51.32 233.96C51.32 237.8 52.0933 240.547 53.64 242.2C55.1867 243.853 57.6933 244.68 61.16 244.68L62.44 244.68ZM90.28 244.68C90.4933 244.04 90.68 243.16 90.84 242.04C91.0533 240.92 91.16 239.4 91.16 237.48C91.16 234.067 89.9867 231.453 87.64 229.64C85.2933 227.88 82.1733 227 78.28 227C76.1467 227 74.3067 227.24 72.76 227.72C71.2667 228.253 70.0133 228.947 69 229.8C68.04 230.707 67.32 231.72 66.84 232.84C66.4133 233.96 66.2 235.16 66.2 236.44C66.2 238.093 66.44 239.64 66.92 241.08C67.4 242.573 67.96 243.773 68.6 244.68L90.28 244.68ZM101.88 273.72C101.88 272.333 102.36 271.133 103.32 270.12C104.28 269.107 105.587 268.6 107.24 268.6C108.893 268.6 110.2 269.107 111.16 270.12C112.12 271.133 112.6 272.333 112.6 273.72C112.6 275.16 112.12 276.36 111.16 277.32C110.2 278.333 108.893 278.84 107.24 278.84C105.587 278.84 104.28 278.333 103.32 277.32C102.36 276.36 101.88 275.16 101.88 273.72ZM90.6 272.04L90.6 261.32L96.12 261.32L96.12 278.6L73.32 278.6C69.64 278.6 67.16 279.107 65.88 280.12C64.6533 281.133 64.04 282.653 64.04 284.68C64.04 286.227 64.2267 287.64 64.6 288.92C64.9733 290.253 65.3733 291.293 65.8 292.04L60.2 293C60.04 292.68 59.8267 292.227 59.56 291.64C59.3467 291.053 59.1333 290.36 58.92 289.56C58.7067 288.813 58.52 287.96 58.36 287C58.2 286.093 58.12 285.133 58.12 284.12C58.12 281.773 58.44 279.827 59.08 278.28C59.72 276.733 60.68 275.48 61.96 274.52C63.24 273.613 64.8133 272.973 66.68 272.6C68.6 272.227 70.8133 272.04 73.32 272.04L90.6 272.04ZM77.56 333.8C74.6267 333.8 71.96 333.373 69.56 332.52C67.2133 331.72 65.1867 330.573 63.48 329.08C61.7733 327.587 60.44 325.8 59.48 323.72C58.5733 321.64 58.12 319.373 58.12 316.92C58.12 314.52 58.5733 312.28 59.48 310.2C60.44 308.173 61.7733 306.413 63.48 304.92C65.1867 303.427 67.2133 302.253 69.56 301.4C71.96 300.6 74.6267 300.2 77.56 300.2C80.4933 300.2 83.16 300.6 85.56 301.4C87.96 302.253 89.9867 303.427 91.64 304.92C93.3467 306.413 94.6533 308.173 95.56 310.2C96.52 312.28 97 314.52 97 316.92C97 319.373 96.52 321.64 95.56 323.72C94.6533 325.8 93.3467 327.587 91.64 329.08C89.9867 330.573 87.96 331.72 85.56 332.52C83.16 333.373 80.4933 333.8 77.56 333.8ZM77.56 327C81.7733 327 85.08 326.093 87.48 324.28C89.9333 322.467 91.16 320.013 91.16 316.92C91.16 313.88 89.9333 311.453 87.48 309.64C85.08 307.88 81.7733 307 77.56 307C73.4 307 70.0933 307.88 67.64 309.64C65.24 311.453 64.04 313.88 64.04 316.92C64.04 320.013 65.24 322.467 67.64 324.28C70.0933 326.093 73.4 327 77.56 327ZM95.08 342.68C95.6667 345.08 96.12 347.453 96.44 349.8C96.76 352.2 96.92 354.44 96.92 356.52C96.92 361.48 95.64 365.213 93.08 367.72C90.52 370.28 86.4133 371.56 80.76 371.56L59 371.56L59 365L79.56 365C81.96 365 83.9067 364.787 85.4 364.36C86.8933 363.933 88.04 363.32 88.84 362.52C89.6933 361.773 90.28 360.84 90.6 359.72C90.92 358.653 91.08 357.48 91.08 356.2C91.08 355.133 91 353.987 90.84 352.76C90.7333 351.587 90.5733 350.44 90.36 349.32L59 349.32L59 342.68L95.08 342.68Z" fill="black"/>
<path d="M189.8 46C192.733 46 195.293 46.3733 197.48 47.12C199.72 47.8667 201.56 48.9333 203 50.32C204.493 51.6533 205.587 53.2533 206.28 55.12C207.027 56.9867 207.4 59.0667 207.4 61.36C207.4 66.5333 205.88 70.5333 202.84 73.36C199.8 76.1333 195.24 77.52 189.16 77.52L183.4 77.52L183.4 96L176.84 96L176.84 47.2C177.8 46.9867 178.84 46.8 179.96 46.64C181.133 46.48 182.28 46.3467 183.4 46.24C184.573 46.1333 185.693 46.08 186.76 46.08C187.88 46.0267 188.893 46 189.8 46ZM190.28 51.68C188.893 51.68 187.56 51.7067 186.28 51.76C185 51.76 184.04 51.8133 183.4 51.92L183.4 71.92L188.84 71.92C192.84 71.92 195.8 71.12 197.72 69.52C199.693 67.92 200.68 65.28 200.68 61.6C200.68 54.9867 197.213 51.68 190.28 51.68ZM239.08 86.72C239.08 85.3867 238.52 84.2933 237.4 83.44C236.333 82.5867 234.973 81.84 233.32 81.2C231.72 80.56 229.96 79.9467 228.04 79.36C226.12 78.72 224.333 77.9467 222.68 77.04C221.08 76.1333 219.72 75.0133 218.6 73.68C217.533 72.3467 217 70.6133 217 68.48C217 65.4933 218.2 63.0133 220.6 61.04C223.053 59.0133 226.867 58 232.04 58C234.067 58 236.147 58.16 238.28 58.48C240.467 58.7467 242.333 59.12 243.88 59.6L242.68 65.52C242.253 65.3067 241.667 65.0933 240.92 64.88C240.173 64.6133 239.32 64.4 238.36 64.24C237.4 64.0267 236.36 63.8667 235.24 63.76C234.173 63.6533 233.133 63.6 232.12 63.6C226.36 63.6 223.48 65.1733 223.48 68.32C223.48 69.44 224.013 70.4 225.08 71.2C226.2 71.9467 227.587 72.64 229.24 73.28C230.893 73.92 232.68 74.5867 234.6 75.28C236.52 75.92 238.307 76.72 239.96 77.68C241.613 78.64 242.973 79.8133 244.04 81.2C245.16 82.5333 245.72 84.24 245.72 86.32C245.72 89.68 244.413 92.2933 241.8 94.16C239.187 95.9733 235.053 96.88 229.4 96.88C226.84 96.88 224.493 96.6667 222.36 96.24C220.227 95.8133 218.2 95.1733 216.28 94.32L217.56 88.32C219.427 89.1733 221.373 89.8933 223.4 90.48C225.48 91.0133 227.693 91.28 230.04 91.28C236.067 91.28 239.08 89.76 239.08 86.72ZM255.08 102.96C255.56 103.227 256.227 103.44 257.08 103.6C257.987 103.76 258.813 103.84 259.56 103.84C262.173 103.84 264.2 103.253 265.64 102.08C267.133 100.96 268.493 99.0934 269.72 96.48C266.733 90.8267 263.933 84.7733 261.32 78.32C258.707 71.8133 256.547 65.3333 254.84 58.88L262.04 58.88C262.573 61.0133 263.187 63.3333 263.88 65.84C264.627 68.2933 265.453 70.8267 266.36 73.44C267.267 76.0533 268.227 78.6933 269.24 81.36C270.307 83.9734 271.427 86.48 272.6 88.88C273.453 86.4267 274.253 84 275 81.6C275.747 79.2 276.44 76.8 277.08 74.4C277.72 71.9467 278.36 69.4667 279 66.96C279.64 64.4 280.307 61.7067 281 58.88L287.88 58.88C286.173 65.8134 284.253 72.5334 282.12 79.04C280.04 85.5467 277.8 91.5734 275.4 97.12C274.493 99.2534 273.507 101.093 272.44 102.64C271.427 104.187 270.307 105.467 269.08 106.48C267.853 107.493 266.467 108.24 264.92 108.72C263.373 109.2 261.613 109.44 259.64 109.44C258.627 109.44 257.507 109.307 256.28 109.04C255.107 108.773 254.307 108.533 253.88 108.32L255.08 102.96ZM294.92 77.52C294.92 74.16 295.453 71.2534 296.52 68.8C297.587 66.3467 299.053 64.32 300.92 62.72C302.787 61.12 304.947 59.9467 307.4 59.2C309.907 58.4 312.573 58 315.4 58C317.213 58 319 58.1334 320.76 58.4C322.573 58.6134 324.493 59.04 326.52 59.68L325 65.36C323.24 64.72 321.613 64.32 320.12 64.16C318.68 63.9467 317.213 63.84 315.72 63.84C313.8 63.84 311.987 64.1067 310.28 64.64C308.573 65.12 307.08 65.92 305.8 67.04C304.573 68.1067 303.587 69.52 302.84 71.28C302.093 72.9867 301.72 75.0667 301.72 77.52C301.72 79.8667 302.067 81.8934 302.76 83.6C303.453 85.2534 304.413 86.64 305.64 87.76C306.92 88.8267 308.44 89.6267 310.2 90.16C311.96 90.6934 313.907 90.96 316.04 90.96C317.747 90.96 319.373 90.88 320.92 90.72C322.52 90.5067 324.253 90.08 326.12 89.44L327.08 94.96C325.213 95.6534 323.32 96.1334 321.4 96.4C319.48 96.72 317.4 96.88 315.16 96.88C312.173 96.88 309.427 96.48 306.92 95.68C304.467 94.8267 302.333 93.6 300.52 92C298.76 90.4 297.373 88.4 296.36 86C295.4 83.5467 294.92 80.72 294.92 77.52ZM336.68 96L336.68 41.68L343.32 40.56L343.32 59.44C344.387 59.0134 345.587 58.6934 346.92 58.48C348.253 58.2134 349.56 58.08 350.84 58.08C353.667 58.08 356.013 58.5067 357.88 59.36C359.8 60.16 361.32 61.3067 362.44 62.8C363.56 64.2934 364.36 66.08 364.84 68.16C365.32 70.24 365.56 72.5334 365.56 75.04L365.56 96L359 96L359 76.48C359 71.8934 358.36 68.6667 357.08 66.8C355.8 64.88 353.507 63.92 350.2 63.92C348.813 63.92 347.453 64.08 346.12 64.4C344.84 64.6667 343.907 64.9334 343.32 65.2L343.32 96L336.68 96ZM407.8 77.44C407.8 80.3734 407.373 83.04 406.52 85.44C405.72 87.7867 404.573 89.8134 403.08 91.52C401.587 93.2267 399.8 94.56 397.72 95.52C395.64 96.4267 393.373 96.88 390.92 96.88C388.52 96.88 386.28 96.4267 384.2 95.52C382.173 94.56 380.413 93.2267 378.92 91.52C377.427 89.8134 376.253 87.7867 375.4 85.44C374.6 83.04 374.2 80.3734 374.2 77.44C374.2 74.5067 374.6 71.84 375.4 69.44C376.253 67.04 377.427 65.0134 378.92 63.36C380.413 61.6534 382.173 60.3467 384.2 59.44C386.28 58.48 388.52 58 390.92 58C393.373 58 395.64 58.48 397.72 59.44C399.8 60.3467 401.587 61.6534 403.08 63.36C404.573 65.0134 405.72 67.04 406.52 69.44C407.373 71.84 407.8 74.5067 407.8 77.44ZM401 77.44C401 73.2267 400.093 69.92 398.28 67.52C396.467 65.0667 394.013 63.84 390.92 63.84C387.88 63.84 385.453 65.0667 383.64 67.52C381.88 69.92 381 73.2267 381 77.44C381 81.6 381.88 84.9067 383.64 87.36C385.453 89.76 387.88 90.96 390.92 90.96C394.013 90.96 396.467 89.76 398.28 87.36C400.093 84.9067 401 81.6 401 77.44ZM438.04 96.88C435.693 96.88 433.747 96.56 432.2 95.92C430.653 95.28 429.427 94.32 428.52 93.04C427.613 91.76 426.973 90.1867 426.6 88.32C426.227 86.4 426.04 84.1867 426.04 81.68L426.04 46.56L415.32 46.56L415.32 40.96L432.6 40.96L432.6 81.68C432.6 83.5467 432.707 85.0667 432.92 86.24C433.187 87.4134 433.56 88.3734 434.04 89.12C434.573 89.8134 435.213 90.2934 435.96 90.56C436.707 90.8267 437.587 90.96 438.6 90.96C440.147 90.96 441.587 90.7734 442.92 90.4C444.253 90.0267 445.293 89.6267 446.04 89.2L447 94.8C446.68 94.96 446.227 95.1734 445.64 95.44C445.053 95.6534 444.36 95.8667 443.56 96.08C442.76 96.2934 441.88 96.48 440.92 96.64C440.013 96.8 439.053 96.88 438.04 96.88ZM487.8 77.4401C487.8 80.3734 487.373 83.0401 486.52 85.4401C485.72 87.7867 484.573 89.8134 483.08 91.5201C481.587 93.2267 479.8 94.5601 477.72 95.5201C475.64 96.4267 473.373 96.8801 470.92 96.8801C468.52 96.8801 466.28 96.4267 464.2 95.5201C462.173 94.5601 460.413 93.2267 458.92 91.5201C457.427 89.8134 456.253 87.7867 455.4 85.44C454.6 83.04 454.2 80.3734 454.2 77.44C454.2 74.5067 454.6 71.84 455.4 69.44C456.253 67.04 457.427 65.0134 458.92 63.36C460.413 61.6534 462.173 60.3467 464.2 59.44C466.28 58.48 468.52 58.0001 470.92 58.0001C473.373 58.0001 475.64 58.4801 477.72 59.4401C479.8 60.3467 481.587 61.6534 483.08 63.3601C484.573 65.0134 485.72 67.0401 486.52 69.4401C487.373 71.8401 487.8 74.5067 487.8 77.4401ZM481 77.4401C481 73.2267 480.093 69.9201 478.28 67.5201C476.467 65.0667 474.013 63.8401 470.92 63.8401C467.88 63.8401 465.453 65.0667 463.64 67.5201C461.88 69.92 461 73.2267 461 77.4401C461 81.6 461.88 84.9067 463.64 87.3601C465.453 89.7601 467.88 90.9601 470.92 90.9601C474.013 90.9601 476.467 89.7601 478.28 87.3601C480.093 84.9067 481 81.6001 481 77.4401ZM518.68 92.5601C517.933 92.9867 516.787 93.4401 515.24 93.9201C513.693 94.4001 511.907 94.6401 509.88 94.6401C507.693 94.6401 505.64 94.2934 503.72 93.6001C501.853 92.8534 500.2 91.7601 498.76 90.3201C497.373 88.8267 496.253 86.9601 495.4 84.7201C494.6 82.4267 494.2 79.7334 494.2 76.6401C494.2 73.9201 494.573 71.4401 495.32 69.2001C496.12 66.9067 497.24 64.9334 498.68 63.2801C500.173 61.6267 501.987 60.3467 504.12 59.4401C506.253 58.4801 508.68 58.0001 511.4 58.0001C514.6 58.0001 517.32 58.2401 519.56 58.7201C521.853 59.1467 523.773 59.5734 525.32 60.0001L525.32 93.1201C525.32 98.8801 523.853 103.04 520.92 105.6C518.04 108.16 513.667 109.44 507.8 109.44C505.4 109.44 503.213 109.253 501.24 108.88C499.32 108.507 497.613 108.053 496.12 107.52L497.32 101.68C498.707 102.267 500.28 102.747 502.04 103.12C503.853 103.493 505.827 103.68 507.96 103.68C511.8 103.68 514.547 102.907 516.2 101.36C517.853 99.8134 518.68 97.3067 518.68 93.8401L518.68 92.5601ZM518.68 64.7201C518.04 64.5067 517.16 64.3201 516.04 64.1601C514.92 63.9467 513.4 63.8401 511.48 63.8401C508.067 63.8401 505.453 65.0134 503.64 67.3601C501.88 69.7067 501 72.8267 501 76.7201C501 78.8534 501.24 80.6934 501.72 82.2401C502.253 83.7334 502.947 84.9867 503.8 86.0001C504.707 86.9601 505.72 87.6801 506.84 88.1601C507.96 88.5867 509.16 88.8001 510.44 88.8001C512.093 88.8001 513.64 88.5601 515.08 88.0801C516.573 87.6001 517.773 87.0401 518.68 86.4001L518.68 64.7201ZM535.08 102.96C535.56 103.227 536.227 103.44 537.08 103.6C537.987 103.76 538.813 103.84 539.56 103.84C542.173 103.84 544.2 103.253 545.64 102.08C547.133 100.96 548.493 99.0934 549.72 96.4801C546.733 90.8267 543.933 84.7734 541.32 78.3201C538.707 71.8134 536.547 65.3334 534.84 58.8801L542.04 58.8801C542.573 61.0134 543.187 63.3334 543.88 65.8401C544.627 68.2934 545.453 70.8267 546.36 73.4401C547.267 76.0534 548.227 78.6934 549.24 81.3601C550.307 83.9734 551.427 86.4801 552.6 88.8801C553.453 86.4267 554.253 84.0001 555 81.6001C555.747 79.2001 556.44 76.8001 557.08 74.4001C557.72 71.9467 558.36 69.4667 559 66.9601C559.64 64.4001 560.307 61.7067 561 58.8801L567.88 58.8801C566.173 65.8134 564.253 72.5334 562.12 79.0401C560.04 85.5467 557.8 91.5734 555.4 97.1201C554.493 99.2534 553.507 101.093 552.44 102.64C551.427 104.187 550.307 105.467 549.08 106.48C547.853 107.493 546.467 108.24 544.92 108.72C543.373 109.2 541.613 109.44 539.64 109.44C538.627 109.44 537.507 109.307 536.28 109.04C535.107 108.773 534.307 108.533 533.88 108.32L535.08 102.96Z" fill="black"/>
<mask id="path-3-inside-1_687_41738" fill="white">
<path fill-rule="evenodd" clip-rule="evenodd" d="M162 6.64413e-06L10 0C4.47717 -2.41411e-07 1.83379e-05 4.47716 1.80965e-05 10L0 424C-2.41411e-07 429.523 4.47715 434 10 434H152C157.523 434 162 429.523 162 424L162 172C162 166.477 166.477 162 172 162L613 162C618.523 162 623 157.523 623 152V10.0001C623 4.47724 618.523 8.64651e-05 613 8.54995e-05L162 6.64413e-06Z"/>
</mask>
<path d="M162 6.64413e-06V-0.999993V6.64413e-06ZM162 172H161H162ZM172 162V163V162ZM162 424H163H162ZM10 0V-1V0ZM10 1L162 1.00001V-0.999993L10 -1V1ZM1 424L1.00002 10H-0.999982L-1 424H1ZM152 433H10V435H152V433ZM161 172L161 424H163L163 172H161ZM613 161L172 161V163L613 163V161ZM622 10.0001V152H624V10.0001H622ZM162 1.00001L613 1.00009V-0.999915L162 -0.999993V1.00001ZM624 10.0001C624 3.92495 619.075 -0.999913 613 -0.999915V1.00009C617.971 1.00009 622 5.02952 622 10.0001H624ZM163 172C163 167.029 167.029 163 172 163V161C165.925 161 161 165.925 161 172H163ZM152 435C158.075 435 163 430.075 163 424H161C161 428.971 156.971 433 152 433V435ZM-1 424C-1 430.075 3.92487 435 10 435V433C5.02944 433 1 428.971 1 424H-1ZM613 163C619.075 163 624 158.075 624 152H622C622 156.971 617.971 161 613 161V163ZM10 -1C3.92489 -1 -0.999982 3.92487 -0.999982 10H1.00002C1.00002 5.02944 5.02946 1 10 1V-1Z" fill="#818181" mask="url(#path-3-inside-1_687_41738)"/>
</svg>
