<svg width="533" height="384" viewBox="0 0 533 384" fill="none" xmlns="http://www.w3.org/2000/svg">
<mask id="path-1-inside-1_687_41803" fill="white">
<path fill-rule="evenodd" clip-rule="evenodd" d="M371 384L10 384C4.47715 384 3.91405e-07 379.523 8.74228e-07 374L1.32883e-05 232C1.37711e-05 226.477 4.47717 222 10 222L361 222C366.523 222 371 217.523 371 212L371 10C371 4.47715 375.477 -1.95703e-07 381 -4.37115e-07L523 -6.64413e-06C528.523 -6.88554e-06 533 4.47715 533 9.99999L533 374C533 379.523 528.523 384 523 384L371 384Z"/>
</mask>
<path d="M371 384V385V384ZM523 0V-1V0ZM371 10L372 10L371 10ZM381 6.20702e-06V-0.999994V6.20702e-06ZM361 222V223V222ZM371 212H370H371ZM10 222L10 221L10 222ZM10 384L10 385L10 384ZM371 383L10 383L10 385L371 385V383ZM1 374L1.00001 232H-0.999988L-1 374H1ZM10 223L361 223V221L10 221L10 223ZM372 212L372 10L370 10L370 212H372ZM381 1.00001L523 1V-1L381 -0.999994V1.00001ZM532 10L532 374H534L534 10L532 10ZM523 383L371 383V385L523 385V383ZM532 374C532 378.971 527.971 383 523 383V385C529.075 385 534 380.075 534 374H532ZM523 1C527.971 1 532 5.02944 532 10L534 10C534 3.92487 529.075 -1 523 -1V1ZM372 10C372 5.02944 376.029 1.00001 381 1.00001V-0.999994C374.925 -0.999994 370 3.92487 370 10L372 10ZM361 223C367.075 223 372 218.075 372 212H370C370 216.971 365.971 221 361 221V223ZM1.00001 232C1.00001 227.029 5.02945 223 10 223L10 221C3.92488 221 -0.999987 225.925 -0.999988 232H1.00001ZM10 383C5.02944 383 1 378.971 1 374H-1C-1 380.075 3.92487 385 10 385L10 383Z" fill="#818181" mask="url(#path-1-inside-1_687_41803)"/>
<path d="M85.8 327.92C83.9333 328.987 81.9333 329.76 79.8 330.24C77.72 330.773 75.48 331.04 73.08 331.04C70.1467 331.04 67.4267 330.533 64.92 329.52C62.4667 328.453 60.3333 326.88 58.52 324.8C56.7067 322.667 55.2667 319.973 54.2 316.72C53.1867 313.467 52.68 309.627 52.68 305.2C52.68 300.987 53.2133 297.28 54.28 294.08C55.4 290.88 56.8933 288.187 58.76 286C60.6267 283.813 62.8133 282.16 65.32 281.04C67.8267 279.92 70.4933 279.36 73.32 279.36C75.2933 279.36 77.2933 279.627 79.32 280.16C81.4 280.693 83.4267 281.573 85.4 282.8L83.48 288.24C79.96 286.213 76.6533 285.2 73.56 285.2C71.3733 285.2 69.4 285.68 67.64 286.64C65.9333 287.547 64.4667 288.88 63.24 290.64C62.0133 292.4 61.0533 294.507 60.36 296.96C59.72 299.413 59.4 302.16 59.4 305.2C59.4 308.613 59.7467 311.573 60.44 314.08C61.1867 316.587 62.2 318.667 63.48 320.32C64.76 321.973 66.28 323.2 68.04 324C69.8533 324.8 71.8 325.2 73.88 325.2C75.4267 325.2 77.0533 325.013 78.76 324.64C80.4667 324.213 82.2267 323.493 84.04 322.48L85.8 327.92ZM116.04 330.88C113.693 330.88 111.747 330.56 110.2 329.92C108.653 329.28 107.427 328.32 106.52 327.04C105.613 325.76 104.973 324.187 104.6 322.32C104.227 320.4 104.04 318.187 104.04 315.68L104.04 280.56L93.32 280.56L93.32 274.96L110.6 274.96L110.6 315.68C110.6 317.547 110.707 319.067 110.92 320.24C111.187 321.413 111.56 322.373 112.04 323.12C112.573 323.813 113.213 324.293 113.96 324.56C114.707 324.827 115.587 324.96 116.6 324.96C118.147 324.96 119.587 324.773 120.92 324.4C122.253 324.027 123.293 323.627 124.04 323.2L125 328.8C124.68 328.96 124.227 329.173 123.64 329.44C123.053 329.653 122.36 329.867 121.56 330.08C120.76 330.293 119.88 330.48 118.92 330.64C118.013 330.8 117.053 330.88 116.04 330.88ZM149.4 325.28C151.053 325.28 152.52 325.227 153.8 325.12C155.133 325.013 156.227 324.88 157.08 324.72L157.08 313.68C156.227 313.413 155.187 313.2 153.96 313.04C152.787 312.88 151.533 312.8 150.2 312.8C148.973 312.8 147.773 312.907 146.6 313.12C145.427 313.28 144.387 313.6 143.48 314.08C142.573 314.56 141.827 315.2 141.24 316C140.653 316.747 140.36 317.707 140.36 318.88C140.36 321.28 141.16 322.96 142.76 323.92C144.413 324.827 146.627 325.28 149.4 325.28ZM148.76 292C151.533 292 153.853 292.347 155.72 293.04C157.64 293.733 159.187 294.693 160.36 295.92C161.533 297.147 162.36 298.64 162.84 300.4C163.32 302.16 163.56 304.08 163.56 306.16L163.56 329.36C162.013 329.627 159.96 329.947 157.4 330.32C154.893 330.693 152.307 330.88 149.64 330.88C147.613 330.88 145.64 330.693 143.72 330.32C141.8 330 140.093 329.413 138.6 328.56C137.107 327.653 135.907 326.427 135 324.88C134.093 323.333 133.64 321.36 133.64 318.96C133.64 316.827 134.093 315.04 135 313.6C135.96 312.107 137.16 310.907 138.6 310C140.093 309.093 141.773 308.453 143.64 308.08C145.56 307.653 147.48 307.44 149.4 307.44C152.013 307.44 154.573 307.733 157.08 308.32L157.08 306.48C157.08 305.36 156.947 304.293 156.68 303.28C156.467 302.213 156.013 301.253 155.32 300.4C154.68 299.547 153.773 298.88 152.6 298.4C151.48 297.867 150.013 297.6 148.2 297.6C145.907 297.6 143.907 297.76 142.2 298.08C140.493 298.4 139.187 298.72 138.28 299.04L137.48 293.6C138.387 293.173 139.88 292.8 141.96 292.48C144.093 292.16 146.36 292 148.76 292ZM197.08 320.72C197.08 319.387 196.52 318.293 195.4 317.44C194.333 316.587 192.973 315.84 191.32 315.2C189.72 314.56 187.96 313.947 186.04 313.36C184.12 312.72 182.333 311.947 180.68 311.04C179.08 310.133 177.72 309.013 176.6 307.68C175.533 306.347 175 304.613 175 302.48C175 299.493 176.2 297.013 178.6 295.04C181.053 293.013 184.867 292 190.04 292C192.067 292 194.147 292.16 196.28 292.48C198.467 292.747 200.333 293.12 201.88 293.6L200.68 299.52C200.253 299.307 199.667 299.093 198.92 298.88C198.173 298.613 197.32 298.4 196.36 298.24C195.4 298.027 194.36 297.867 193.24 297.76C192.173 297.653 191.133 297.6 190.12 297.6C184.36 297.6 181.48 299.173 181.48 302.32C181.48 303.44 182.013 304.4 183.08 305.2C184.2 305.947 185.587 306.64 187.24 307.28C188.893 307.92 190.68 308.587 192.6 309.28C194.52 309.92 196.307 310.72 197.96 311.68C199.613 312.64 200.973 313.813 202.04 315.2C203.16 316.533 203.72 318.24 203.72 320.32C203.72 323.68 202.413 326.293 199.8 328.16C197.187 329.973 193.053 330.88 187.4 330.88C184.84 330.88 182.493 330.667 180.36 330.24C178.227 329.813 176.2 329.173 174.28 328.32L175.56 322.32C177.427 323.173 179.373 323.893 181.4 324.48C183.48 325.013 185.693 325.28 188.04 325.28C194.067 325.28 197.08 323.76 197.08 320.72ZM237.08 320.72C237.08 319.387 236.52 318.293 235.4 317.44C234.333 316.587 232.973 315.84 231.32 315.2C229.72 314.56 227.96 313.947 226.04 313.36C224.12 312.72 222.333 311.947 220.68 311.04C219.08 310.133 217.72 309.013 216.6 307.68C215.533 306.347 215 304.613 215 302.48C215 299.493 216.2 297.013 218.6 295.04C221.053 293.013 224.867 292 230.04 292C232.067 292 234.147 292.16 236.28 292.48C238.467 292.747 240.333 293.12 241.88 293.6L240.68 299.52C240.253 299.307 239.667 299.093 238.92 298.88C238.173 298.613 237.32 298.4 236.36 298.24C235.4 298.027 234.36 297.867 233.24 297.76C232.173 297.653 231.133 297.6 230.12 297.6C224.36 297.6 221.48 299.173 221.48 302.32C221.48 303.44 222.013 304.4 223.08 305.2C224.2 305.947 225.587 306.64 227.24 307.28C228.893 307.92 230.68 308.587 232.6 309.28C234.52 309.92 236.307 310.72 237.96 311.68C239.613 312.64 240.973 313.813 242.04 315.2C243.16 316.533 243.72 318.24 243.72 320.32C243.72 323.68 242.413 326.293 239.8 328.16C237.187 329.973 233.053 330.88 227.4 330.88C224.84 330.88 222.493 330.667 220.36 330.24C218.227 329.813 216.2 329.173 214.28 328.32L215.56 322.32C217.427 323.173 219.373 323.893 221.4 324.48C223.48 325.013 225.693 325.28 228.04 325.28C234.067 325.28 237.08 323.76 237.08 320.72ZM265.72 287.12C264.333 287.12 263.133 286.64 262.12 285.68C261.107 284.72 260.6 283.413 260.6 281.76C260.6 280.107 261.107 278.8 262.12 277.84C263.133 276.88 264.333 276.4 265.72 276.4C267.16 276.4 268.36 276.88 269.32 277.84C270.333 278.8 270.84 280.107 270.84 281.76C270.84 283.413 270.333 284.72 269.32 285.68C268.36 286.64 267.16 287.12 265.72 287.12ZM264.04 298.4L253.32 298.4L253.32 292.88L270.6 292.88L270.6 315.68C270.6 319.36 271.107 321.84 272.12 323.12C273.133 324.347 274.653 324.96 276.68 324.96C278.227 324.96 279.64 324.773 280.92 324.4C282.253 324.027 283.293 323.627 284.04 323.2L285 328.8C284.68 328.96 284.227 329.173 283.64 329.44C283.053 329.653 282.36 329.867 281.56 330.08C280.813 330.293 279.96 330.48 279 330.64C278.093 330.8 277.133 330.88 276.12 330.88C273.773 330.88 271.827 330.56 270.28 329.92C268.733 329.28 267.48 328.32 266.52 327.04C265.613 325.76 264.973 324.187 264.6 322.32C264.227 320.4 264.04 318.187 264.04 315.68L264.04 298.4ZM292.92 311.52C292.92 308.16 293.453 305.253 294.52 302.8C295.587 300.347 297.053 298.32 298.92 296.72C300.787 295.12 302.947 293.947 305.4 293.2C307.907 292.4 310.573 292 313.4 292C315.213 292 317 292.133 318.76 292.4C320.573 292.613 322.493 293.04 324.52 293.68L323 299.36C321.24 298.72 319.613 298.32 318.12 298.16C316.68 297.947 315.213 297.84 313.72 297.84C311.8 297.84 309.987 298.107 308.28 298.64C306.573 299.12 305.08 299.92 303.8 301.04C302.573 302.107 301.587 303.52 300.84 305.28C300.093 306.987 299.72 309.067 299.72 311.52C299.72 313.867 300.067 315.893 300.76 317.6C301.453 319.253 302.413 320.64 303.64 321.76C304.92 322.827 306.44 323.627 308.2 324.16C309.96 324.693 311.907 324.96 314.04 324.96C315.747 324.96 317.373 324.88 318.92 324.72C320.52 324.507 322.253 324.08 324.12 323.44L325.08 328.96C323.213 329.653 321.32 330.133 319.4 330.4C317.48 330.72 315.4 330.88 313.16 330.88C310.173 330.88 307.427 330.48 304.92 329.68C302.467 328.827 300.333 327.6 298.52 326C296.76 324.4 295.373 322.4 294.36 320C293.4 317.547 292.92 314.72 292.92 311.52ZM357.08 320.72C357.08 319.387 356.52 318.293 355.4 317.44C354.333 316.587 352.973 315.84 351.32 315.2C349.72 314.56 347.96 313.947 346.04 313.36C344.12 312.72 342.333 311.947 340.68 311.04C339.08 310.133 337.72 309.013 336.6 307.68C335.533 306.347 335 304.613 335 302.48C335 299.493 336.2 297.013 338.6 295.04C341.053 293.013 344.867 292 350.04 292C352.067 292 354.147 292.16 356.28 292.48C358.467 292.747 360.333 293.12 361.88 293.6L360.68 299.52C360.253 299.307 359.667 299.093 358.92 298.88C358.173 298.613 357.32 298.4 356.36 298.24C355.4 298.027 354.36 297.867 353.24 297.76C352.173 297.653 351.133 297.6 350.12 297.6C344.36 297.6 341.48 299.173 341.48 302.32C341.48 303.44 342.013 304.4 343.08 305.2C344.2 305.947 345.587 306.64 347.24 307.28C348.893 307.92 350.68 308.587 352.6 309.28C354.52 309.92 356.307 310.72 357.96 311.68C359.613 312.64 360.973 313.813 362.04 315.2C363.16 316.533 363.72 318.24 363.72 320.32C363.72 323.68 362.413 326.293 359.8 328.16C357.187 329.973 353.053 330.88 347.4 330.88C344.84 330.88 342.493 330.667 340.36 330.24C338.227 329.813 336.2 329.173 334.28 328.32L335.56 322.32C337.427 323.173 339.373 323.893 341.4 324.48C343.48 325.013 345.693 325.28 348.04 325.28C354.067 325.28 357.08 323.76 357.08 320.72Z" fill="black"/>
<path d="M475 336.72L425.48 336.72L425.48 308.64L431.08 308.64L431.08 330.16L446.52 330.16L446.52 311.2L452.04 311.2L452.04 330.16L475 330.16L475 336.72ZM432.12 287.28C432.12 288.667 431.64 289.867 430.68 290.88C429.72 291.893 428.413 292.4 426.76 292.4C425.107 292.4 423.8 291.893 422.84 290.88C421.88 289.867 421.4 288.667 421.4 287.28C421.4 285.84 421.88 284.64 422.84 283.68C423.8 282.667 425.107 282.16 426.76 282.16C428.413 282.16 429.72 282.667 430.68 283.68C431.64 284.64 432.12 285.84 432.12 287.28ZM443.4 288.96L443.4 299.68L437.88 299.68L437.88 282.4L460.68 282.4C464.36 282.4 466.84 281.893 468.12 280.88C469.347 279.867 469.96 278.347 469.96 276.32C469.96 274.773 469.773 273.36 469.4 272.08C469.027 270.747 468.627 269.707 468.2 268.96L473.8 268C473.96 268.32 474.173 268.773 474.44 269.36C474.653 269.947 474.867 270.64 475.08 271.44C475.293 272.187 475.48 273.04 475.64 274C475.8 274.907 475.88 275.867 475.88 276.88C475.88 279.227 475.56 281.173 474.92 282.72C474.28 284.267 473.32 285.52 472.04 286.48C470.76 287.387 469.187 288.027 467.32 288.4C465.4 288.773 463.187 288.96 460.68 288.96L443.4 288.96ZM456.52 260.08C453.16 260.08 450.253 259.547 447.8 258.48C445.347 257.413 443.32 255.947 441.72 254.08C440.12 252.213 438.947 250.053 438.2 247.6C437.4 245.093 437 242.427 437 239.6C437 237.787 437.133 236 437.4 234.24C437.613 232.427 438.04 230.507 438.68 228.48L444.36 230C443.72 231.76 443.32 233.387 443.16 234.88C442.947 236.32 442.84 237.787 442.84 239.28C442.84 241.2 443.107 243.013 443.64 244.72C444.12 246.427 444.92 247.92 446.04 249.2C447.107 250.427 448.52 251.413 450.28 252.16C451.987 252.907 454.067 253.28 456.52 253.28C458.867 253.28 460.893 252.933 462.6 252.24C464.253 251.547 465.64 250.587 466.76 249.36C467.827 248.08 468.627 246.56 469.16 244.8C469.693 243.04 469.96 241.093 469.96 238.96C469.96 237.253 469.88 235.627 469.72 234.08C469.507 232.48 469.08 230.747 468.44 228.88L473.96 227.92C474.653 229.787 475.133 231.68 475.4 233.6C475.72 235.52 475.88 237.6 475.88 239.84C475.88 242.827 475.48 245.573 474.68 248.08C473.827 250.533 472.6 252.667 471 254.48C469.4 256.24 467.4 257.627 465 258.64C462.547 259.6 459.72 260.08 456.52 260.08ZM437.88 204.56L437.88 188.88L443.4 188.88L443.4 204.56L460.68 204.56C462.547 204.56 464.067 204.427 465.24 204.16C466.413 203.893 467.373 203.467 468.12 202.88C468.813 202.24 469.293 201.44 469.56 200.48C469.827 199.52 469.96 198.347 469.96 196.96C469.96 195.04 469.8 193.493 469.48 192.32C469.16 191.147 468.733 190.027 468.2 188.96L473.8 188C474.12 188.747 474.547 189.947 475.08 191.6C475.613 193.2 475.88 195.2 475.88 197.6C475.88 200.373 475.56 202.64 474.92 204.4C474.28 206.16 473.32 207.547 472.04 208.56C470.76 209.52 469.187 210.187 467.32 210.56C465.4 210.933 463.187 211.12 460.68 211.12L443.4 211.12L443.4 218.96L437.88 218.96L437.88 211.12L427.48 211.12L426.36 204.56L437.88 204.56ZM432.12 167.28C432.12 168.667 431.64 169.867 430.68 170.88C429.72 171.893 428.413 172.4 426.76 172.4C425.107 172.4 423.8 171.893 422.84 170.88C421.88 169.867 421.4 168.667 421.4 167.28C421.4 165.84 421.88 164.64 422.84 163.68C423.8 162.667 425.107 162.16 426.76 162.16C428.413 162.16 429.72 162.667 430.68 163.68C431.64 164.64 432.12 165.84 432.12 167.28ZM443.4 168.96L443.4 179.68L437.88 179.68L437.88 162.4L460.68 162.4C464.36 162.4 466.84 161.893 468.12 160.88C469.347 159.867 469.96 158.347 469.96 156.32C469.96 154.773 469.773 153.36 469.4 152.08C469.027 150.747 468.627 149.707 468.2 148.96L473.8 148C473.96 148.32 474.173 148.773 474.44 149.36C474.653 149.947 474.867 150.64 475.08 151.44C475.293 152.187 475.48 153.04 475.64 154C475.8 154.907 475.88 155.867 475.88 156.88C475.88 159.227 475.56 161.173 474.92 162.72C474.28 164.267 473.32 165.52 472.04 166.48C470.76 167.387 469.187 168.027 467.32 168.4C465.4 168.773 463.187 168.96 460.68 168.96L443.4 168.96ZM456.44 107.2C459.373 107.2 462.04 107.627 464.44 108.48C466.787 109.28 468.813 110.427 470.52 111.92C472.227 113.413 473.56 115.2 474.52 117.28C475.427 119.36 475.88 121.627 475.88 124.08C475.88 126.48 475.427 128.72 474.52 130.8C473.56 132.827 472.227 134.587 470.52 136.08C468.813 137.573 466.787 138.747 464.44 139.6C462.04 140.4 459.373 140.8 456.44 140.8C453.507 140.8 450.84 140.4 448.44 139.6C446.04 138.747 444.013 137.573 442.36 136.08C440.653 134.587 439.347 132.827 438.44 130.8C437.48 128.72 437 126.48 437 124.08C437 121.627 437.48 119.36 438.44 117.28C439.347 115.2 440.653 113.413 442.36 111.92C444.013 110.427 446.04 109.28 448.44 108.48C450.84 107.627 453.507 107.2 456.44 107.2ZM456.44 114C452.227 114 448.92 114.907 446.52 116.72C444.067 118.533 442.84 120.987 442.84 124.08C442.84 127.12 444.067 129.547 446.52 131.36C448.92 133.12 452.227 134 456.44 134C460.6 134 463.907 133.12 466.36 131.36C468.76 129.547 469.96 127.12 469.96 124.08C469.96 120.987 468.76 118.533 466.36 116.72C463.907 114.907 460.6 114 456.44 114ZM438.92 98.32C438.333 95.92 437.88 93.5467 437.56 91.2C437.24 88.8 437.08 86.56 437.08 84.48C437.08 79.52 438.36 75.7867 440.92 73.28C443.48 70.72 447.587 69.44 453.24 69.44L475 69.44L475 76L454.44 76C452.04 76 450.093 76.2133 448.6 76.64C447.107 77.0667 445.96 77.68 445.16 78.48C444.307 79.2267 443.72 80.16 443.4 81.28C443.08 82.3467 442.92 83.52 442.92 84.8C442.92 85.8667 443 87.0133 443.16 88.24C443.267 89.4133 443.427 90.56 443.64 91.68L475 91.68L475 98.32L438.92 98.32Z" fill="black"/>
</svg>
