<svg width="1046" height="489" viewBox="0 0 1046 489" fill="none" xmlns="http://www.w3.org/2000/svg">
<mask id="path-1-inside-1_687_41856" fill="white">
<path fill-rule="evenodd" clip-rule="evenodd" d="M393 173C393 167.477 388.523 163 383 163L10 163C4.47715 163 -4.78881e-07 158.523 0 153L1.23994e-05 10C1.28783e-05 4.47715 4.47714 -4.86796e-07 9.99999 0L721 6.26692e-05C726.523 6.3156e-05 731 4.47722 731 10.0001V152C731 157.523 735.477 162 741 162L842 162H883C888.523 162 893 166.477 893 172V316C893 321.523 897.477 326 903 326L1036 326C1041.52 326 1046 330.477 1046 336V479C1046 484.523 1041.52 489 1036 489L607 489C601.477 489 597 484.523 597 479V336C597 330.477 592.523 326 587 326L418 326H403C397.477 326 393 321.523 393 316V173Z"/>
</mask>
<path d="M842 162V163V162ZM418 326V325V326ZM607 489V488V489ZM1036 489V488V489ZM1036 326V327V326ZM903 326V325V326ZM741 162V163V162ZM587 326V325V326ZM10 163V164V163ZM10 164L383 164V162L10 162V164ZM-0.999988 10L-1 153H1L1.00001 10H-0.999988ZM721 -0.999937L9.99999 -1V1L721 1.00006V-0.999937ZM732 152V10.0001H730V152H732ZM842 161L741 161V163L842 163V161ZM883 161H842V163H883V161ZM894 316V172H892V316H894ZM903 327L1036 327V325L903 325V327ZM1045 336V479H1047V336H1045ZM1036 488L607 488V490L1036 490V488ZM598 479V336H596V479H598ZM418 327L587 327V325L418 325V327ZM403 327H418V325H403V327ZM392 173V316H394V173H392ZM403 325C398.029 325 394 320.971 394 316H392C392 322.075 396.925 327 403 327V325ZM607 488C602.029 488 598 483.971 598 479H596C596 485.075 600.925 490 607 490V488ZM1045 479C1045 483.971 1040.97 488 1036 488V490C1042.08 490 1047 485.075 1047 479H1045ZM1036 327C1040.97 327 1045 331.03 1045 336H1047C1047 329.925 1042.08 325 1036 325V327ZM892 316C892 322.075 896.925 327 903 327V325C898.029 325 894 320.971 894 316H892ZM883 163C887.971 163 892 167.029 892 172H894C894 165.925 889.075 161 883 161V163ZM730 152C730 158.075 734.925 163 741 163V161C736.029 161 732 156.971 732 152H730ZM721 1.00006C725.971 1.00006 730 5.0295 730 10.0001H732C732 3.92493 727.075 -0.999937 721 -0.999937V1.00006ZM1.00001 10C1.00001 5.02943 5.02943 1 9.99999 1V-1C3.92486 -1 -0.999987 3.92487 -0.999988 10H1.00001ZM383 164C387.971 164 392 168.029 392 173H394C394 166.925 389.075 162 383 162V164ZM598 336C598 329.925 593.075 325 587 325V327C591.971 327 596 331.029 596 336H598ZM10 162C5.02944 162 1 157.971 1 153H-1C-1 159.075 3.92487 164 10 164V162Z" fill="#818181" mask="url(#path-1-inside-1_687_41856)"/>
<path d="M60.72 101.36C64.08 101.36 66.64 100.72 68.4 99.44C70.16 98.16 71.04 96.24 71.04 93.68C71.04 92.1333 70.72 90.8267 70.08 89.76C69.44 88.64 68.5867 87.68 67.52 86.88C66.4533 86.0267 65.2533 85.3067 63.92 84.72C62.5867 84.08 61.2267 83.4933 59.84 82.96C58.24 82.32 56.6933 81.6 55.2 80.8C53.76 80 52.4533 79.0667 51.28 78C50.16 76.9333 49.2533 75.68 48.56 74.24C47.92 72.8 47.6 71.0933 47.6 69.12C47.6 64.8 48.96 61.44 51.68 59.04C54.4 56.5867 58.1867 55.36 63.04 55.36C64.3733 55.36 65.68 55.4667 66.96 55.68C68.2933 55.84 69.52 56.0533 70.64 56.32C71.76 56.5867 72.7467 56.9067 73.6 57.28C74.5067 57.6533 75.2267 58.0267 75.76 58.4L73.68 63.92C72.6133 63.28 71.1467 62.64 69.28 62C67.4133 61.36 65.3333 61.04 63.04 61.04C60.64 61.04 58.56 61.6533 56.8 62.88C55.04 64.0533 54.16 65.84 54.16 68.24C54.16 69.6267 54.4 70.8 54.88 71.76C55.4133 72.72 56.1067 73.5733 56.96 74.32C57.8667 75.0133 58.9067 75.6533 60.08 76.24C61.2533 76.8267 62.5333 77.4133 63.92 78C65.9467 78.8533 67.7867 79.7067 69.44 80.56C71.1467 81.4133 72.5867 82.4267 73.76 83.6C74.9867 84.7733 75.92 86.16 76.56 87.76C77.2533 89.36 77.6 91.3067 77.6 93.6C77.6 97.92 76.1333 101.253 73.2 103.6C70.32 105.893 66.16 107.04 60.72 107.04C58.96 107.04 57.3067 106.907 55.76 106.64C54.2133 106.427 52.8267 106.133 51.6 105.76C50.4267 105.387 49.3867 105.013 48.48 104.64C47.5733 104.267 46.88 103.92 46.4 103.6L48.4 98.16C49.4667 98.7467 51.04 99.44 53.12 100.24C55.2 100.987 57.7333 101.36 60.72 101.36ZM85.92 87.52C85.92 84.16 86.4533 81.2533 87.52 78.8C88.5867 76.3467 90.0533 74.32 91.92 72.72C93.7867 71.12 95.9467 69.9467 98.4 69.2C100.907 68.4 103.573 68 106.4 68C108.213 68 110 68.1333 111.76 68.4C113.573 68.6133 115.493 69.04 117.52 69.68L116 75.36C114.24 74.72 112.613 74.32 111.12 74.16C109.68 73.9467 108.213 73.84 106.72 73.84C104.8 73.84 102.987 74.1067 101.28 74.64C99.5733 75.12 98.08 75.92 96.8 77.04C95.5733 78.1067 94.5867 79.52 93.84 81.28C93.0933 82.9867 92.72 85.0667 92.72 87.52C92.72 89.8667 93.0667 91.8933 93.76 93.6C94.4533 95.2533 95.4133 96.64 96.64 97.76C97.92 98.8267 99.44 99.6267 101.2 100.16C102.96 100.693 104.907 100.96 107.04 100.96C108.747 100.96 110.373 100.88 111.92 100.72C113.52 100.507 115.253 100.08 117.12 99.44L118.08 104.96C116.213 105.653 114.32 106.133 112.4 106.4C110.48 106.72 108.4 106.88 106.16 106.88C103.173 106.88 100.427 106.48 97.92 105.68C95.4667 104.827 93.3333 103.6 91.52 102C89.76 100.4 88.3733 98.4 87.36 96C86.4 93.5467 85.92 90.72 85.92 87.52ZM142.72 68C147.733 68 151.6 69.5733 154.32 72.72C157.04 75.8133 158.4 80.5333 158.4 86.88V89.2L131.84 89.2C132.107 93.04 133.36 95.9733 135.6 98C137.893 99.9733 141.093 100.96 145.2 100.96C147.547 100.96 149.547 100.773 151.2 100.4C152.853 100.027 154.107 99.6267 154.96 99.2L155.84 104.8C155.04 105.227 153.6 105.68 151.52 106.16C149.44 106.64 147.093 106.88 144.48 106.88C141.28 106.88 138.453 106.4 136 105.44C133.6 104.427 131.6 103.067 130 101.36C128.4 99.6533 127.2 97.6267 126.4 95.28C125.6 92.88 125.2 90.2933 125.2 87.52C125.2 84.2133 125.707 81.3333 126.72 78.88C127.733 76.4267 129.067 74.4 130.72 72.8C132.373 71.2 134.24 70 136.32 69.2C138.4 68.4 140.533 68 142.72 68ZM151.68 83.84C151.68 80.6933 150.853 78.2133 149.2 76.4C147.547 74.5333 145.36 73.6 142.64 73.6C141.093 73.6 139.68 73.8933 138.4 74.48C137.173 75.0667 136.107 75.84 135.2 76.8C134.293 77.76 133.573 78.8533 133.04 80.08C132.507 81.3067 132.16 82.56 132 83.84H151.68ZM178.72 63.12C177.333 63.12 176.133 62.64 175.12 61.68C174.107 60.72 173.6 59.4133 173.6 57.76C173.6 56.1067 174.107 54.8 175.12 53.84C176.133 52.88 177.333 52.4 178.72 52.4C180.16 52.4 181.36 52.88 182.32 53.84C183.333 54.8 183.84 56.1067 183.84 57.76C183.84 59.4133 183.333 60.72 182.32 61.68C181.36 62.64 180.16 63.12 178.72 63.12ZM177.04 74.4H166.32V68.88H183.6V91.68C183.6 95.36 184.107 97.84 185.12 99.12C186.133 100.347 187.653 100.96 189.68 100.96C191.227 100.96 192.64 100.773 193.92 100.4C195.253 100.027 196.293 99.6267 197.04 99.2L198 104.8C197.68 104.96 197.227 105.173 196.64 105.44C196.053 105.653 195.36 105.867 194.56 106.08C193.813 106.293 192.96 106.48 192 106.64C191.093 106.8 190.133 106.88 189.12 106.88C186.773 106.88 184.827 106.56 183.28 105.92C181.733 105.28 180.48 104.32 179.52 103.04C178.613 101.76 177.973 100.187 177.6 98.32C177.227 96.4 177.04 94.1867 177.04 91.68V74.4ZM222.72 68C227.733 68 231.6 69.5733 234.32 72.72C237.04 75.8133 238.4 80.5333 238.4 86.88V89.2H211.84C212.107 93.04 213.36 95.9733 215.6 98C217.893 99.9733 221.093 100.96 225.2 100.96C227.547 100.96 229.547 100.773 231.2 100.4C232.853 100.027 234.107 99.6267 234.96 99.2L235.84 104.8C235.04 105.227 233.6 105.68 231.52 106.16C229.44 106.64 227.093 106.88 224.48 106.88C221.28 106.88 218.453 106.4 216 105.44C213.6 104.427 211.6 103.067 210 101.36C208.4 99.6533 207.2 97.6267 206.4 95.28C205.6 92.88 205.2 90.2933 205.2 87.52C205.2 84.2133 205.707 81.3333 206.72 78.88C207.733 76.4267 209.067 74.4 210.72 72.8C212.373 71.2 214.24 70 216.32 69.2C218.4 68.4 220.533 68 222.72 68ZM231.68 83.84C231.68 80.6933 230.853 78.2133 229.2 76.4C227.547 74.5333 225.36 73.6 222.64 73.6C221.093 73.6 219.68 73.8933 218.4 74.48C217.173 75.0667 216.107 75.84 215.2 76.8C214.293 77.76 213.573 78.8533 213.04 80.08C212.507 81.3067 212.16 82.56 212 83.84H231.68ZM247.68 69.92C250.08 69.3333 252.453 68.88 254.8 68.56C257.2 68.24 259.44 68.08 261.52 68.08C266.48 68.08 270.213 69.36 272.72 71.92C275.28 74.48 276.56 78.5867 276.56 84.24V106H270V85.44C270 83.04 269.787 81.0933 269.36 79.6C268.933 78.1067 268.32 76.96 267.52 76.16C266.773 75.3067 265.84 74.72 264.72 74.4C263.653 74.08 262.48 73.92 261.2 73.92C260.133 73.92 258.987 74 257.76 74.16C256.587 74.2667 255.44 74.4267 254.32 74.64V106H247.68V69.92ZM285.92 87.52C285.92 84.16 286.453 81.2533 287.52 78.8C288.587 76.3467 290.053 74.32 291.92 72.72C293.787 71.12 295.947 69.9467 298.4 69.2C300.907 68.4 303.573 68 306.4 68C308.213 68 310 68.1333 311.76 68.4C313.573 68.6133 315.493 69.04 317.52 69.68L316 75.36C314.24 74.72 312.613 74.32 311.12 74.16C309.68 73.9467 308.213 73.84 306.72 73.84C304.8 73.84 302.987 74.1067 301.28 74.64C299.573 75.12 298.08 75.92 296.8 77.04C295.573 78.1067 294.587 79.52 293.84 81.28C293.093 82.9867 292.72 85.0667 292.72 87.52C292.72 89.8667 293.067 91.8933 293.76 93.6C294.453 95.2533 295.413 96.64 296.64 97.76C297.92 98.8267 299.44 99.6267 301.2 100.16C302.96 100.693 304.907 100.96 307.04 100.96C308.747 100.96 310.373 100.88 311.92 100.72C313.52 100.507 315.253 100.08 317.12 99.44L318.08 104.96C316.213 105.653 314.32 106.133 312.4 106.4C310.48 106.72 308.4 106.88 306.16 106.88C303.173 106.88 300.427 106.48 297.92 105.68C295.467 104.827 293.333 103.6 291.52 102C289.76 100.4 288.373 98.4 287.36 96C286.4 93.5467 285.92 90.72 285.92 87.52ZM342.72 68C347.733 68 351.6 69.5733 354.32 72.72C357.04 75.8133 358.4 80.5333 358.4 86.88V89.2H331.84C332.107 93.04 333.36 95.9733 335.6 98C337.893 99.9733 341.093 100.96 345.2 100.96C347.547 100.96 349.547 100.773 351.2 100.4C352.853 100.027 354.107 99.6267 354.96 99.2L355.84 104.8C355.04 105.227 353.6 105.68 351.52 106.16C349.44 106.64 347.093 106.88 344.48 106.88C341.28 106.88 338.453 106.4 336 105.44C333.6 104.427 331.6 103.067 330 101.36C328.4 99.6533 327.2 97.6267 326.4 95.28C325.6 92.88 325.2 90.2933 325.2 87.52C325.2 84.2133 325.707 81.3333 326.72 78.88C327.733 76.4267 329.067 74.4 330.72 72.8C332.373 71.2 334.24 70 336.32 69.2C338.4 68.4 340.533 68 342.72 68ZM351.68 83.84C351.68 80.6933 350.853 78.2133 349.2 76.4C347.547 74.5333 345.36 73.6 342.64 73.6C341.093 73.6 339.68 73.8933 338.4 74.48C337.173 75.0667 336.107 75.84 335.2 76.8C334.293 77.76 333.573 78.8533 333.04 80.08C332.507 81.3067 332.16 82.56 332 83.84H351.68ZM414.88 106V74.4H407.04V68.88H414.88V65.52C414.88 62.64 415.28 60.2667 416.08 58.4C416.88 56.48 417.92 54.9333 419.2 53.76C420.533 52.5867 422.053 51.76 423.76 51.28C425.52 50.8 427.36 50.56 429.28 50.56C431.2 50.56 433.12 50.7733 435.04 51.2C437.013 51.6267 438.853 52.1333 440.56 52.72L439.36 58.4C438.187 57.8133 436.72 57.3067 434.96 56.88C433.2 56.4533 431.413 56.24 429.6 56.24C428.48 56.24 427.413 56.4 426.4 56.72C425.44 56.9867 424.587 57.4933 423.84 58.24C423.093 58.9333 422.507 59.8933 422.08 61.12C421.653 62.2933 421.44 63.7867 421.44 65.6V68.88H436.4V74.4H421.44V106H414.88ZM458.72 63.12C457.333 63.12 456.133 62.64 455.12 61.68C454.107 60.72 453.6 59.4133 453.6 57.76C453.6 56.1067 454.107 54.8 455.12 53.84C456.133 52.88 457.333 52.4 458.72 52.4C460.16 52.4 461.36 52.88 462.32 53.84C463.333 54.8 463.84 56.1067 463.84 57.76C463.84 59.4133 463.333 60.72 462.32 61.68C461.36 62.64 460.16 63.12 458.72 63.12ZM457.04 74.4H446.32V68.88L463.6 68.88V91.68C463.6 95.36 464.107 97.84 465.12 99.12C466.133 100.347 467.653 100.96 469.68 100.96C471.227 100.96 472.64 100.773 473.92 100.4C475.253 100.027 476.293 99.6267 477.04 99.2L478 104.8C477.68 104.96 477.227 105.173 476.64 105.44C476.053 105.653 475.36 105.867 474.56 106.08C473.813 106.293 472.96 106.48 472 106.64C471.093 106.8 470.133 106.88 469.12 106.88C466.773 106.88 464.827 106.56 463.28 105.92C461.733 105.28 460.48 104.32 459.52 103.04C458.613 101.76 457.973 100.187 457.6 98.32C457.227 96.4 457.04 94.1867 457.04 91.68V74.4ZM485.92 87.52C485.92 84.16 486.453 81.2533 487.52 78.8C488.587 76.3467 490.053 74.32 491.92 72.72C493.787 71.12 495.947 69.9467 498.4 69.2C500.907 68.4 503.573 68 506.4 68C508.213 68 510 68.1333 511.76 68.4C513.573 68.6133 515.493 69.04 517.52 69.68L516 75.36C514.24 74.72 512.613 74.32 511.12 74.16C509.68 73.9467 508.213 73.84 506.72 73.84C504.8 73.84 502.987 74.1067 501.28 74.64C499.573 75.12 498.08 75.92 496.8 77.04C495.573 78.1067 494.587 79.52 493.84 81.28C493.093 82.9867 492.72 85.0667 492.72 87.52C492.72 89.8667 493.067 91.8933 493.76 93.6C494.453 95.2533 495.413 96.64 496.64 97.76C497.92 98.8267 499.44 99.6267 501.2 100.16C502.96 100.693 504.907 100.96 507.04 100.96C508.747 100.96 510.373 100.88 511.92 100.72C513.52 100.507 515.253 100.08 517.12 99.44L518.08 104.96C516.213 105.653 514.32 106.133 512.4 106.4C510.48 106.72 508.4 106.88 506.16 106.88C503.173 106.88 500.427 106.48 497.92 105.68C495.467 104.827 493.333 103.6 491.52 102C489.76 100.4 488.373 98.4 487.36 96C486.4 93.5467 485.92 90.72 485.92 87.52ZM541.44 68.88H557.12V74.4H541.44V91.68C541.44 93.5467 541.573 95.0667 541.84 96.24C542.107 97.4133 542.533 98.3733 543.12 99.12C543.76 99.8133 544.56 100.293 545.52 100.56C546.48 100.827 547.653 100.96 549.04 100.96C550.96 100.96 552.507 100.8 553.68 100.48C554.853 100.16 555.973 99.7333 557.04 99.2L558 104.8C557.253 105.12 556.053 105.547 554.4 106.08C552.8 106.613 550.8 106.88 548.4 106.88C545.627 106.88 543.36 106.56 541.6 105.92C539.84 105.28 538.453 104.32 537.44 103.04C536.48 101.76 535.813 100.187 535.44 98.32C535.067 96.4 534.88 94.1867 534.88 91.68V74.4H527.04V68.88H534.88V58.48L541.44 57.36V68.88ZM578.72 63.12C577.333 63.12 576.133 62.64 575.12 61.68C574.107 60.72 573.6 59.4133 573.6 57.76C573.6 56.1067 574.107 54.8 575.12 53.84C576.133 52.88 577.333 52.4 578.72 52.4C580.16 52.4 581.36 52.88 582.32 53.84C583.333 54.8 583.84 56.1067 583.84 57.76C583.84 59.4133 583.333 60.72 582.32 61.68C581.36 62.64 580.16 63.12 578.72 63.12ZM577.04 74.4H566.32V68.88H583.6V91.68C583.6 95.36 584.107 97.84 585.12 99.12C586.133 100.347 587.653 100.96 589.68 100.96C591.227 100.96 592.64 100.773 593.92 100.4C595.253 100.027 596.293 99.6267 597.04 99.2L598 104.8C597.68 104.96 597.227 105.173 596.64 105.44C596.053 105.653 595.36 105.867 594.56 106.08C593.813 106.293 592.96 106.48 592 106.64C591.093 106.8 590.133 106.88 589.12 106.88C586.773 106.88 584.827 106.56 583.28 105.92C581.733 105.28 580.48 104.32 579.52 103.04C578.613 101.76 577.973 100.187 577.6 98.32C577.227 96.4 577.04 94.1867 577.04 91.68V74.4ZM638.8 87.44C638.8 90.3733 638.373 93.04 637.52 95.44C636.72 97.7867 635.573 99.8133 634.08 101.52C632.587 103.227 630.8 104.56 628.72 105.52C626.64 106.427 624.373 106.88 621.92 106.88C619.52 106.88 617.28 106.427 615.2 105.52C613.173 104.56 611.413 103.227 609.92 101.52C608.427 99.8133 607.253 97.7867 606.4 95.44C605.6 93.04 605.2 90.3733 605.2 87.44C605.2 84.5067 605.6 81.84 606.4 79.44C607.253 77.04 608.427 75.0133 609.92 73.36C611.413 71.6533 613.173 70.3467 615.2 69.44C617.28 68.48 619.52 68 621.92 68C624.373 68 626.64 68.48 628.72 69.44C630.8 70.3467 632.587 71.6533 634.08 73.36C635.573 75.0133 636.72 77.04 637.52 79.44C638.373 81.84 638.8 84.5067 638.8 87.44ZM632 87.44C632 83.2267 631.093 79.92 629.28 77.52C627.467 75.0667 625.013 73.84 621.92 73.84C618.88 73.84 616.453 75.0667 614.64 77.52C612.88 79.92 612 83.2267 612 87.44C612 91.6 612.88 94.9067 614.64 97.36C616.453 99.76 618.88 100.96 621.92 100.96C625.013 100.96 627.467 99.76 629.28 97.36C631.093 94.9067 632 91.6 632 87.44ZM647.68 69.92C650.08 69.3333 652.453 68.88 654.8 68.56C657.2 68.24 659.44 68.08 661.52 68.08C666.48 68.08 670.213 69.36 672.72 71.92C675.28 74.48 676.56 78.5867 676.56 84.24V106H670V85.44C670 83.04 669.787 81.0933 669.36 79.6C668.933 78.1067 668.32 76.96 667.52 76.16C666.773 75.3067 665.84 74.72 664.72 74.4C663.653 74.08 662.48 73.92 661.2 73.92C660.133 73.92 658.987 74 657.76 74.16C656.587 74.2667 655.44 74.4267 654.32 74.64V106H647.68V69.92Z" fill="black"/>
<path d="M467.8 208C470.733 208 473.293 208.373 475.48 209.12C477.72 209.867 479.56 210.933 481 212.32C482.493 213.653 483.587 215.253 484.28 217.12C485.027 218.987 485.4 221.067 485.4 223.36C485.4 228.533 483.88 232.533 480.84 235.36C477.8 238.133 473.24 239.52 467.16 239.52H461.4V258H454.84V209.2C455.8 208.987 456.84 208.8 457.96 208.64C459.133 208.48 460.28 208.347 461.4 208.24C462.573 208.133 463.693 208.08 464.76 208.08C465.88 208.027 466.893 208 467.8 208ZM468.28 213.68C466.893 213.68 465.56 213.707 464.28 213.76C463 213.76 462.04 213.813 461.4 213.92V233.92H466.84C470.84 233.92 473.8 233.12 475.72 231.52C477.693 229.92 478.68 227.28 478.68 223.6C478.68 216.987 475.213 213.68 468.28 213.68ZM494.68 258V203.68L501.32 202.56V221.44C502.387 221.013 503.587 220.693 504.92 220.48C506.253 220.213 507.56 220.08 508.84 220.08C511.667 220.08 514.013 220.507 515.88 221.36C517.8 222.16 519.32 223.307 520.44 224.8C521.56 226.293 522.36 228.08 522.84 230.16C523.32 232.24 523.56 234.533 523.56 237.04V258H517V238.48C517 233.893 516.36 230.667 515.08 228.8C513.8 226.88 511.507 225.92 508.2 225.92C506.813 225.92 505.453 226.08 504.12 226.4C502.84 226.667 501.907 226.933 501.32 227.2V258H494.68ZM545.72 215.12C544.333 215.12 543.133 214.64 542.12 213.68C541.107 212.72 540.6 211.413 540.6 209.76C540.6 208.107 541.107 206.8 542.12 205.84C543.133 204.88 544.333 204.4 545.72 204.4C547.16 204.4 548.36 204.88 549.32 205.84C550.333 206.8 550.84 208.107 550.84 209.76C550.84 211.413 550.333 212.72 549.32 213.68C548.36 214.64 547.16 215.12 545.72 215.12ZM544.04 226.4H533.32V220.88H550.6V243.68C550.6 247.36 551.107 249.84 552.12 251.12C553.133 252.347 554.653 252.96 556.68 252.96C558.227 252.96 559.64 252.773 560.92 252.4C562.253 252.027 563.293 251.627 564.04 251.2L565 256.8C564.68 256.96 564.227 257.173 563.64 257.44C563.053 257.653 562.36 257.867 561.56 258.08C560.813 258.293 559.96 258.48 559 258.64C558.093 258.8 557.133 258.88 556.12 258.88C553.773 258.88 551.827 258.56 550.28 257.92C548.733 257.28 547.48 256.32 546.52 255.04C545.613 253.76 544.973 252.187 544.6 250.32C544.227 248.4 544.04 246.187 544.04 243.68V226.4ZM596.04 258.88C593.693 258.88 591.747 258.56 590.2 257.92C588.653 257.28 587.427 256.32 586.52 255.04C585.613 253.76 584.973 252.187 584.6 250.32C584.227 248.4 584.04 246.187 584.04 243.68V208.56H573.32V202.96H590.6V243.68C590.6 245.547 590.707 247.067 590.92 248.24C591.187 249.413 591.56 250.373 592.04 251.12C592.573 251.813 593.213 252.293 593.96 252.56C594.707 252.827 595.587 252.96 596.6 252.96C598.147 252.96 599.587 252.773 600.92 252.4C602.253 252.027 603.293 251.627 604.04 251.2L605 256.8C604.68 256.96 604.227 257.173 603.64 257.44C603.053 257.653 602.36 257.867 601.56 258.08C600.76 258.293 599.88 258.48 598.92 258.64C598.013 258.8 597.053 258.88 596.04 258.88ZM645.8 239.44C645.8 242.373 645.373 245.04 644.52 247.44C643.72 249.787 642.573 251.813 641.08 253.52C639.587 255.227 637.8 256.56 635.72 257.52C633.64 258.427 631.373 258.88 628.92 258.88C626.52 258.88 624.28 258.427 622.2 257.52C620.173 256.56 618.413 255.227 616.92 253.52C615.427 251.813 614.253 249.787 613.4 247.44C612.6 245.04 612.2 242.373 612.2 239.44C612.2 236.507 612.6 233.84 613.4 231.44C614.253 229.04 615.427 227.013 616.92 225.36C618.413 223.653 620.173 222.347 622.2 221.44C624.28 220.48 626.52 220 628.92 220C631.373 220 633.64 220.48 635.72 221.44C637.8 222.347 639.587 223.653 641.08 225.36C642.573 227.013 643.72 229.04 644.52 231.44C645.373 233.84 645.8 236.507 645.8 239.44ZM639 239.44C639 235.227 638.093 231.92 636.28 229.52C634.467 227.067 632.013 225.84 628.92 225.84C625.88 225.84 623.453 227.067 621.64 229.52C619.88 231.92 619 235.227 619 239.44C619 243.6 619.88 246.907 621.64 249.36C623.453 251.76 625.88 252.96 628.92 252.96C632.013 252.96 634.467 251.76 636.28 249.36C638.093 246.907 639 243.6 639 239.44ZM677.08 248.72C677.08 247.387 676.52 246.293 675.4 245.44C674.333 244.587 672.973 243.84 671.32 243.2C669.72 242.56 667.96 241.947 666.04 241.36C664.12 240.72 662.333 239.947 660.68 239.04C659.08 238.133 657.72 237.013 656.6 235.68C655.533 234.347 655 232.613 655 230.48C655 227.493 656.2 225.013 658.6 223.04C661.053 221.013 664.867 220 670.04 220C672.067 220 674.147 220.16 676.28 220.48C678.467 220.747 680.333 221.12 681.88 221.6L680.68 227.52C680.253 227.307 679.667 227.093 678.92 226.88C678.173 226.613 677.32 226.4 676.36 226.24C675.4 226.027 674.36 225.867 673.24 225.76C672.173 225.653 671.133 225.6 670.12 225.6C664.36 225.6 661.48 227.173 661.48 230.32C661.48 231.44 662.013 232.4 663.08 233.2C664.2 233.947 665.587 234.64 667.24 235.28C668.893 235.92 670.68 236.587 672.6 237.28C674.52 237.92 676.307 238.72 677.96 239.68C679.613 240.64 680.973 241.813 682.04 243.2C683.16 244.533 683.72 246.24 683.72 248.32C683.72 251.68 682.413 254.293 679.8 256.16C677.187 257.973 673.053 258.88 667.4 258.88C664.84 258.88 662.493 258.667 660.36 258.24C658.227 257.813 656.2 257.173 654.28 256.32L655.56 250.32C657.427 251.173 659.373 251.893 661.4 252.48C663.48 253.013 665.693 253.28 668.04 253.28C674.067 253.28 677.08 251.76 677.08 248.72ZM725.8 239.44C725.8 242.373 725.373 245.04 724.52 247.44C723.72 249.787 722.573 251.813 721.08 253.52C719.587 255.227 717.8 256.56 715.72 257.52C713.64 258.427 711.373 258.88 708.92 258.88C706.52 258.88 704.28 258.427 702.2 257.52C700.173 256.56 698.413 255.227 696.92 253.52C695.427 251.813 694.253 249.787 693.4 247.44C692.6 245.04 692.2 242.373 692.2 239.44C692.2 236.507 692.6 233.84 693.4 231.44C694.253 229.04 695.427 227.013 696.92 225.36C698.413 223.653 700.173 222.347 702.2 221.44C704.28 220.48 706.52 220 708.92 220C711.373 220 713.64 220.48 715.72 221.44C717.8 222.347 719.587 223.653 721.08 225.36C722.573 227.013 723.72 229.04 724.52 231.44C725.373 233.84 725.8 236.507 725.8 239.44ZM719 239.44C719 235.227 718.093 231.92 716.28 229.52C714.467 227.067 712.013 225.84 708.92 225.84C705.88 225.84 703.453 227.067 701.64 229.52C699.88 231.92 699 235.227 699 239.44C699 243.6 699.88 246.907 701.64 249.36C703.453 251.76 705.88 252.96 708.92 252.96C712.013 252.96 714.467 251.76 716.28 249.36C718.093 246.907 719 243.6 719 239.44ZM759 239.52C759 235.2 757.987 231.867 755.96 229.52C753.933 227.12 751.293 225.92 748.04 225.92C746.227 225.92 744.787 226 743.72 226.16C742.707 226.32 741.907 226.507 741.32 226.72V250.16C742.067 250.853 743.16 251.493 744.6 252.08C746.04 252.667 747.533 252.96 749.08 252.96C750.84 252.96 752.333 252.613 753.56 251.92C754.84 251.227 755.88 250.293 756.68 249.12C757.48 247.893 758.067 246.48 758.44 244.88C758.813 243.227 759 241.44 759 239.52ZM765.8 239.52C765.8 242.347 765.427 244.96 764.68 247.36C763.987 249.707 762.947 251.733 761.56 253.44C760.227 255.147 758.573 256.48 756.6 257.44C754.627 258.4 752.387 258.88 749.88 258.88C747.907 258.88 746.173 258.64 744.68 258.16C743.187 257.68 742.067 257.147 741.32 256.56V271.2H734.68V222C736.12 221.573 737.96 221.147 740.2 220.72C742.493 220.293 745.107 220.08 748.04 220.08C750.707 220.08 753.133 220.533 755.32 221.44C757.507 222.347 759.373 223.653 760.92 225.36C762.467 227.013 763.667 229.04 764.52 231.44C765.373 233.84 765.8 236.533 765.8 239.52ZM774.68 258V203.68L781.32 202.56V221.44C782.387 221.013 783.587 220.693 784.92 220.48C786.253 220.213 787.56 220.08 788.84 220.08C791.667 220.08 794.013 220.507 795.88 221.36C797.8 222.16 799.32 223.307 800.44 224.8C801.56 226.293 802.36 228.08 802.84 230.16C803.32 232.24 803.56 234.533 803.56 237.04V258H797V238.48C797 233.893 796.36 230.667 795.08 228.8C793.8 226.88 791.507 225.92 788.2 225.92C786.813 225.92 785.453 226.08 784.12 226.4C782.84 226.667 781.907 226.933 781.32 227.2V258H774.68ZM813.08 264.96C813.56 265.227 814.227 265.44 815.08 265.6C815.987 265.76 816.813 265.84 817.56 265.84C820.173 265.84 822.2 265.253 823.64 264.08C825.133 262.96 826.493 261.093 827.72 258.48C824.733 252.827 821.933 246.773 819.32 240.32C816.707 233.813 814.547 227.333 812.84 220.88H820.04C820.573 223.013 821.187 225.333 821.88 227.84C822.627 230.293 823.453 232.827 824.36 235.44C825.267 238.053 826.227 240.693 827.24 243.36C828.307 245.973 829.427 248.48 830.6 250.88C831.453 248.427 832.253 246 833 243.6C833.747 241.2 834.44 238.8 835.08 236.4C835.72 233.947 836.36 231.467 837 228.96C837.64 226.4 838.307 223.707 839 220.88H845.88C844.173 227.813 842.253 234.533 840.12 241.04C838.04 247.547 835.8 253.573 833.4 259.12C832.493 261.253 831.507 263.093 830.44 264.64C829.427 266.187 828.307 267.467 827.08 268.48C825.853 269.493 824.467 270.24 822.92 270.72C821.373 271.2 819.613 271.44 817.64 271.44C816.627 271.44 815.507 271.307 814.28 271.04C813.107 270.773 812.307 270.533 811.88 270.32L813.08 264.96Z" fill="black"/>
<path d="M651.72 427.36C655.08 427.36 657.64 426.72 659.4 425.44C661.16 424.16 662.04 422.24 662.04 419.68C662.04 418.133 661.72 416.827 661.08 415.76C660.44 414.64 659.587 413.68 658.52 412.88C657.453 412.027 656.253 411.307 654.92 410.72C653.587 410.08 652.227 409.493 650.84 408.96C649.24 408.32 647.693 407.6 646.2 406.8C644.76 406 643.453 405.067 642.28 404C641.16 402.933 640.253 401.68 639.56 400.24C638.92 398.8 638.6 397.093 638.6 395.12C638.6 390.8 639.96 387.44 642.68 385.04C645.4 382.587 649.187 381.36 654.04 381.36C655.373 381.36 656.68 381.467 657.96 381.68C659.293 381.84 660.52 382.053 661.64 382.32C662.76 382.587 663.747 382.907 664.6 383.28C665.507 383.653 666.227 384.027 666.76 384.4L664.68 389.92C663.613 389.28 662.147 388.64 660.28 388C658.413 387.36 656.333 387.04 654.04 387.04C651.64 387.04 649.56 387.653 647.8 388.88C646.04 390.053 645.16 391.84 645.16 394.24C645.16 395.627 645.4 396.8 645.88 397.76C646.413 398.72 647.107 399.573 647.96 400.32C648.867 401.013 649.907 401.653 651.08 402.24C652.253 402.827 653.533 403.413 654.92 404C656.947 404.853 658.787 405.707 660.44 406.56C662.147 407.413 663.587 408.427 664.76 409.6C665.987 410.773 666.92 412.16 667.56 413.76C668.253 415.36 668.6 417.307 668.6 419.6C668.6 423.92 667.133 427.253 664.2 429.6C661.32 431.893 657.16 433.04 651.72 433.04C649.96 433.04 648.307 432.907 646.76 432.64C645.213 432.427 643.827 432.133 642.6 431.76C641.427 431.387 640.387 431.013 639.48 430.64C638.573 430.267 637.88 429.92 637.4 429.6L639.4 424.16C640.467 424.747 642.04 425.44 644.12 426.24C646.2 426.987 648.733 427.36 651.72 427.36ZM709.8 413.44C709.8 416.373 709.373 419.04 708.52 421.44C707.72 423.787 706.573 425.813 705.08 427.52C703.587 429.227 701.8 430.56 699.72 431.52C697.64 432.427 695.373 432.88 692.92 432.88C690.52 432.88 688.28 432.427 686.2 431.52C684.173 430.56 682.413 429.227 680.92 427.52C679.427 425.813 678.253 423.787 677.4 421.44C676.6 419.04 676.2 416.373 676.2 413.44C676.2 410.507 676.6 407.84 677.4 405.44C678.253 403.04 679.427 401.013 680.92 399.36C682.413 397.653 684.173 396.347 686.2 395.44C688.28 394.48 690.52 394 692.92 394C695.373 394 697.64 394.48 699.72 395.44C701.8 396.347 703.587 397.653 705.08 399.36C706.573 401.013 707.72 403.04 708.52 405.44C709.373 407.84 709.8 410.507 709.8 413.44ZM703 413.44C703 409.227 702.093 405.92 700.28 403.52C698.467 401.067 696.013 399.84 692.92 399.84C689.88 399.84 687.453 401.067 685.64 403.52C683.88 405.92 683 409.227 683 413.44C683 417.6 683.88 420.907 685.64 423.36C687.453 425.76 689.88 426.96 692.92 426.96C696.013 426.96 698.467 425.76 700.28 423.36C702.093 420.907 703 417.6 703 413.44ZM716.92 413.52C716.92 410.16 717.453 407.253 718.52 404.8C719.587 402.347 721.053 400.32 722.92 398.72C724.787 397.12 726.947 395.947 729.4 395.2C731.907 394.4 734.573 394 737.4 394C739.213 394 741 394.133 742.76 394.4C744.573 394.613 746.493 395.04 748.52 395.68L747 401.36C745.24 400.72 743.613 400.32 742.12 400.16C740.68 399.947 739.213 399.84 737.72 399.84C735.8 399.84 733.987 400.107 732.28 400.64C730.573 401.12 729.08 401.92 727.8 403.04C726.573 404.107 725.587 405.52 724.84 407.28C724.093 408.987 723.72 411.067 723.72 413.52C723.72 415.867 724.067 417.893 724.76 419.6C725.453 421.253 726.413 422.64 727.64 423.76C728.92 424.827 730.44 425.627 732.2 426.16C733.96 426.693 735.907 426.96 738.04 426.96C739.747 426.96 741.373 426.88 742.92 426.72C744.52 426.507 746.253 426.08 748.12 425.44L749.08 430.96C747.213 431.653 745.32 432.133 743.4 432.4C741.48 432.72 739.4 432.88 737.16 432.88C734.173 432.88 731.427 432.48 728.92 431.68C726.467 430.827 724.333 429.6 722.52 428C720.76 426.4 719.373 424.4 718.36 422C717.4 419.547 716.92 416.72 716.92 413.52ZM769.72 389.12C768.333 389.12 767.133 388.64 766.12 387.68C765.107 386.72 764.6 385.413 764.6 383.76C764.6 382.107 765.107 380.8 766.12 379.84C767.133 378.88 768.333 378.4 769.72 378.4C771.16 378.4 772.36 378.88 773.32 379.84C774.333 380.8 774.84 382.107 774.84 383.76C774.84 385.413 774.333 386.72 773.32 387.68C772.36 388.64 771.16 389.12 769.72 389.12ZM768.04 400.4H757.32V394.88H774.6V417.68C774.6 421.36 775.107 423.84 776.12 425.12C777.133 426.347 778.653 426.96 780.68 426.96C782.227 426.96 783.64 426.773 784.92 426.4C786.253 426.027 787.293 425.627 788.04 425.2L789 430.8C788.68 430.96 788.227 431.173 787.64 431.44C787.053 431.653 786.36 431.867 785.56 432.08C784.813 432.293 783.96 432.48 783 432.64C782.093 432.8 781.133 432.88 780.12 432.88C777.773 432.88 775.827 432.56 774.28 431.92C772.733 431.28 771.48 430.32 770.52 429.04C769.613 427.76 768.973 426.187 768.6 424.32C768.227 422.4 768.04 420.187 768.04 417.68V400.4ZM829.8 413.44C829.8 416.373 829.373 419.04 828.52 421.44C827.72 423.787 826.573 425.813 825.08 427.52C823.587 429.227 821.8 430.56 819.72 431.52C817.64 432.427 815.373 432.88 812.92 432.88C810.52 432.88 808.28 432.427 806.2 431.52C804.173 430.56 802.413 429.227 800.92 427.52C799.427 425.813 798.253 423.787 797.4 421.44C796.6 419.04 796.2 416.373 796.2 413.44C796.2 410.507 796.6 407.84 797.4 405.44C798.253 403.04 799.427 401.013 800.92 399.36C802.413 397.653 804.173 396.347 806.2 395.44C808.28 394.48 810.52 394 812.92 394C815.373 394 817.64 394.48 819.72 395.44C821.8 396.347 823.587 397.653 825.08 399.36C826.573 401.013 827.72 403.04 828.52 405.44C829.373 407.84 829.8 410.507 829.8 413.44ZM823 413.44C823 409.227 822.093 405.92 820.28 403.52C818.467 401.067 816.013 399.84 812.92 399.84C809.88 399.84 807.453 401.067 805.64 403.52C803.88 405.92 803 409.227 803 413.44C803 417.6 803.88 420.907 805.64 423.36C807.453 425.76 809.88 426.96 812.92 426.96C816.013 426.96 818.467 425.76 820.28 423.36C822.093 420.907 823 417.6 823 413.44ZM860.04 432.88C857.693 432.88 855.747 432.56 854.2 431.92C852.653 431.28 851.427 430.32 850.52 429.04C849.613 427.76 848.973 426.187 848.6 424.32C848.227 422.4 848.04 420.187 848.04 417.68V382.56H837.32V376.96H854.6V417.68C854.6 419.547 854.707 421.067 854.92 422.24C855.187 423.413 855.56 424.373 856.04 425.12C856.573 425.813 857.213 426.293 857.96 426.56C858.707 426.827 859.587 426.96 860.6 426.96C862.147 426.96 863.587 426.773 864.92 426.4C866.253 426.027 867.293 425.627 868.04 425.2L869 430.8C868.68 430.96 868.227 431.173 867.64 431.44C867.053 431.653 866.36 431.867 865.56 432.08C864.76 432.293 863.88 432.48 862.92 432.64C862.013 432.8 861.053 432.88 860.04 432.88ZM909.8 413.44C909.8 416.373 909.373 419.04 908.52 421.44C907.72 423.787 906.573 425.813 905.08 427.52C903.587 429.227 901.8 430.56 899.72 431.52C897.64 432.427 895.373 432.88 892.92 432.88C890.52 432.88 888.28 432.427 886.2 431.52C884.173 430.56 882.413 429.227 880.92 427.52C879.427 425.813 878.253 423.787 877.4 421.44C876.6 419.04 876.2 416.373 876.2 413.44C876.2 410.507 876.6 407.84 877.4 405.44C878.253 403.04 879.427 401.013 880.92 399.36C882.413 397.653 884.173 396.347 886.2 395.44C888.28 394.48 890.52 394 892.92 394C895.373 394 897.64 394.48 899.72 395.44C901.8 396.347 903.587 397.653 905.08 399.36C906.573 401.013 907.72 403.04 908.52 405.44C909.373 407.84 909.8 410.507 909.8 413.44ZM903 413.44C903 409.227 902.093 405.92 900.28 403.52C898.467 401.067 896.013 399.84 892.92 399.84C889.88 399.84 887.453 401.067 885.64 403.52C883.88 405.92 883 409.227 883 413.44C883 417.6 883.88 420.907 885.64 423.36C887.453 425.76 889.88 426.96 892.92 426.96C896.013 426.96 898.467 425.76 900.28 423.36C902.093 420.907 903 417.6 903 413.44ZM940.68 428.56C939.933 428.987 938.787 429.44 937.24 429.92C935.693 430.4 933.907 430.64 931.88 430.64C929.693 430.64 927.64 430.293 925.72 429.6C923.853 428.853 922.2 427.76 920.76 426.32C919.373 424.827 918.253 422.96 917.4 420.72C916.6 418.427 916.2 415.733 916.2 412.64C916.2 409.92 916.573 407.44 917.32 405.2C918.12 402.907 919.24 400.933 920.68 399.28C922.173 397.627 923.987 396.347 926.12 395.44C928.253 394.48 930.68 394 933.4 394C936.6 394 939.32 394.24 941.56 394.72C943.853 395.147 945.773 395.573 947.32 396V429.12C947.32 434.88 945.853 439.04 942.92 441.6C940.04 444.16 935.667 445.44 929.8 445.44C927.4 445.44 925.213 445.253 923.24 444.88C921.32 444.507 919.613 444.053 918.12 443.52L919.32 437.68C920.707 438.267 922.28 438.747 924.04 439.12C925.853 439.493 927.827 439.68 929.96 439.68C933.8 439.68 936.547 438.907 938.2 437.36C939.853 435.813 940.68 433.307 940.68 429.84V428.56ZM940.68 400.72C940.04 400.507 939.16 400.32 938.04 400.16C936.92 399.947 935.4 399.84 933.48 399.84C930.067 399.84 927.453 401.013 925.64 403.36C923.88 405.707 923 408.827 923 412.72C923 414.853 923.24 416.693 923.72 418.24C924.253 419.733 924.947 420.987 925.8 422C926.707 422.96 927.72 423.68 928.84 424.16C929.96 424.587 931.16 424.8 932.44 424.8C934.093 424.8 935.64 424.56 937.08 424.08C938.573 423.6 939.773 423.04 940.68 422.4V400.72ZM957.08 438.96C957.56 439.227 958.227 439.44 959.08 439.6C959.987 439.76 960.813 439.84 961.56 439.84C964.173 439.84 966.2 439.253 967.64 438.08C969.133 436.96 970.493 435.093 971.72 432.48C968.733 426.827 965.933 420.773 963.32 414.32C960.707 407.813 958.547 401.333 956.84 394.88H964.04C964.573 397.013 965.187 399.333 965.88 401.84C966.627 404.293 967.453 406.827 968.36 409.44C969.267 412.053 970.227 414.693 971.24 417.36C972.307 419.973 973.427 422.48 974.6 424.88C975.453 422.427 976.253 420 977 417.6C977.747 415.2 978.44 412.8 979.08 410.4C979.72 407.947 980.36 405.467 981 402.96C981.64 400.4 982.307 397.707 983 394.88H989.88C988.173 401.813 986.253 408.533 984.12 415.04C982.04 421.547 979.8 427.573 977.4 433.12C976.493 435.253 975.507 437.093 974.44 438.64C973.427 440.187 972.307 441.467 971.08 442.48C969.853 443.493 968.467 444.24 966.92 444.72C965.373 445.2 963.613 445.44 961.64 445.44C960.627 445.44 959.507 445.307 958.28 445.04C957.107 444.773 956.307 444.533 955.88 444.32L957.08 438.96Z" fill="black"/>
</svg>
