<svg width="430" height="381" viewBox="0 0 430 381" fill="none" xmlns="http://www.w3.org/2000/svg" id="block-1">
<mask id="path-1-inside-1_687_41723" fill="white">
<path fill-rule="evenodd" clip-rule="evenodd" d="M430 152V152.016L430 219V371.056C430 376.548 425.548 381 420.056 381V381C420.037 381 420.019 381 420 381H278C277.981 381 277.961 381 277.942 381L9.99999 381C4.47714 381 3.91405e-07 376.523 8.74228e-07 371L1.32883e-05 229C1.37711e-05 223.477 4.47716 219 10 219L258 219C263.523 219 268 214.523 268 209V172C268 166.477 263.523 162 258 162H219C213.477 162 209 157.523 209 152L209 10C209 4.47715 213.477 -3.67024e-06 219 -3.18742e-06L420 1.43846e-05C422.956 1.4643e-05 425.612 1.28238 427.443 3.32111C429.033 5.09176 430 7.43293 430 10V152Z"/>
</mask>
<path d="M430 152.016H429H430ZM430 219H431H430ZM277.942 381L277.949 380H277.942V381ZM209 152H208H209ZM209 10H210H209ZM219 0V1V0ZM420 1.7572e-05V-0.999982V1.7572e-05ZM427.48 3.36281L428.228 2.69882V2.69882L427.48 3.36281ZM258 219V218V219ZM10 219V220V219ZM9.99999 381V380V381ZM431 152.016V152H429V152.016H431ZM431 219L431 152.016H429L429 219H431ZM429 219V371.056H431V219H429ZM420 382C420.021 382 420.041 382 420.061 382L420.051 380C420.033 380 420.016 380 420 380V382ZM278 382H420V380H278V382ZM277.936 382C277.958 382 277.98 382 278 382V380C277.982 380 277.965 380 277.949 380L277.936 382ZM277.942 380L9.99999 380V382L277.942 382V380ZM1 371L1.00001 229H-0.999988L-1 371H1ZM10 220L258 220V218L10 218V220ZM267 172V209H269V172H267ZM219 163H258V161H219V163ZM208 152C208 158.075 212.925 163 219 163V161C214.029 161 210 156.971 210 152H208ZM208 10L208 152H210L210 10H208ZM219 -1C212.925 -1 208 3.92487 208 10H210C210 5.02944 214.029 1 219 1V-1ZM420 -0.999982L219 -1V1L420 1.00002V-0.999982ZM428.228 2.69882C426.214 0.431241 423.274 -0.999982 420 -0.999982V1.00002C422.678 1.00002 425.082 2.16853 426.732 4.02679L428.228 2.69882ZM431 10C431 7.19899 429.952 4.64038 428.228 2.69882L426.732 4.02679C428.144 5.61648 429 7.70706 429 10H431ZM431 152V10H429V152H431ZM269 172C269 165.925 264.075 161 258 161V163C262.971 163 267 167.029 267 172H269ZM258 220C264.075 220 269 215.075 269 209H267C267 213.971 262.971 218 258 218V220ZM1.00001 229C1.00001 224.029 5.02945 220 10 220V218C3.92488 218 -0.999987 222.925 -0.999988 229H1.00001ZM9.99999 380C5.02943 380 1 375.971 1 371H-1C-1 377.075 3.92486 382 9.99999 382V380ZM429 371.056C429 375.996 424.996 380 420.056 380V382C426.1 382 431 377.1 431 371.056H429Z" fill="#818181" mask="url(#path-1-inside-1_687_41723)"/>
<path d="M289.32 102L286.36 89.04H267.32L264.44 102H257.72C258.627 98.48 259.64 94.6667 260.76 90.56C261.88 86.4533 263.08 82.24 264.36 77.92C265.693 73.6 267.08 69.28 268.52 64.96C269.96 60.5867 271.48 56.4267 273.08 52.48H281.24C282.787 56.4267 284.253 60.5867 285.64 64.96C287.08 69.28 288.413 73.6 289.64 77.92C290.92 82.24 292.12 86.4533 293.24 90.56C294.36 94.6667 295.373 98.48 296.28 102H289.32ZM276.92 58.24C275.693 61.6 274.36 65.4933 272.92 69.92C271.48 74.3467 270.12 78.9067 268.84 83.6H284.84C283.613 78.8 282.28 74.1867 280.84 69.76C279.453 65.28 278.147 61.44 276.92 58.24ZM305.56 102V66.88C311 65.0133 316.493 64.08 322.04 64.08C323.747 64.08 325.373 64.16 326.92 64.32C328.467 64.4267 330.173 64.6933 332.04 65.12L330.84 70.96C329.133 70.48 327.613 70.1867 326.28 70.08C325 69.92 323.587 69.84 322.04 69.84C318.787 69.84 315.48 70.2933 312.12 71.2V102H305.56ZM356.44 64.88H372.12V70.4H356.44V87.68C356.44 89.5467 356.573 91.0667 356.84 92.24C357.107 93.4133 357.533 94.3733 358.12 95.12C358.76 95.8133 359.56 96.2933 360.52 96.56C361.48 96.8267 362.653 96.96 364.04 96.96C365.96 96.96 367.507 96.8 368.68 96.48C369.853 96.16 370.973 95.7333 372.04 95.2L373 100.8C372.253 101.12 371.053 101.547 369.4 102.08C367.8 102.613 365.8 102.88 363.4 102.88C360.627 102.88 358.36 102.56 356.6 101.92C354.84 101.28 353.453 100.32 352.44 99.04C351.48 97.76 350.813 96.1867 350.44 94.32C350.067 92.4 349.88 90.1867 349.88 87.68V70.4H342.04V64.88H349.88V54.48L356.44 53.36V64.88Z" fill="black"/>
<path d="M355.88 159.08L380.52 166.76L380.52 172.92C372.733 173.987 364.76 174.733 356.6 175.16C348.44 175.64 339.907 176.067 331 176.44L331 170.04C333.88 169.987 337 169.933 340.36 169.88C343.72 169.827 347.187 169.747 350.76 169.64C354.333 169.587 357.96 169.507 361.64 169.4C365.32 169.347 368.893 169.267 372.36 169.16L349.8 161.96L349.8 156.2L372.36 148.84C368.893 148.787 365.32 148.707 361.64 148.6C358.013 148.547 354.387 148.467 350.76 148.36C347.187 148.307 343.72 148.227 340.36 148.12C337 148.067 333.88 148.013 331 147.96L331 141.56C335.053 141.72 339.213 141.907 343.48 142.12C347.747 142.333 351.987 142.573 356.2 142.84C360.413 143.16 364.573 143.507 368.68 143.88C372.787 144.307 376.733 144.76 380.52 145.24L380.52 151.32L355.88 159.08ZM349.56 215.8C346.627 215.8 343.96 215.373 341.56 214.52C339.213 213.72 337.187 212.573 335.48 211.08C333.773 209.587 332.44 207.8 331.48 205.72C330.573 203.64 330.12 201.373 330.12 198.92C330.12 196.52 330.573 194.28 331.48 192.2C332.44 190.173 333.773 188.413 335.48 186.92C337.187 185.427 339.213 184.253 341.56 183.4C343.96 182.6 346.627 182.2 349.56 182.2C352.493 182.2 355.16 182.6 357.56 183.4C359.96 184.253 361.987 185.427 363.64 186.92C365.347 188.413 366.653 190.173 367.56 192.2C368.52 194.28 369 196.52 369 198.92C369 201.373 368.52 203.64 367.56 205.72C366.653 207.8 365.347 209.587 363.64 211.08C361.987 212.573 359.96 213.72 357.56 214.52C355.16 215.373 352.493 215.8 349.56 215.8ZM349.56 209C353.773 209 357.08 208.093 359.48 206.28C361.933 204.467 363.16 202.013 363.16 198.92C363.16 195.88 361.933 193.453 359.48 191.64C357.08 189.88 353.773 189 349.56 189C345.4 189 342.093 189.88 339.64 191.64C337.24 193.453 336.04 195.88 336.04 198.92C336.04 202.013 337.24 204.467 339.64 206.28C342.093 208.093 345.4 209 349.56 209ZM368.12 256.6C364.653 255.64 361.24 254.547 357.88 253.32C354.573 252.093 351.32 250.84 348.12 249.56C344.973 248.28 341.96 246.973 339.08 245.64C336.2 244.307 333.507 243.027 331 241.8L331 235.8C336.013 233.293 341.72 230.76 348.12 228.2C354.52 225.64 361.187 223.373 368.12 221.4L368.12 228.6C365.773 229.24 363.293 229.96 360.68 230.76C358.067 231.613 355.453 232.493 352.84 233.4C350.227 234.307 347.693 235.213 345.24 236.12C342.84 237.08 340.68 238.013 338.76 238.92C340.68 239.827 342.84 240.76 345.24 241.72C347.693 242.733 350.227 243.72 352.84 244.68C355.453 245.64 358.067 246.547 360.68 247.4C363.293 248.307 365.773 249.08 368.12 249.72L368.12 256.6ZM373.88 275.72C373.88 274.333 374.36 273.133 375.32 272.12C376.28 271.107 377.587 270.6 379.24 270.6C380.893 270.6 382.2 271.107 383.16 272.12C384.12 273.133 384.6 274.333 384.6 275.72C384.6 277.16 384.12 278.36 383.16 279.32C382.2 280.333 380.893 280.84 379.24 280.84C377.587 280.84 376.28 280.333 375.32 279.32C374.36 278.36 373.88 277.16 373.88 275.72ZM362.6 274.04L362.6 263.32L368.12 263.32L368.12 280.6L345.32 280.6C341.64 280.6 339.16 281.107 337.88 282.12C336.653 283.133 336.04 284.653 336.04 286.68C336.04 288.227 336.227 289.64 336.6 290.92C336.973 292.253 337.373 293.293 337.8 294.04L332.2 295C332.04 294.68 331.827 294.227 331.56 293.64C331.347 293.053 331.133 292.36 330.92 291.56C330.707 290.813 330.52 289.96 330.36 289C330.2 288.093 330.12 287.133 330.12 286.12C330.12 283.773 330.44 281.827 331.08 280.28C331.72 278.733 332.68 277.48 333.96 276.52C335.24 275.613 336.813 274.973 338.68 274.6C340.6 274.227 342.813 274.04 345.32 274.04L362.6 274.04ZM369 319.72C369 324.733 367.427 328.6 364.28 331.32C361.187 334.04 356.467 335.4 350.12 335.4L347.8 335.4L347.8 308.84C343.96 309.107 341.027 310.36 339 312.6C337.027 314.893 336.04 318.093 336.04 322.2C336.04 324.547 336.227 326.547 336.6 328.2C336.973 329.853 337.373 331.107 337.8 331.96L332.2 332.84C331.773 332.04 331.32 330.6 330.84 328.52C330.36 326.44 330.12 324.093 330.12 321.48C330.12 318.28 330.6 315.453 331.56 313C332.573 310.6 333.933 308.6 335.64 307C337.347 305.4 339.373 304.2 341.72 303.4C344.12 302.6 346.707 302.2 349.48 302.2C352.787 302.2 355.667 302.707 358.12 303.72C360.573 304.733 362.6 306.067 364.2 307.72C365.8 309.373 367 311.24 367.8 313.32C368.6 315.4 369 317.533 369 319.72ZM353.16 328.68C356.307 328.68 358.787 327.853 360.6 326.2C362.467 324.547 363.4 322.36 363.4 319.64C363.4 318.093 363.107 316.68 362.52 315.4C361.933 314.173 361.16 313.107 360.2 312.2C359.24 311.293 358.147 310.573 356.92 310.04C355.693 309.507 354.44 309.16 353.16 309L353.16 328.68Z" fill="black"/>
<path d="M71.8 300.2C71.8 304.787 71.2133 308.68 70.04 311.88C68.92 315.08 67.3467 317.693 65.32 319.72C63.3467 321.693 60.9733 323.133 58.2 324.04C55.48 324.947 52.52 325.4 49.32 325.4C46.0133 325.4 42.68 325 39.32 324.2L39.32 276.2C42.68 275.4 46.0133 275 49.32 275C52.52 275 55.48 275.453 58.2 276.36C60.9733 277.267 63.3467 278.733 65.32 280.76C67.3467 282.787 68.92 285.4 70.04 288.6C71.2133 291.8 71.8 295.667 71.8 300.2ZM45.88 319.48C47.2133 319.64 48.5733 319.72 49.96 319.72C52.36 319.72 54.4933 319.373 56.36 318.68C58.2267 317.933 59.8 316.787 61.08 315.24C62.36 313.64 63.3467 311.613 64.04 309.16C64.7333 306.653 65.08 303.667 65.08 300.2C65.08 293.48 63.7733 288.547 61.16 285.4C58.6 282.253 54.7867 280.68 49.72 280.68C49.0267 280.68 48.3333 280.707 47.64 280.76C47 280.76 46.4133 280.813 45.88 280.92L45.88 319.48ZM95.72 287C100.733 287 104.6 288.573 107.32 291.72C110.04 294.813 111.4 299.533 111.4 305.88L111.4 308.2L84.84 308.2C85.1067 312.04 86.36 314.973 88.6 317C90.8933 318.973 94.0933 319.96 98.2 319.96C100.547 319.96 102.547 319.773 104.2 319.4C105.853 319.027 107.107 318.627 107.96 318.2L108.84 323.8C108.04 324.227 106.6 324.68 104.52 325.16C102.44 325.64 100.093 325.88 97.48 325.88C94.28 325.88 91.4533 325.4 89 324.44C86.6 323.427 84.6 322.067 83 320.36C81.4 318.653 80.2 316.627 79.4 314.28C78.6 311.88 78.2 309.293 78.2 306.52C78.2 303.213 78.7067 300.333 79.72 297.88C80.7333 295.427 82.0667 293.4 83.72 291.8C85.3733 290.2 87.24 289 89.32 288.2C91.4 287.4 93.5333 287 95.72 287ZM104.68 302.84C104.68 299.693 103.853 297.213 102.2 295.4C100.547 293.533 98.36 292.6 95.64 292.6C94.0933 292.6 92.68 292.893 91.4 293.48C90.1733 294.067 89.1067 294.84 88.2 295.8C87.2933 296.76 86.5733 297.853 86.04 299.08C85.5067 300.307 85.16 301.56 85 302.84L104.68 302.84ZM143.08 315.72C143.08 314.387 142.52 313.293 141.4 312.44C140.333 311.587 138.973 310.84 137.32 310.2C135.72 309.56 133.96 308.947 132.04 308.36C130.12 307.72 128.333 306.947 126.68 306.04C125.08 305.133 123.72 304.013 122.6 302.68C121.533 301.347 121 299.613 121 297.48C121 294.493 122.2 292.013 124.6 290.04C127.053 288.013 130.867 287 136.04 287C138.067 287 140.147 287.16 142.28 287.48C144.467 287.747 146.333 288.12 147.88 288.6L146.68 294.52C146.253 294.307 145.667 294.093 144.92 293.88C144.173 293.613 143.32 293.4 142.36 293.24C141.4 293.027 140.36 292.867 139.24 292.76C138.173 292.653 137.133 292.6 136.12 292.6C130.36 292.6 127.48 294.173 127.48 297.32C127.48 298.44 128.013 299.4 129.08 300.2C130.2 300.947 131.587 301.64 133.24 302.28C134.893 302.92 136.68 303.587 138.6 304.28C140.52 304.92 142.307 305.72 143.96 306.68C145.613 307.64 146.973 308.813 148.04 310.2C149.16 311.533 149.72 313.24 149.72 315.32C149.72 318.68 148.413 321.293 145.8 323.16C143.187 324.973 139.053 325.88 133.4 325.88C130.84 325.88 128.493 325.667 126.36 325.24C124.227 324.813 122.2 324.173 120.28 323.32L121.56 317.32C123.427 318.173 125.373 318.893 127.4 319.48C129.48 320.013 131.693 320.28 134.04 320.28C140.067 320.28 143.08 318.76 143.08 315.72ZM171.72 282.12C170.333 282.12 169.133 281.64 168.12 280.68C167.107 279.72 166.6 278.413 166.6 276.76C166.6 275.107 167.107 273.8 168.12 272.84C169.133 271.88 170.333 271.4 171.72 271.4C173.16 271.4 174.36 271.88 175.32 272.84C176.333 273.8 176.84 275.107 176.84 276.76C176.84 278.413 176.333 279.72 175.32 280.68C174.36 281.64 173.16 282.12 171.72 282.12ZM170.04 293.4L159.32 293.4L159.32 287.88L176.6 287.88L176.6 310.68C176.6 314.36 177.107 316.84 178.12 318.12C179.133 319.347 180.653 319.96 182.68 319.96C184.227 319.96 185.64 319.773 186.92 319.4C188.253 319.027 189.293 318.627 190.04 318.2L191 323.8C190.68 323.96 190.227 324.173 189.64 324.44C189.053 324.653 188.36 324.867 187.56 325.08C186.813 325.293 185.96 325.48 185 325.64C184.093 325.8 183.133 325.88 182.12 325.88C179.773 325.88 177.827 325.56 176.28 324.92C174.733 324.28 173.48 323.32 172.52 322.04C171.613 320.76 170.973 319.187 170.6 317.32C170.227 315.4 170.04 313.187 170.04 310.68L170.04 293.4ZM222.68 321.56C221.933 321.987 220.787 322.44 219.24 322.92C217.693 323.4 215.907 323.64 213.88 323.64C211.693 323.64 209.64 323.293 207.72 322.6C205.853 321.853 204.2 320.76 202.76 319.32C201.373 317.827 200.253 315.96 199.4 313.72C198.6 311.427 198.2 308.733 198.2 305.64C198.2 302.92 198.573 300.44 199.32 298.2C200.12 295.907 201.24 293.933 202.68 292.28C204.173 290.627 205.987 289.347 208.12 288.44C210.253 287.48 212.68 287 215.4 287C218.6 287 221.32 287.24 223.56 287.72C225.853 288.147 227.773 288.573 229.32 289L229.32 322.12C229.32 327.88 227.853 332.04 224.92 334.6C222.04 337.16 217.667 338.44 211.8 338.44C209.4 338.44 207.213 338.253 205.24 337.88C203.32 337.507 201.613 337.053 200.12 336.52L201.32 330.68C202.707 331.267 204.28 331.747 206.04 332.12C207.853 332.493 209.827 332.68 211.96 332.68C215.8 332.68 218.547 331.907 220.2 330.36C221.853 328.813 222.68 326.307 222.68 322.84L222.68 321.56ZM222.68 293.72C222.04 293.507 221.16 293.32 220.04 293.16C218.92 292.947 217.4 292.84 215.48 292.84C212.067 292.84 209.453 294.013 207.64 296.36C205.88 298.707 205 301.827 205 305.72C205 307.853 205.24 309.693 205.72 311.24C206.253 312.733 206.947 313.987 207.8 315C208.707 315.96 209.72 316.68 210.84 317.16C211.96 317.587 213.16 317.8 214.44 317.8C216.093 317.8 217.64 317.56 219.08 317.08C220.573 316.6 221.773 316.04 222.68 315.4L222.68 293.72ZM240.68 288.92C243.08 288.333 245.453 287.88 247.8 287.56C250.2 287.24 252.44 287.08 254.52 287.08C259.48 287.08 263.213 288.36 265.72 290.92C268.28 293.48 269.56 297.587 269.56 303.24L269.56 325L263 325L263 304.44C263 302.04 262.787 300.093 262.36 298.6C261.933 297.107 261.32 295.96 260.52 295.16C259.773 294.307 258.84 293.72 257.72 293.4C256.653 293.08 255.48 292.92 254.2 292.92C253.133 292.92 251.987 293 250.76 293.16C249.587 293.267 248.44 293.427 247.32 293.64L247.32 325L240.68 325L240.68 288.92Z" fill="black"/>
</svg>
